<svg width="14" height="20" viewBox="0 0 14 20" fill="none" xmlns="http://www.w3.org/2000/svg">
<path d="M13.0235 17.6976V19.6667C13.0235 19.8507 12.8817 20 12.7068 20C12.5319 20 12.3901 19.8507 12.3901 19.6667V17.6976C12.3901 16.1645 11.2115 14.9238 9.75495 14.9238C9.06577 14.9238 8.44047 14.5543 8.08224 13.9352C7.99124 13.778 8.03858 13.5729 8.18793 13.4771C8.33723 13.3813 8.5321 13.4311 8.62311 13.5883C8.86547 14.0071 9.28858 14.2571 9.75495 14.2571C11.5614 14.2571 13.0235 15.7959 13.0235 17.6976ZM7.74028 15.1165L6.61097 16.0368L4.69086 14.472C5.10533 14.1215 5.37335 13.6117 5.41678 13.0328C5.79571 13.1502 6.19645 13.2135 6.61101 13.2135C8.94642 13.2135 10.8464 11.2135 10.8464 8.75517C10.8464 8.72925 10.847 6.42133 10.8454 6.3955C10.8346 6.21517 10.6918 6.08329 10.5298 6.08329C10.4755 6.08329 10.0854 6.16454 9.70341 5.92267C9.10776 5.54546 9.10472 4.71863 9.10476 4.71033C9.1063 4.4395 8.81536 4.27967 8.60513 4.43621C7.30079 5.40817 5.7735 6.06725 4.11508 6.31163C3.9419 6.33717 3.82113 6.50563 3.8454 6.68796C3.86756 6.85463 4.00318 6.97513 4.15862 6.97513C4.2085 6.97513 5.23529 6.84283 6.40248 6.39658C7.15448 6.10908 7.87502 5.73392 8.55059 5.27854C8.78401 6.20046 9.4386 6.71333 10.2131 6.75963V8.75517C10.2131 10.8459 8.59726 12.5468 6.61105 12.5468C4.62483 12.5468 3.00896 10.8459 3.00896 8.75517V6.41667C3.00896 6.23258 2.86717 6.08333 2.6923 6.08333C2.51742 6.08333 2.37563 6.23258 2.37563 6.41667V8.75521C2.37563 10.5278 3.36355 12.062 4.79021 12.78V12.8679C4.79021 13.6363 4.19868 14.2571 3.46706 14.2571C3.06644 14.2571 2.67171 14.3334 2.29832 14.4837L2.09387 14.3124C0.489522 12.9683 0.189045 10.5954 1.28317 8.86662C1.74946 8.12983 2.01938 7.24858 2.01938 6.30571V4.50017C2.01938 2.38637 3.65302 0.666667 5.66105 0.666667H7.56104C9.56907 0.666667 11.2027 2.38629 11.2027 4.5V6.30554C11.2027 7.22267 11.4561 8.10642 11.9354 8.86121C12.8121 10.2417 12.8104 12.0535 11.9045 13.4371C11.8053 13.5887 11.8415 13.7963 11.9856 13.9008C12.1296 14.0052 12.3267 13.967 12.426 13.8154C13.4805 12.2048 13.4817 10.0965 12.4619 8.49071C12.0524 7.84592 11.836 7.09033 11.836 6.30554V4.5C11.836 2.01871 9.91823 0 7.56101 0H5.66101C3.30378 0 1.38601 2.01879 1.38601 4.50017V6.30554C1.38601 7.08804 1.16818 7.84583 0.755997 8.49708C-0.520764 10.5147 -0.158932 13.2587 1.67936 14.8167C0.776303 15.4403 0.198505 16.4993 0.198505 17.6976V19.6667C0.198505 19.8507 0.340293 20 0.515172 20C0.690051 20 0.831839 19.8507 0.831839 19.6667V17.6976C0.831839 16.1645 2.01043 14.9238 3.46702 14.9238C3.67689 14.9238 3.88423 14.8888 4.08306 14.8198L6.41713 16.7219C6.53128 16.8149 6.69073 16.8149 6.80485 16.7219L8.128 15.6436C8.2663 15.5309 8.2916 15.3215 8.18452 15.176C8.07749 15.0305 7.87862 15.0038 7.74028 15.1165Z" fill="#657785"/>
</svg>
