<svg width="13" height="19" viewBox="0 0 13 19" fill="none" xmlns="http://www.w3.org/2000/svg">
<path d="M0.382353 18.7307C0.171294 18.7307 0 18.5598 0 18.3484V16.3368C0 15.431 0.582706 14.646 1.44988 14.3838L4.36303 13.4378C4.52132 13.3866 4.62724 13.2401 4.62724 13.0742V12.0923C4.62724 11.8809 4.79853 11.71 5.00959 11.71C5.22065 11.71 5.39194 11.8809 5.39194 12.0923V13.0742C5.39194 13.5732 5.07344 14.0113 4.59894 14.1654L1.67853 15.1133C1.12909 15.28 0.764706 15.7705 0.764706 16.3368V18.3484C0.764706 18.5598 0.593412 18.7307 0.382353 18.7307Z" fill="#657785"/>
<path d="M12.6174 18.7311C12.406 18.7311 12.235 18.5602 12.235 18.3488V16.3372C12.235 15.7709 11.8707 15.28 11.3281 15.116L8.37824 14.092C7.91713 13.9318 7.60742 13.4963 7.60742 13.0084V12.0923C7.60742 11.8809 7.77833 11.71 7.98977 11.71C8.20122 11.71 8.37213 11.8809 8.37213 12.0923V13.0084C8.37213 13.1713 8.47575 13.3166 8.62907 13.3698L11.5644 14.3887C12.417 14.6464 12.9997 15.4314 12.9997 16.3372V18.3488C12.9997 18.5602 12.8288 18.7311 12.6174 18.7311Z" fill="#657785"/>
<path d="M2.79739 18.739C2.58633 18.739 2.41504 18.5681 2.41504 18.3567V17.27C2.41504 17.0586 2.58633 16.8877 2.79739 16.8877C3.00845 16.8877 3.17975 17.0586 3.17975 17.27V18.3567C3.17975 18.5681 3.00845 18.739 2.79739 18.739Z" fill="#657785"/>
<path d="M10.2085 18.7658C9.99708 18.7658 9.82617 18.5949 9.82617 18.3835V17.27C9.82617 17.0586 9.99708 16.8877 10.2085 16.8877C10.42 16.8877 10.5909 17.0586 10.5909 17.27V18.3835C10.5909 18.5945 10.42 18.7658 10.2085 18.7658Z" fill="#657785"/>
<path d="M3.08167 10.1658C2.15676 9.24779 1.64746 8.02426 1.64746 6.7212C1.64746 4.04549 3.8242 1.86914 6.49952 1.86914C9.17484 1.86914 11.3516 4.04588 11.3516 6.7212C11.3516 7.99214 10.8469 9.18738 9.93037 10.0859L9.39508 9.53991C10.1636 8.78629 10.5869 7.78529 10.5869 6.7212C10.5869 4.46723 8.75311 2.63385 6.49952 2.63385C4.24593 2.63385 2.41217 4.46761 2.41217 6.7212C2.41217 7.81893 2.84155 8.84938 3.62078 9.62288L3.08167 10.1658Z" fill="#657785"/>
<path d="M6.49834 12.6242C4.83816 12.6242 3.38981 11.5031 2.99331 9.87045C2.92563 9.59248 2.8916 9.30534 2.8916 9.01742V7.44175C2.8916 7.22457 2.98948 7.0246 3.16001 6.89231C3.48348 6.64263 3.98704 6.13678 4.34301 5.53342C4.43057 5.38507 4.58466 5.29331 4.75519 5.28834C4.9196 5.28298 5.07598 5.36404 5.16851 5.50284C5.17922 5.51928 6.25975 7.08807 9.58392 6.80169C9.71736 6.7906 9.85348 6.83572 9.95328 6.92748C10.0519 7.0181 10.1085 7.14657 10.1085 7.28001V9.01704C10.1085 9.30572 10.0745 9.59286 10.0068 9.87045C9.61069 11.5027 8.16272 12.623 6.50292 12.6238C6.50178 12.6242 6.50025 12.6242 6.49834 12.6242ZM6.27466 11.8507C6.27542 11.851 6.27657 11.851 6.27734 11.851C6.35457 11.8572 6.43334 11.8617 6.50675 11.8595C6.57825 11.8591 6.65013 11.8564 6.72278 11.851H6.72507C7.93866 11.7566 8.96987 10.9028 9.2639 9.69036C9.31704 9.47166 9.34381 9.24531 9.34381 9.01742V7.58551C6.92428 7.72048 5.45795 6.91984 4.79495 6.24536C4.3346 6.91104 3.81881 7.34616 3.65631 7.47501V9.01742C3.65631 9.24492 3.68307 9.47128 3.73622 9.69036C4.03063 10.902 5.06145 11.7562 6.27466 11.8507Z" fill="#657785"/>
<path d="M10.2083 18.7693C10.0305 18.7693 9.87107 18.6446 9.83398 18.4634C9.69289 17.7736 9.07845 17.2735 8.37339 17.2735C7.88589 17.2735 7.42783 17.5128 7.1491 17.9139C7.00113 18.1261 6.75872 18.2527 6.50025 18.2527C6.24177 18.2527 5.99898 18.1261 5.85139 17.9139C5.57227 17.5128 5.1146 17.2735 4.62672 17.2735C3.93236 17.2735 3.31983 17.7648 3.17072 18.4423C3.1256 18.6484 2.92027 18.7777 2.71533 18.7337C2.50886 18.6882 2.37886 18.4844 2.42398 18.2783C2.64957 17.2532 3.57601 16.5092 4.62672 16.5092C5.36427 16.5092 6.05672 16.8709 6.47883 17.4773L6.50025 17.5029L6.52127 17.4769C6.94301 16.8705 7.63583 16.5088 8.37339 16.5088C9.44016 16.5088 10.3697 17.2662 10.583 18.3104C10.6255 18.5173 10.492 18.7192 10.2852 18.7616C10.2595 18.7666 10.2339 18.7693 10.2083 18.7693Z" fill="#657785"/>
<path d="M2.51479 13.3869C2.48765 13.3869 2.45974 13.3839 2.43221 13.3781C0.997617 13.0615 0.432117 12.501 0.372088 12.4379C0.306706 12.3691 0.269235 12.2785 0.267323 12.1833C0.161794 7.49868 1.56694 4.94112 2.76447 3.62047C2.90632 3.46447 3.14797 3.45224 3.30474 3.59409C3.46112 3.73594 3.47297 3.97759 3.33112 4.13435C2.24141 5.33609 0.9655 7.6715 1.02859 11.9944C1.22321 12.1378 1.70879 12.4352 2.597 12.6314C2.80347 12.6769 2.93347 12.8807 2.88797 13.0872C2.84821 13.2657 2.69029 13.3869 2.51479 13.3869Z" fill="#657785"/>
<path d="M10.4862 13.3872C10.3107 13.3872 10.1528 13.266 10.113 13.0874C10.0675 12.8809 10.1979 12.6772 10.404 12.6317C11.2899 12.4359 11.7759 12.1392 11.9728 11.9939C12.0351 7.67139 10.7596 5.33559 9.67024 4.13462C9.52877 3.97824 9.54024 3.73621 9.69663 3.59436C9.85263 3.4525 10.0943 3.46397 10.2369 3.62074C11.434 4.941 12.8392 7.49856 12.734 12.1835C12.7317 12.2787 12.6943 12.3694 12.6289 12.4386C12.5692 12.5013 12.0037 13.0618 10.5692 13.3784C10.5409 13.3845 10.5133 13.3872 10.4862 13.3872Z" fill="#657785"/>
<path d="M8.93806 2.5632L8.18444 2.43396L8.30412 1.73693C7.83803 1.65626 7.08365 1.45055 6.50018 0.929787C5.91671 1.45017 5.16233 1.65626 4.69624 1.73693L4.81553 2.43129L4.06153 2.56052L3.87456 1.47043C3.85621 1.36223 3.88489 1.25096 3.95409 1.1657C4.0233 1.08043 4.12577 1.02843 4.2355 1.02385C4.24774 1.02346 5.5573 0.953875 6.19965 0.137934C6.34456 -0.0459779 6.65541 -0.0459779 6.80033 0.137934C7.44727 0.95961 8.75109 1.02308 8.76447 1.02385C8.87421 1.02843 8.97668 1.08005 9.0455 1.1657C9.11509 1.25135 9.14377 1.36223 9.12503 1.47043L8.93806 2.5632Z" fill="#657785"/>
</svg>
