<svg width="21" height="20" viewBox="0 0 21 20" fill="none" xmlns="http://www.w3.org/2000/svg">
<path d="M15.1509 11.789L15.1506 11.7886L15.1403 11.7968L10.818 15.2546C10.8179 15.2547 10.8178 15.2548 10.8177 15.2549C10.6916 15.3544 10.5357 15.4085 10.375 15.4085C10.2143 15.4085 10.0584 15.3544 9.93227 15.2549C9.93217 15.2548 9.93206 15.2547 9.93196 15.2546L5.61477 11.8008C5.4871 11.6783 5.40936 11.5128 5.39675 11.3362C5.38399 11.1576 5.43872 10.9807 5.55012 10.8406C5.66152 10.7004 5.82146 10.6072 5.9983 10.5794C6.17308 10.5518 6.35179 10.5901 6.49987 10.6867L9.4168 13.0168L9.66042 13.2114V12.8996V0.864583C9.66042 0.675064 9.7357 0.493307 9.86971 0.359297C10.0037 0.225286 10.1855 0.15 10.375 0.15C10.5645 0.15 10.7463 0.225286 10.8803 0.359297C11.0143 0.493307 11.0896 0.675064 11.0896 0.864583V12.8996V13.2114L11.3332 13.0168L14.2555 10.6824L14.2558 10.6828L14.2648 10.6743C14.3368 10.6064 14.4221 10.5541 14.5153 10.5209C14.6085 10.4876 14.7076 10.4741 14.8063 10.4812C14.905 10.4882 15.0011 10.5157 15.0887 10.5618C15.1762 10.608 15.2532 10.6718 15.3147 10.7493C15.3763 10.8267 15.4211 10.9162 15.4463 11.0118C15.4716 11.1075 15.4766 11.2074 15.4612 11.3051C15.4458 11.4029 15.4103 11.4964 15.3569 11.5797C15.3035 11.663 15.2333 11.7343 15.1509 11.789ZM20.6 12.9688V16.4271C20.6 17.0752 20.3425 17.6968 19.8842 18.1551C19.4259 18.6134 18.8044 18.8708 18.1562 18.8708H2.59375C1.94563 18.8708 1.32405 18.6134 0.865758 18.1551C0.407466 17.6968 0.15 17.0752 0.15 16.4271V12.9688C0.15 12.7792 0.225286 12.5975 0.359297 12.4635C0.493307 12.3295 0.675064 12.2542 0.864583 12.2542C1.0541 12.2542 1.23586 12.3295 1.36987 12.4635C1.50388 12.5975 1.57917 12.7792 1.57917 12.9688V16.4271C1.57917 16.6962 1.68606 16.9542 1.87633 17.1445C2.0666 17.3348 2.32467 17.4417 2.59375 17.4417H18.1562C18.4253 17.4417 18.6834 17.3348 18.8737 17.1445C19.0639 16.9542 19.1708 16.6962 19.1708 16.4271V12.9688C19.1708 12.7792 19.2461 12.5975 19.3801 12.4635C19.5141 12.3295 19.6959 12.2542 19.8854 12.2542C20.0749 12.2542 20.2567 12.3295 20.3907 12.4635C20.5247 12.5975 20.6 12.7792 20.6 12.9688Z" fill="#808080" stroke="#F4F6FB" stroke-width="0.3"/>
</svg>
