<svg width="21" height="21" viewBox="0 0 21 21" fill="none" xmlns="http://www.w3.org/2000/svg">
<mask id="mask0_4157_13152" style="mask-type:luminance" maskUnits="userSpaceOnUse" x="0" y="0" width="21" height="21">
<path d="M0 3.8147e-06H21V21H0V3.8147e-06Z" fill="white"/>
</mask>
<g mask="url(#mask0_4157_13152)">
<path d="M3.65088 13.7159C4.81183 13.7159 5.75293 14.6571 5.75293 15.818V16.5434C5.75293 17.0578 5.87093 17.5654 6.09787 18.027C6.55835 18.9636 6.11366 20.0934 5.13827 20.4649C4.39773 20.7469 3.55999 20.503 3.08654 19.8676C2.31615 18.8337 1.54883 17.1074 1.54883 15.818C1.54883 14.6571 2.48993 13.7159 3.65088 13.7159Z" stroke="#657785" stroke-miterlimit="10" stroke-linecap="round" stroke-linejoin="round"/>
<path d="M20.5898 4.91016C20.5898 5.36321 20.2226 5.73047 19.7695 5.73047C19.3165 5.73047 18.9492 5.36321 18.9492 4.91016C18.9492 4.4571 19.3165 4.08984 19.7695 4.08984C20.2226 4.08984 20.5898 4.4571 20.5898 4.91016Z" stroke="#657785" stroke-miterlimit="10" stroke-linecap="round" stroke-linejoin="round"/>
<path d="M18.4609 2.45215C18.4609 2.90521 18.0937 3.27246 17.6406 3.27246C17.1876 3.27246 16.8203 2.90521 16.8203 2.45215C16.8203 1.99909 17.1876 1.63184 17.6406 1.63184C18.0937 1.63184 18.4609 1.99909 18.4609 2.45215Z" stroke="#657785" stroke-miterlimit="10" stroke-linecap="round" stroke-linejoin="round"/>
<path d="M15.2354 1.37695C15.2354 1.83001 14.8681 2.19727 14.415 2.19727C13.962 2.19727 13.5947 1.83001 13.5947 1.37695C13.5947 0.923895 13.962 0.556641 14.415 0.556641C14.8681 0.556641 15.2354 0.923895 15.2354 1.37695Z" stroke="#657785" stroke-miterlimit="10" stroke-linecap="round" stroke-linejoin="round"/>
<path d="M11.7852 1.23828C11.7852 1.69134 11.4179 2.05859 10.9648 2.05859C10.5118 2.05859 10.1445 1.69134 10.1445 1.23828C10.1445 0.785223 10.5118 0.417969 10.9648 0.417969C11.4179 0.417969 11.7852 0.785223 11.7852 1.23828Z" stroke="#657785" stroke-miterlimit="10" stroke-linecap="round" stroke-linejoin="round"/>
<path d="M9.00941 4.26871C9.00941 5.05334 8.37334 5.68945 7.58867 5.68945C6.80404 5.68945 6.16797 5.05334 6.16797 4.26871C6.16797 3.48408 6.80404 2.84797 7.58867 2.84797C8.37334 2.84797 9.00941 3.48408 9.00941 4.26871Z" stroke="#657785" stroke-miterlimit="10" stroke-linecap="round" stroke-linejoin="round"/>
<path d="M18.6231 12.5205C18.7148 11.6566 18.7608 10.7881 18.7608 9.91855C18.7608 7.15225 16.5183 4.90973 13.752 4.90973C10.9512 4.90973 8.68066 7.18023 8.68066 9.98102C8.68066 10.8832 8.92134 11.769 9.37785 12.5472L9.83185 13.321C10.3139 14.1427 10.568 15.0781 10.568 16.0307V16.9533C10.568 18.9568 12.1922 20.5811 14.1957 20.5811C15.9479 20.5811 17.4496 19.3288 17.7644 17.6052L18.028 16.1626" stroke="#657785" stroke-miterlimit="10" stroke-linecap="round" stroke-linejoin="round"/>
</g>
</svg>
