<svg width="19" height="19" viewBox="0 0 19 19" fill="none" xmlns="http://www.w3.org/2000/svg">
<g clip-path="url(#clip0_4157_13201)">
<path d="M15.2724 18.9998C15.224 18.9998 15.1751 18.9873 15.1306 18.9608C13.7784 18.158 13.1539 16.8705 13.0007 16.5126C12.0935 15.949 11.5261 15.1709 11.2157 14.6344C11.0015 14.8668 10.7971 15.08 10.5959 15.2812C9.82253 16.0546 8.75065 16.4098 7.98767 16.5716C7.54888 16.6646 7.17058 16.7038 6.93048 16.7203C6.77877 16.7307 6.66956 16.7351 6.58832 16.7343L4.40437 18.9183C4.29567 19.027 4.11944 19.027 4.01078 18.9183C3.90208 18.8096 3.90208 18.6334 4.01078 18.5247L6.28243 16.2531C6.34841 16.1871 6.44089 16.1601 6.52869 16.176C6.85184 16.1986 9.00849 16.0816 10.2024 14.8876C10.3923 14.6977 10.5854 14.4964 10.7876 14.2776C10.2489 14.3261 9.40297 14.242 8.69713 13.5362L7.2455 12.0845C7.0581 12.4122 6.84127 12.6999 6.59849 12.9427C6.48976 13.0514 6.31356 13.0514 6.20487 12.9427C6.09617 12.834 6.09617 12.6578 6.20487 12.5491C6.44456 12.3094 6.65631 12.0157 6.83555 11.6746L6.6562 11.4953C6.30057 11.1397 6.14827 10.7827 6.20346 10.4343C6.2478 10.1544 6.42467 9.90389 6.73057 9.68672C6.41317 9.31529 6.46698 8.82299 6.87801 8.41192C7.03398 8.25595 7.20171 8.15141 7.37005 8.09908C7.34904 8.01581 7.34218 7.93009 7.34938 7.84347C7.27104 7.36624 7.1446 6.89301 6.97271 6.433C6.24892 6.76279 5.48724 6.6335 5.44638 6.62627C5.29504 6.59921 5.19433 6.45463 5.22134 6.30333C5.24836 6.1523 5.39242 6.05166 5.54353 6.07815C5.55359 6.0799 6.55797 6.24522 7.17303 5.63016L8.57007 4.23312C9.03491 3.76824 8.9713 3.25449 8.71547 2.97387C8.55248 2.79507 8.27653 2.68853 7.99086 2.92574C7.00321 3.74587 6.17462 4.11463 5.76864 4.26147C5.59675 4.32363 5.45038 4.43314 5.3454 4.5782L4.24754 6.09441C4.15736 6.21891 3.98339 6.24674 3.85889 6.1566C3.73438 6.06646 3.70655 5.89245 3.79669 5.76795L4.89455 4.25175C5.06526 4.01595 5.30206 3.83827 5.57938 3.738C5.95122 3.60351 6.71275 3.26351 7.63527 2.49749C8.10423 2.10817 8.71758 2.1498 9.12687 2.59883C9.30756 2.79704 9.42872 3.0567 9.4616 3.34163L10.4654 2.3378C10.5742 2.22911 10.7504 2.22911 10.859 2.3378C10.9677 2.4465 10.9677 2.62273 10.859 2.73139L7.56665 6.02375C7.52943 6.06097 7.49136 6.09608 7.45258 6.12918C7.57719 6.44881 7.68136 6.77493 7.76415 7.10469C8.05417 6.84618 8.3781 6.75916 8.66875 6.84829C8.72389 6.68468 8.82798 6.52403 8.97516 6.37681C9.16706 6.18492 9.38181 6.06631 9.5962 6.03384C9.77945 6.00608 10.052 6.02698 10.3093 6.2843L10.9872 6.96218C11.0886 6.78302 11.2324 6.62723 11.4072 6.51341C11.633 6.36638 11.8705 6.31573 12.059 6.37447C12.1318 6.39719 12.2073 6.42917 12.2848 6.46918L15.6629 3.0911C16.3097 2.44431 16.4913 1.85363 16.1488 1.5111C15.9998 1.36211 15.8087 1.30893 15.581 1.35346C15.2814 1.41183 14.9315 1.63438 14.5689 1.99702L13.863 2.70285L10.8361 5.7298C10.7273 5.83846 10.5511 5.83853 10.4425 5.7298C10.3338 5.62111 10.3338 5.44491 10.4425 5.33621L13.4723 2.30637C14.1168 1.66069 14.2974 1.07128 13.9553 0.729234C13.8063 0.580238 13.6153 0.527059 13.3875 0.571591C13.0879 0.629965 12.738 0.852514 12.3754 1.21515L11.6384 1.95212C11.5297 2.06085 11.3535 2.06085 11.2448 1.95216C11.1361 1.84346 11.1361 1.66723 11.2448 1.55853L11.9817 0.821564C12.4294 0.373944 12.8665 0.106047 13.281 0.0252587C13.6899 -0.0544164 14.0691 0.0558373 14.349 0.335683C14.4649 0.451615 14.6902 0.733762 14.6861 1.16735C14.9556 0.977537 15.2194 0.856856 15.4745 0.807128C15.8832 0.727453 16.2626 0.83767 16.5425 1.11755C16.7276 1.30266 17.1917 1.91171 16.5548 2.88462C17.0049 2.87104 17.2958 3.10282 17.4142 3.2212C17.6349 3.4419 18.2519 4.26477 16.9282 5.58841L16.4866 6.03009C16.7755 6.04245 17.0382 6.15675 17.2462 6.36464C17.526 6.64449 17.6363 7.02379 17.5565 7.43259C17.4757 7.84711 17.2078 8.28423 16.7602 8.73181L15.3505 10.1416C15.2417 10.2503 15.0655 10.2503 14.9568 10.1416C14.8481 10.0329 14.8481 9.85669 14.9568 9.74803L16.3666 8.33822C16.7292 7.97558 16.9518 7.6256 17.0102 7.32612C17.0546 7.0983 17.0016 6.90726 16.8526 6.75827C16.7035 6.60923 16.5124 6.55616 16.2847 6.60062C15.9852 6.659 15.6352 6.88154 15.2726 7.24418C15.272 7.2447 15.2715 7.24522 15.271 7.24574L14.1247 8.39199C14.4612 9.06008 14.4783 9.89677 14.1866 11.0841C14.6433 11.3129 15.6967 11.9337 16.4268 13.0868C16.7864 13.2365 18.0798 13.8484 18.8956 15.1926C18.9754 15.324 18.9335 15.4952 18.8021 15.575C18.6708 15.6547 18.4995 15.6128 18.4198 15.4814C17.5899 14.1142 16.158 13.5784 16.1436 13.5732C16.0842 13.5515 16.0336 13.5101 16.0008 13.4561C15.164 12.0773 13.7692 11.5028 13.7552 11.4972C13.6247 11.4446 13.554 11.3029 13.5905 11.167C14.0378 9.4988 13.789 8.83642 13.4866 8.40851C12.8904 7.56485 12.2371 7.01577 11.8973 6.90719C11.8674 6.90481 11.7723 6.92845 11.6611 7.01573C11.5995 7.06401 11.4674 7.18625 11.4079 7.38297L11.4087 7.38375L11.9504 7.92545C12.1505 8.12558 12.7723 8.53516 12.9949 8.67611C13.1248 8.75831 13.1635 8.93024 13.0813 9.06012C12.9991 9.19001 12.8272 9.22867 12.6973 9.14648C12.61 9.09126 11.8366 8.59892 11.5568 8.31904L10.9109 7.6731C10.9098 7.67206 10.9087 7.67098 10.9077 7.66995L9.91571 6.67796C9.815 6.57721 9.73261 6.57632 9.67958 6.58429C9.58492 6.59862 9.47455 6.66475 9.36882 6.77051C9.2631 6.87624 9.19697 6.9866 9.18261 7.08131C9.17459 7.13441 9.17552 7.21668 9.27627 7.31744L10.4167 8.45786C10.5254 8.56656 10.5254 8.74279 10.4167 8.85145C10.308 8.96011 10.1318 8.96015 10.0231 8.85145L8.88268 7.71103L8.63932 7.4677C8.41206 7.24043 8.17144 7.48109 8.09235 7.56017C7.77265 7.87991 7.94365 8.05092 7.99984 8.1071L8.20854 8.31581C8.20977 8.31699 8.21099 8.31826 8.21226 8.31948C8.21289 8.32015 8.21352 8.32078 8.21415 8.32141L9.38367 9.49089C9.49236 9.59959 9.49236 9.77582 9.38367 9.88448C9.27497 9.99318 9.09874 9.99318 8.99008 9.88448L7.81663 8.71103C7.59 8.48729 7.35053 8.72673 7.27174 8.80558C6.95204 9.12532 7.12304 9.29633 7.17923 9.35251L7.36878 9.54207C7.37194 9.54507 7.37502 9.54815 7.37806 9.55135L8.55972 10.733C8.66841 10.8417 8.66841 11.0179 8.55972 11.1266C8.45102 11.2353 8.27479 11.2353 8.16613 11.1266L7.12913 10.0896C6.9487 10.2029 6.78033 10.3516 6.75339 10.5215C6.72133 10.7239 6.89693 10.9488 7.04994 11.1018L9.09083 13.1427C9.9339 13.9858 11.0013 13.6863 11.0716 13.6651C11.1332 13.6404 11.202 13.6384 11.2656 13.6603C11.3443 13.6874 11.4068 13.7483 11.4358 13.8263C11.441 13.8401 11.9907 15.2667 13.366 16.0833C13.4206 16.1157 13.4625 16.1658 13.4847 16.2253C13.4899 16.2392 14.0396 17.6658 15.4149 18.4823C15.5471 18.5608 15.5906 18.7316 15.5121 18.8638C15.4599 18.9512 15.3674 18.9998 15.2724 18.9998ZM6.62376 16.212C6.62391 16.2121 6.62402 16.2121 6.62417 16.2122C6.62402 16.2121 6.62388 16.2121 6.62376 16.212ZM6.62325 16.2117C6.62336 16.2117 6.62347 16.2118 6.62358 16.2118C6.62351 16.2118 6.62336 16.2117 6.62325 16.2117ZM6.62291 16.2114C6.62291 16.2114 6.62295 16.2115 6.62298 16.2115C6.62295 16.2115 6.62291 16.2115 6.62291 16.2114ZM11.0296 13.6859C11.0295 13.686 11.0294 13.6861 11.0292 13.6862C11.0293 13.6861 11.0295 13.686 11.0296 13.6859ZM12.755 6.78606C13.1288 7.08943 13.5086 7.50692 13.815 7.9142L16.5346 5.19464C17.1814 4.54785 17.3631 3.95721 17.0205 3.61464C16.678 3.27208 16.0874 3.45377 15.4406 4.10056C15.4399 4.10119 15.4393 4.10179 15.4387 4.10238L12.755 6.78606ZM11.8991 6.90719H11.8992C11.8991 6.90719 11.8991 6.90719 11.8991 6.90719ZM0.341792 15.134C0.270578 15.134 0.199327 15.1069 0.144998 15.0525C0.0363028 14.9438 0.0363028 14.7676 0.144998 14.6589L2.3042 12.4997C1.74251 10.2397 2.14771 8.04516 2.8309 7.10164L3.19918 6.59305C3.28932 6.46859 3.46333 6.44072 3.58784 6.53086C3.71234 6.621 3.74017 6.795 3.65003 6.91955L3.28175 7.42814C2.74763 8.16577 2.27054 10.2307 2.88223 12.512C2.90798 12.608 2.88052 12.7106 2.8102 12.7809L0.538586 15.0525C0.484257 15.1069 0.413006 15.134 0.341792 15.134Z" fill="#657785"/>
</g>
<defs>
<clipPath id="clip0_4157_13201">
<rect width="19" height="19" fill="white"/>
</clipPath>
</defs>
</svg>
