<svg width="368" height="215" viewBox="0 0 368 215" fill="none" xmlns="http://www.w3.org/2000/svg">
<rect width="368" height="214.222" rx="16" fill="#4197FD"/>
<path d="M80 16C80 7.16344 87.1634 0 96 0H206.459C213.668 0 219.987 4.82093 221.891 11.7739L271.794 193.996C274.583 204.178 266.919 214.222 256.362 214.222H96C87.1634 214.222 80 207.059 80 198.222V16Z" fill="#348CF3"/>
<path d="M0 16C0 7.16344 7.16344 0 16 0H89.1259C96.3349 0 102.654 4.82093 104.558 11.7739L154.461 193.996C157.249 204.178 149.586 214.222 139.029 214.222H16C7.16345 214.222 0 207.059 0 198.222V16Z" fill="#3F7BD4"/>
</svg>
