<svg width="20" height="20" viewBox="0 0 20 20" fill="none" xmlns="http://www.w3.org/2000/svg">
<path d="M16.9996 1.99996H15.9997V0.999979C15.9997 0.399992 15.5997 0 14.9997 0C14.3997 0 13.9997 0.399992 13.9997 0.999979V1.99996H5.99987V0.999979C5.99987 0.399992 5.59988 0 4.9999 0C4.39991 0 3.99992 0.399992 3.99992 0.999979V1.99996H2.99994C1.29997 1.99996 0 3.29993 0 4.9999V5.99987H19.9996V4.9999C19.9996 3.29993 18.6996 1.99996 16.9996 1.99996ZM0 16.9996C0 18.6996 1.29997 19.9996 2.99994 19.9996H16.9996C18.6996 19.9996 19.9996 18.6996 19.9996 16.9996V7.99983H0V16.9996ZM14.9997 9.99979C15.5997 9.99979 15.9997 10.3998 15.9997 10.9998C15.9997 11.5998 15.5997 11.9997 14.9997 11.9997C14.3997 11.9997 13.9997 11.5998 13.9997 10.9998C13.9997 10.3998 14.3997 9.99979 14.9997 9.99979ZM14.9997 13.9997C15.5997 13.9997 15.9997 14.3997 15.9997 14.9997C15.9997 15.5997 15.5997 15.9997 14.9997 15.9997C14.3997 15.9997 13.9997 15.5997 13.9997 14.9997C13.9997 14.3997 14.3997 13.9997 14.9997 13.9997ZM9.99979 9.99979C10.5998 9.99979 10.9998 10.3998 10.9998 10.9998C10.9998 11.5998 10.5998 11.9997 9.99979 11.9997C9.3998 11.9997 8.99981 11.5998 8.99981 10.9998C8.99981 10.3998 9.3998 9.99979 9.99979 9.99979ZM9.99979 13.9997C10.5998 13.9997 10.9998 14.3997 10.9998 14.9997C10.9998 15.5997 10.5998 15.9997 9.99979 15.9997C9.3998 15.9997 8.99981 15.5997 8.99981 14.9997C8.99981 14.3997 9.3998 13.9997 9.99979 13.9997ZM4.9999 9.99979C5.59988 9.99979 5.99987 10.3998 5.99987 10.9998C5.99987 11.5998 5.59988 11.9997 4.9999 11.9997C4.39991 11.9997 3.99992 11.5998 3.99992 10.9998C3.99992 10.3998 4.39991 9.99979 4.9999 9.99979ZM4.9999 13.9997C5.59988 13.9997 5.99987 14.3997 5.99987 14.9997C5.99987 15.5997 5.59988 15.9997 4.9999 15.9997C4.39991 15.9997 3.99992 15.5997 3.99992 14.9997C3.99992 14.3997 4.39991 13.9997 4.9999 13.9997Z" fill="#5090CB"/>
</svg>
