<svg width="18" height="19" viewBox="0 0 18 19" fill="none" xmlns="http://www.w3.org/2000/svg">
<g clip-path="url(#clip0_4157_13096)">
<path d="M3.66802 12.6299C5.44341 14.8701 7.58058 16.6339 10.0199 17.8819C10.9486 18.3465 12.1906 18.8976 13.5744 18.9921C13.6601 18.9961 13.7422 19 13.828 19C14.7567 19 15.5027 18.6614 16.1106 17.9646C16.1144 17.9606 16.1218 17.9528 16.1255 17.9449C16.3419 17.6693 16.588 17.4213 16.8454 17.1575C17.0207 16.9803 17.1997 16.7953 17.3713 16.6063C18.1657 15.7323 18.1657 14.622 17.3638 13.7756L15.1222 11.4094C14.7418 10.9921 14.2868 10.7717 13.8093 10.7717C13.3319 10.7717 12.8732 10.9921 12.4815 11.4055L11.1463 12.815C11.0232 12.7402 10.8964 12.6732 10.777 12.6102C10.6278 12.5315 10.4898 12.4567 10.3667 12.374C9.15082 11.5591 8.0468 10.4961 6.99127 9.12992C6.45791 8.41732 6.09985 7.8189 5.84995 7.20866C6.20056 6.87402 6.52878 6.52362 6.84581 6.1811C6.9577 6.05906 7.07333 5.93701 7.18895 5.81496C7.59177 5.38976 7.8081 4.89764 7.8081 4.39764C7.8081 3.89764 7.5955 3.40551 7.18895 2.98031L6.07747 1.80709C5.94693 1.66929 5.82385 1.53543 5.69703 1.39764C5.45087 1.12992 5.19351 0.854331 4.93988 0.606299C4.55572 0.208661 4.10441 0 3.627 0C3.15331 0 2.69828 0.208661 2.29919 0.610236L0.904244 2.08268C0.396992 2.61811 0.109797 3.26772 0.0501205 4.01968C-0.0207456 4.96063 0.143365 5.96063 0.568562 7.16929C1.22128 9.03937 2.20594 10.7756 3.66802 12.6299ZM0.960191 4.10236C1.00495 3.57874 1.19517 3.14173 1.55323 2.76378L2.94071 1.29921C3.15704 1.07874 3.39575 0.964567 3.627 0.964567C3.85451 0.964567 4.08576 1.07874 4.29836 1.30709C4.54826 1.55118 4.78323 1.80709 5.03686 2.07874C5.16367 2.21654 5.29421 2.35433 5.42476 2.49606L6.53624 3.66929C6.76748 3.91339 6.88684 4.16142 6.88684 4.40551C6.88684 4.64961 6.76748 4.89764 6.53624 5.14173C6.42061 5.26378 6.30499 5.38976 6.18937 5.51181C5.84249 5.88189 5.518 6.23228 5.15994 6.56693C5.15248 6.5748 5.14875 6.57874 5.14129 6.58661C4.83172 6.91339 4.88021 7.22441 4.9548 7.46063C4.95853 7.47244 4.96226 7.48032 4.96599 7.49213C5.25319 8.22047 5.65228 8.91339 6.27515 9.74016C7.39409 11.1968 8.57271 12.3268 9.87068 13.1969C10.0311 13.3071 10.2026 13.3937 10.363 13.4803C10.5122 13.5591 10.6502 13.6339 10.7733 13.7165C10.7882 13.7244 10.7994 13.7323 10.8143 13.7402C10.9374 13.8071 11.0568 13.8386 11.1761 13.8386C11.4745 13.8386 11.6684 13.6378 11.7318 13.5709L13.1268 12.0984C13.3431 11.8701 13.5781 11.748 13.8093 11.748C14.0928 11.748 14.3241 11.9331 14.4695 12.0984L16.7186 14.4685C17.1662 14.9409 17.1624 15.4528 16.7074 15.9528C16.5507 16.1299 16.3866 16.2992 16.2113 16.4764C15.9502 16.7441 15.678 17.0197 15.4318 17.3307C15.0029 17.8189 14.4919 18.0472 13.8317 18.0472C13.7683 18.0472 13.7012 18.0433 13.6378 18.0394C12.4144 17.9567 11.2768 17.4528 10.4227 17.0236C8.10275 15.8386 6.06628 14.1575 4.37668 12.0236C2.98547 10.2559 2.04929 8.61024 1.43015 6.84646C1.04598 5.76378 0.900514 4.8937 0.960191 4.10236Z" fill="#657785"/>
</g>
<defs>
<clipPath id="clip0_4157_13096">
<rect width="18" height="19" fill="white"/>
</clipPath>
</defs>
</svg>
