<svg width="24" height="24" viewBox="0 0 24 24" fill="none" xmlns="http://www.w3.org/2000/svg">
<path d="M11.9998 22.3128C11.015 22.3436 10.0351 22.1642 9.12509 21.7867C8.2151 21.4091 7.39599 20.8421 6.72229 20.1232C6.06048 19.3346 5.57385 18.4144 5.29467 17.4235C5.01548 16.4326 4.95012 15.3936 5.1029 14.3755C5.5603 10.2619 11.2992 2.26019 11.5435 1.92145C11.598 1.85275 11.6674 1.79726 11.7464 1.75912C11.8254 1.72098 11.912 1.70117 11.9998 1.70117C12.0875 1.70117 12.1741 1.72098 12.2531 1.75912C12.3321 1.79726 12.4015 1.85275 12.4561 1.92145C12.7003 2.26019 18.4392 10.2619 18.8962 14.3755C19.049 15.3936 18.9836 16.4329 18.7044 17.4238C18.4253 18.4148 17.9386 19.335 17.2769 20.1236C16.6031 20.8423 15.7841 21.4092 14.8742 21.7867C13.9642 22.1642 12.9844 22.3435 11.9998 22.3128ZM11.9998 3.23028C10.6213 5.22723 6.5747 11.3184 6.22131 14.5C6.08192 15.3609 6.12937 16.2416 6.36045 17.0824C6.59153 17.9233 7.00082 18.7045 7.56054 19.3732C8.12951 19.9732 8.81958 20.4452 9.58494 20.7581C10.3503 21.0709 11.1735 21.2174 11.9998 21.1878C12.826 21.2174 13.649 21.0709 14.4142 20.7581C15.1795 20.4452 15.8694 19.9732 16.4383 19.3732C16.9982 18.7046 17.4077 17.9233 17.639 17.0824C17.8702 16.2415 17.9179 15.3606 17.7786 14.4997C17.4248 11.3184 13.3782 5.22723 11.9998 3.23028Z" fill="#657785"/>
<path d="M12 14.0625C11.8508 14.0625 11.7078 14.0032 11.6023 13.8977C11.4968 13.7922 11.4375 13.6492 11.4375 13.5V10.5C11.4375 10.3508 11.4968 10.2077 11.6023 10.1023C11.7077 9.99676 11.8508 9.9375 12 9.9375C12.1492 9.9375 12.2923 9.99676 12.3977 10.1023C12.5032 10.2077 12.5625 10.3508 12.5625 10.5V13.5C12.5625 13.6492 12.5032 13.7922 12.3977 13.8977C12.2922 14.0032 12.1492 14.0625 12 14.0625Z" fill="#657785"/>
<path d="M13.5 12.5625H10.5C10.3508 12.5625 10.2077 12.5032 10.1023 12.3977C9.99676 12.2923 9.9375 12.1492 9.9375 12C9.9375 11.8508 9.99676 11.7077 10.1023 11.6023C10.2077 11.4968 10.3508 11.4375 10.5 11.4375H13.5C13.6492 11.4375 13.7923 11.4968 13.8977 11.6023C14.0032 11.7077 14.0625 11.8508 14.0625 12C14.0625 12.1492 14.0032 12.2923 13.8977 12.3977C13.7923 12.5032 13.6492 12.5625 13.5 12.5625Z" fill="#657785"/>
<path d="M13.5 17.4375H10.5C10.3508 17.4375 10.2077 17.3782 10.1023 17.2727C9.99676 17.1673 9.9375 17.0242 9.9375 16.875C9.9375 16.7258 9.99676 16.5827 10.1023 16.4773C10.2077 16.3718 10.3508 16.3125 10.5 16.3125H13.5C13.6492 16.3125 13.7923 16.3718 13.8977 16.4773C14.0032 16.5827 14.0625 16.7258 14.0625 16.875C14.0625 17.0242 14.0032 17.1673 13.8977 17.2727C13.7923 17.3782 13.6492 17.4375 13.5 17.4375Z" fill="#657785"/>
</svg>
