<svg width="21" height="21" viewBox="0 0 21 21" fill="none" xmlns="http://www.w3.org/2000/svg">
<g clip-path="url(#clip0_4157_13685)">
<path d="M10.5 8.50488C12.6746 8.50488 14.4375 6.742 14.4375 4.56738C14.4375 2.39276 12.6746 0.629883 10.5 0.629883C8.32538 0.629883 6.5625 2.39276 6.5625 4.56738C6.5625 6.742 8.32538 8.50488 10.5 8.50488Z" fill="#BCBCBC"/>
<path d="M20.2523 17.6141C19.8438 15.7545 18.9073 14.0523 17.5551 12.7119C17.2269 12.3826 16.8712 12.0818 16.492 11.8129C14.7647 10.5173 12.6594 9.82551 10.5004 9.84412C7.86039 9.8306 5.32212 10.8615 3.43914 12.7119C2.08694 14.0523 1.15039 15.7545 0.741952 17.6141C0.67096 17.9429 0.674795 18.2835 0.753173 18.6107C0.831552 18.9378 0.98247 19.2432 1.19476 19.5041C1.41462 19.7707 1.69148 19.9845 2.00495 20.1299C2.31842 20.2753 2.66051 20.3485 3.00601 20.3441H17.9948C18.3413 20.3443 18.6834 20.2666 18.9958 20.1166C19.3082 19.9667 19.5829 19.7484 19.7994 19.4779C20.0079 19.22 20.1567 18.9191 20.235 18.5968C20.3133 18.2745 20.3192 17.9389 20.2523 17.6141Z" fill="#BCBCBC"/>
</g>
<defs>
<clipPath id="clip0_4157_13685">
<rect width="21" height="21" fill="white"/>
</clipPath>
</defs>
</svg>
