<svg width="20" height="20" viewBox="0 0 20 20" fill="none" xmlns="http://www.w3.org/2000/svg">
<g clip-path="url(#clip0_4182_680)">
<path d="M4.99982 11.9993C5.18416 11.9993 5.33314 11.85 5.33314 11.666V10.9993C5.33314 10.8154 5.18416 10.666 4.99982 10.666C4.81549 10.666 4.6665 10.8154 4.6665 10.9993V11.666C4.6665 11.85 4.81549 11.9993 4.99982 11.9993Z" fill="#657785"/>
<path d="M14.9998 10.666C14.8155 10.666 14.6665 10.8154 14.6665 10.9993V11.666C14.6665 11.85 14.8155 11.9993 14.9998 11.9993C15.1842 11.9993 15.3331 11.85 15.3331 11.666V10.9993C15.3331 10.8154 15.1842 10.666 14.9998 10.666Z" fill="#657785"/>
<path d="M15.3196 16.9183C15.3133 16.8946 15.3033 16.8733 15.2923 16.8513C15.2859 16.8396 15.2846 16.8263 15.2773 16.815C15.2736 16.81 15.2683 16.8073 15.2646 16.8023C15.2506 16.784 15.2333 16.7693 15.2156 16.7536C15.1993 16.739 15.1836 16.7246 15.1646 16.7139C15.1589 16.7103 15.1556 16.705 15.1493 16.7016L13.816 16.0349C13.7086 15.9819 13.5813 15.9896 13.482 16.0559L11.4816 17.3892C11.389 17.4512 11.3333 17.5553 11.3333 17.6666V18.8486C11.135 19.0073 10.648 19.3332 10 19.3332C9.35832 19.3332 8.86668 19.0056 8.66668 18.8476V17.6666C8.66668 17.5552 8.61102 17.4512 8.51836 17.3892L6.51836 16.0559C6.41903 15.9896 6.29168 15.9819 6.18438 16.0349L4.85106 16.7016C4.84504 16.7046 4.84172 16.7099 4.83641 16.7132C4.81641 16.7246 4.79973 16.7396 4.78274 16.7552C4.76574 16.7702 4.74942 16.7839 4.73641 16.8012C4.73242 16.8066 4.72641 16.8096 4.72274 16.8149C4.71473 16.8269 4.7134 16.8406 4.70707 16.8536C4.69672 16.8742 4.68672 16.8946 4.68074 16.9173C4.67539 16.9379 4.67375 16.9583 4.67274 16.9796C4.67141 17.0006 4.67039 17.0209 4.67305 17.0423C4.6757 17.0656 4.6834 17.0869 4.69106 17.1089C4.6957 17.1223 4.69539 17.1363 4.70172 17.1489C4.70473 17.155 4.71039 17.1586 4.71371 17.1643C4.72473 17.1836 4.73973 17.2 4.75504 17.2169C4.77004 17.2336 4.78403 17.2503 4.80137 17.2636C4.80672 17.2676 4.80969 17.2736 4.81504 17.2773L6.81504 18.6106C6.87203 18.6486 6.93637 18.6666 6.99969 18.6666C7.10735 18.6666 7.21336 18.6146 7.27735 18.5183C7.37969 18.365 7.33836 18.158 7.185 18.056L5.66266 17.0413L6.30934 16.718L8 17.845V19C8 19.0883 8.035 19.1733 8.09766 19.2356C8.12895 19.2669 8.87496 20 9.99996 20C11.125 20 11.871 19.2669 11.9023 19.2356C11.965 19.1733 12 19.0883 12 19V17.845L13.691 16.718L14.3373 17.0413L12.815 18.0559C12.6616 18.1579 12.6203 18.3649 12.7226 18.5183C12.7866 18.6146 12.8926 18.6666 13.0003 18.6666C13.0636 18.6666 13.1279 18.6486 13.1849 18.6106L15.1849 17.2773C15.1903 17.2736 15.1929 17.2679 15.1979 17.2639C15.2166 17.2503 15.2313 17.2329 15.2469 17.2153C15.2609 17.1986 15.2752 17.1836 15.2859 17.1649C15.2892 17.1589 15.2952 17.1553 15.2986 17.1489C15.3052 17.1352 15.3052 17.1206 15.3099 17.1066C15.3169 17.0855 15.3242 17.0655 15.3269 17.0435C15.3299 17.0209 15.3289 16.9996 15.3272 16.9772C15.3263 16.9573 15.325 16.938 15.3196 16.9183Z" fill="#657785"/>
<path d="M2.22794 15.983C2.26294 15.9943 2.2986 16 2.33329 16C2.47294 16 2.60294 15.9117 2.6493 15.772C2.69094 15.6473 3.66661 12.6896 3.66661 10V7C3.66661 1.76535 7.11059 0.66668 9.99993 0.66668C10.9843 0.66668 13.0326 0.66668 13.3456 1.10137C13.3586 1.11902 13.3779 1.1457 13.3506 1.22805C13.3132 1.33906 13.3373 1.46105 13.4132 1.54973C13.4893 1.63871 13.6059 1.68105 13.7213 1.66207C14.1456 1.59207 14.5186 1.6984 14.8613 1.9884C15.7556 2.74605 16.3332 4.7134 16.3332 7.00008V10C16.3332 13.0257 17.3126 15.6727 17.3543 15.7837C17.419 15.956 17.6109 16.043 17.7836 15.979C17.9559 15.9144 18.0432 15.7223 17.979 15.5497C17.9689 15.5237 16.9999 12.9007 16.9999 10V7C16.9999 5.03066 16.5513 2.54633 15.2923 1.47965C14.9116 1.15766 14.4746 0.986641 14.0096 0.975664C13.9829 0.867344 13.9353 0.778984 13.8866 0.711328C13.4123 0.0536718 11.8459 0 9.99993 0C5.48594 0 2.99993 2.48602 2.99993 7V10C2.99993 12.5796 2.02692 15.5317 2.01727 15.5613C1.95891 15.736 2.05325 15.9247 2.22794 15.983Z" fill="#657785"/>
<path d="M3.58592 16.6762C0.773893 17.3791 0.0465882 19.4718 0.0172523 19.5608C-0.041068 19.7355 0.0532679 19.9241 0.227916 19.9825C0.262916 19.9942 0.29858 19.9995 0.333229 19.9995C0.472916 19.9995 0.602916 19.9112 0.649244 19.7715C0.655573 19.7532 1.28659 17.9378 3.74725 17.3228C3.92592 17.2782 4.0346 17.0971 3.98991 16.9185C3.94526 16.7401 3.76424 16.6312 3.58592 16.6762Z" fill="#657785"/>
<path d="M8.33332 9.33328C8.51766 9.33328 8.66664 9.18395 8.66664 8.99996V8.78063C8.68797 8.80129 8.70266 8.81828 8.7043 8.82063C8.76364 8.93461 8.87996 8.99996 9.00032 8.99996C9.052 8.99996 9.10465 8.98797 9.15399 8.96231C9.317 8.87731 9.38067 8.67598 9.29567 8.51266C9.19668 8.3223 8.88199 8 8.33332 8C7.78465 8 7.47 8.32234 7.37098 8.51266C7.28797 8.6723 7.34965 8.86301 7.50598 8.95133C7.66164 9.03965 7.86332 8.98332 7.95731 8.82934C7.96063 8.82434 7.97696 8.805 7.99996 8.78266V9C8 9.18395 8.14899 9.33328 8.33332 9.33328Z" fill="#657785"/>
<path d="M19.9827 19.5609C19.9533 19.4719 19.226 17.3792 16.414 16.6763C16.2353 16.6309 16.0547 16.7403 16.01 16.9186C15.9654 17.0973 16.074 17.2783 16.2527 17.323C18.695 17.9336 19.3253 19.6983 19.3507 19.7716C19.397 19.9113 19.527 19.9996 19.6667 19.9996C19.7014 19.9996 19.7371 19.9943 19.7721 19.9826C19.9467 19.9242 20.041 19.7356 19.9827 19.5609Z" fill="#657785"/>
<path d="M9.99993 13.0001C10.7823 13.0001 11.1916 12.6131 11.2356 12.5691C11.3643 12.4404 11.3639 12.2345 11.2376 12.1038C11.1106 11.9731 10.9013 11.9694 10.7683 12.0941C10.7576 12.1038 10.5063 12.3335 9.99993 12.3335C9.50095 12.3335 9.24962 12.1104 9.23228 12.0945C9.10259 11.9675 8.8936 11.9685 8.76427 12.0978C8.63392 12.2281 8.63392 12.4388 8.76427 12.5691C8.80825 12.6131 9.21759 13.0001 9.99993 13.0001Z" fill="#657785"/>
<path d="M11.6663 9.33328C11.8507 9.33328 11.9997 9.18395 11.9997 8.99996V8.78063C12.021 8.80129 12.0357 8.81828 12.0373 8.82063C12.0966 8.93461 12.213 8.99996 12.3333 8.99996C12.385 8.99996 12.4377 8.98797 12.487 8.96231C12.65 8.87731 12.7137 8.67598 12.6287 8.51266C12.5297 8.3223 12.215 8 11.6663 8C11.1177 8 10.803 8.32234 10.704 8.51266C10.621 8.6723 10.6827 8.86301 10.839 8.95133C10.995 9.03965 11.1966 8.98332 11.2903 8.82934C11.2936 8.82434 11.31 8.805 11.333 8.78266V9C11.333 9.18395 11.482 9.33328 11.6663 9.33328Z" fill="#657785"/>
<path d="M15.2002 7.40046C14.8665 7.14878 13.9998 6.34745 13.9998 5.66679C13.9998 5.48281 13.8508 5.33347 13.6665 5.33347C13.4822 5.33347 13.3332 5.48281 13.3332 5.66679C13.3332 6.63077 14.2845 7.51245 14.6619 7.82413C14.5902 9.13179 13.6885 11.5438 13.3682 12.1845C13.0692 12.7828 11.4872 14.6668 9.99986 14.6668C8.51256 14.6668 6.93053 12.7828 6.63154 12.1845C6.29787 11.5171 5.33322 8.92749 5.33322 7.66683V6.66183C6.6549 6.6305 11.4786 6.39117 13.8665 4.60015C14.0139 4.4898 14.0439 4.28081 13.9332 4.13347C13.8229 3.98613 13.6139 3.95613 13.4665 4.06679C10.9202 5.97644 5.05881 6.00011 4.99982 6.00011C4.81549 6.00011 4.6665 6.14945 4.6665 6.33343V7.66675C4.6665 9.09742 5.71615 11.8451 6.03482 12.4824C6.44049 13.2937 8.21584 15.3334 9.99982 15.3334C11.7838 15.3334 13.5592 13.2937 13.9648 12.4824C14.2835 11.8451 15.3331 9.09742 15.3331 7.66675C15.3331 7.5621 15.2838 7.46343 15.2002 7.40046Z" fill="#657785"/>
</g>
<defs>
<clipPath id="clip0_4182_680">
<rect width="20" height="20" fill="white"/>
</clipPath>
</defs>
</svg>
