<svg width="14" height="14" viewBox="0 0 14 14" fill="none" xmlns="http://www.w3.org/2000/svg">
<g clip-path="url(#clip0_4157_12247)">
<path d="M8.8475 0H3.10898C2.24552 0 1.53125 0.710596 1.53125 1.57406V12.4259C1.53125 13.2894 2.24552 14 3.10898 14H10.8978C11.7612 14 12.4753 13.2894 12.4753 12.4259V3.80557L8.8475 0Z" fill="#00ACEA"/>
<path d="M8.86523 0.0107422L12.479 3.80913H10.0733C9.40536 3.80913 8.86523 3.26909 8.86523 2.60114V0.0107422Z" fill="#7C3EF7"/>
<path d="M9.92759 11.1924H4.07885C3.88351 11.1924 3.72363 11.3523 3.72363 11.5477C3.72363 11.7432 3.88351 11.9031 4.07885 11.9031H9.93118C10.1266 11.9031 10.2865 11.7432 10.2865 11.5477C10.2865 11.3523 10.1266 11.1924 9.92759 11.1924Z" fill="#083863"/>
<path d="M6.74393 9.91682C6.81143 9.98792 6.9038 10.0306 7.00327 10.0306C7.10264 10.0306 7.1951 9.98792 7.26269 9.91682L9.34133 7.68181C9.47634 7.53971 9.46566 7.31233 9.32347 7.18082C9.18145 7.04581 8.95407 7.05641 8.82257 7.1986L7.35865 8.77266V4.89249C7.35865 4.69707 7.19869 4.53711 7.00327 4.53711C6.80776 4.53711 6.64788 4.69707 6.64788 4.89249V8.77266L5.18397 7.1986C5.04896 7.05641 4.82508 7.04581 4.68298 7.18082C4.54079 7.31583 4.53011 7.53971 4.66512 7.68181L6.74393 9.91682Z" fill="#083863"/>
</g>
<defs>
<clipPath id="clip0_4157_12247">
<rect width="14" height="14" fill="white"/>
</clipPath>
</defs>
</svg>
