<svg width="23" height="21" viewBox="0 0 23 21" fill="none" xmlns="http://www.w3.org/2000/svg">
<g clip-path="url(#clip0_4157_13673)">
<path d="M3.69437 10.736L1.12125 11.8778C0.876875 11.9894 0.71875 12.2191 0.71875 12.4685V19.6872C0.71875 20.0481 1.04219 20.3435 1.4375 20.3435H3.69437V10.736ZM17.8681 20.3435V3.93721C17.8681 3.68783 17.7172 3.46471 17.4728 3.35315L11.8234 0.728147C11.7239 0.67966 11.6128 0.654297 11.5 0.654297C11.3872 0.654297 11.2761 0.67966 11.1766 0.728147L5.52719 3.35315C5.28281 3.46471 5.13188 3.68783 5.13188 3.93721V20.3435H17.8681ZM8.81906 19.031H6.56938V16.6947H8.81906V19.031ZM12.7434 19.031H10.2566V15.8219C10.2566 15.1985 10.8172 14.6866 11.5 14.6866C12.1828 14.6866 12.7434 15.1985 12.7434 15.8219V19.031ZM12.2188 6.73283V10.4997C12.2188 10.8606 11.8953 11.156 11.5 11.156C11.1047 11.156 10.7812 10.8606 10.7812 10.4997V6.73283H8.89094C8.49563 6.73283 8.17219 6.43752 8.17219 6.07658C8.17219 5.71565 8.49563 5.42033 8.89094 5.42033H10.7812V3.93721C10.7812 3.57627 11.1047 3.28096 11.5 3.28096C11.8953 3.28096 12.2188 3.57627 12.2188 3.93721V5.42033H14.1091C14.5044 5.42033 14.8278 5.71565 14.8278 6.07658C14.8278 6.43752 14.5044 6.73283 14.1091 6.73283H12.2188ZM16.4306 19.031H14.1809V16.6947H16.4306V19.031ZM21.8787 11.8778L19.3056 10.736V20.3435H21.5625C21.9578 20.3435 22.2812 20.0481 22.2812 19.6872V12.4685C22.2812 12.2191 22.1231 11.9894 21.8787 11.8778Z" fill="#BCBCBC"/>
</g>
<defs>
<clipPath id="clip0_4157_13673">
<rect width="23" height="21" fill="white"/>
</clipPath>
</defs>
</svg>
