<svg width="23" height="23" viewBox="0 0 23 23" fill="none" xmlns="http://www.w3.org/2000/svg">
<path d="M18.2087 3.83268H17.2503V2.87435C17.2503 2.29935 16.867 1.91602 16.292 1.91602C15.717 1.91602 15.3337 2.29935 15.3337 2.87435V3.83268H7.66699V2.87435C7.66699 2.29935 7.28366 1.91602 6.70866 1.91602C6.13366 1.91602 5.75033 2.29935 5.75033 2.87435V3.83268H4.79199C3.16283 3.83268 1.91699 5.07852 1.91699 6.70768V7.66602H21.0837V6.70768C21.0837 5.07852 19.8378 3.83268 18.2087 3.83268ZM1.91699 18.2077C1.91699 19.8368 3.16283 21.0827 4.79199 21.0827H18.2087C19.8378 21.0827 21.0837 19.8368 21.0837 18.2077V9.58268H1.91699V18.2077ZM16.292 11.4993C16.867 11.4993 17.2503 11.8827 17.2503 12.4577C17.2503 13.0327 16.867 13.416 16.292 13.416C15.717 13.416 15.3337 13.0327 15.3337 12.4577C15.3337 11.8827 15.717 11.4993 16.292 11.4993ZM16.292 15.3327C16.867 15.3327 17.2503 15.716 17.2503 16.291C17.2503 16.866 16.867 17.2493 16.292 17.2493C15.717 17.2493 15.3337 16.866 15.3337 16.291C15.3337 15.716 15.717 15.3327 16.292 15.3327ZM11.5003 11.4993C12.0753 11.4993 12.4587 11.8827 12.4587 12.4577C12.4587 13.0327 12.0753 13.416 11.5003 13.416C10.9253 13.416 10.542 13.0327 10.542 12.4577C10.542 11.8827 10.9253 11.4993 11.5003 11.4993ZM11.5003 15.3327C12.0753 15.3327 12.4587 15.716 12.4587 16.291C12.4587 16.866 12.0753 17.2493 11.5003 17.2493C10.9253 17.2493 10.542 16.866 10.542 16.291C10.542 15.716 10.9253 15.3327 11.5003 15.3327ZM6.70866 11.4993C7.28366 11.4993 7.66699 11.8827 7.66699 12.4577C7.66699 13.0327 7.28366 13.416 6.70866 13.416C6.13366 13.416 5.75033 13.0327 5.75033 12.4577C5.75033 11.8827 6.13366 11.4993 6.70866 11.4993ZM6.70866 15.3327C7.28366 15.3327 7.66699 15.716 7.66699 16.291C7.66699 16.866 7.28366 17.2493 6.70866 17.2493C6.13366 17.2493 5.75033 16.866 5.75033 16.291C5.75033 15.716 6.13366 15.3327 6.70866 15.3327Z" fill="#9C9FA2"/>
</svg>
