<svg width="25" height="25" viewBox="0 0 25 25" fill="none" xmlns="http://www.w3.org/2000/svg">
<path d="M22.5833 9.34277C22.5833 7.77051 21.9716 6.29277 20.861 5.18262C19.7532 4.07051 18.2759 3.4584 16.7016 3.4584C15.1751 3.4584 13.7411 4.03926 12.6415 5.08887L12.5442 4.99043C11.377 3.82363 9.83758 3.18066 8.20946 3.18066C6.64891 3.18066 5.19032 3.78027 4.10125 4.86973C1.80907 7.16582 1.86336 10.9529 4.22235 13.3119L4.48055 13.5701C4.34774 13.8131 4.30868 14.1154 4.3743 14.435C4.45204 14.8119 4.66688 15.1889 4.9829 15.4998C5.36649 15.8771 5.83836 16.0943 6.28641 16.1092C6.28993 16.185 6.29344 16.2607 6.30946 16.3393C6.38719 16.7162 6.60204 17.0932 6.91454 17.4006C7.29774 17.7779 7.77001 17.9947 8.21805 18.0096C8.22157 18.0854 8.22508 18.1611 8.2411 18.24C8.31883 18.617 8.53368 18.9939 8.84618 19.3014C9.22977 19.6787 9.70165 19.8955 10.1493 19.9104C10.1528 19.9861 10.1563 20.0623 10.1723 20.1408C10.2501 20.5174 10.4649 20.8943 10.7809 21.2057C11.1782 21.5963 11.6708 21.8201 12.1325 21.8201C12.4544 21.8201 12.7325 21.7107 12.936 21.5037L14.8688 19.5393C14.9548 19.4518 15.0153 19.3494 15.0645 19.2412C15.4352 19.185 15.7763 19.0189 16.0407 18.7506C16.4337 18.358 16.5938 17.8229 16.536 17.3076C16.6024 17.315 16.6688 17.3268 16.7356 17.3268C17.1872 17.3268 17.6388 17.1549 17.9821 16.8115C18.3763 16.4174 18.5368 15.8818 18.4786 15.3666C18.5442 15.374 18.6091 15.3857 18.6763 15.3857C19.1477 15.3857 19.5911 15.2018 19.9247 14.8686C20.1774 14.6158 20.3431 14.2998 20.4091 13.9564L20.861 13.5049C21.9716 12.3932 22.5833 10.915 22.5833 9.34277ZM16.7016 4.23965C18.0669 4.23965 19.3473 4.77012 20.3083 5.73457C21.2716 6.69785 21.8024 7.97949 21.8024 9.34277C21.8024 10.7057 21.2723 11.9861 20.3102 12.9494C20.2227 12.7357 20.0931 12.5389 19.9247 12.3709L15.8591 8.30605C15.8556 8.30254 15.8513 8.30176 15.8477 8.29863L15.4977 7.94863L15.779 7.7834C15.9649 7.67363 16.0266 7.43418 15.9169 7.24863C15.8071 7.0623 15.5677 7.00098 15.3817 7.11035L12.2634 8.94473C11.6911 9.27637 10.9759 9.22676 10.4681 8.84199C10.3731 8.77012 10.3536 8.6752 10.3497 8.6248C10.3462 8.57363 10.3532 8.47559 10.4384 8.39043L13.0907 5.73418C14.0552 4.77051 15.3372 4.23965 16.7016 4.23965ZM5.13915 14.2779C5.12274 14.199 5.09618 14.0029 5.20243 13.8951L7.13563 11.9307C7.20282 11.8623 7.30672 11.8479 7.38211 11.8479C7.6329 11.8479 7.9411 11.9975 8.18915 12.242C8.38954 12.4393 8.53094 12.6803 8.57665 12.9033C8.59305 12.9826 8.61961 13.1787 8.51336 13.2865L6.58055 15.251C6.51336 15.3193 6.40946 15.3338 6.33407 15.3338C6.08329 15.3338 5.77547 15.1842 5.52704 14.9396C5.32665 14.7424 5.18524 14.5014 5.13915 14.2779ZM7.0743 16.1818C7.0579 16.1029 7.03133 15.9068 7.13758 15.799L9.07039 13.8346C9.13758 13.7662 9.24149 13.7518 9.31688 13.7518C9.56766 13.7518 9.87586 13.9014 10.1204 14.142C10.5138 14.5291 10.6161 15.0127 10.445 15.1873L8.51219 17.1514C8.44461 17.2201 8.34071 17.2342 8.26571 17.2342C8.01493 17.2342 7.70711 17.0846 7.46219 16.8439C7.2618 16.6463 7.1204 16.4053 7.0743 16.1818ZM9.06883 17.699L11.0016 15.735C11.0692 15.6662 11.1731 15.6521 11.2485 15.6521C11.4993 15.6521 11.8071 15.8018 12.0516 16.0424C12.445 16.4291 12.5473 16.9131 12.3763 17.0873L10.4434 19.0518C10.3763 19.1201 10.2723 19.1346 10.197 19.1346C9.94618 19.1346 9.63797 18.985 9.39344 18.7443C9.00008 18.3568 8.89774 17.8732 9.06883 17.699ZM14.3114 18.9908L12.3786 20.9553C12.3114 21.0236 12.2075 21.0381 12.1321 21.0381C11.8809 21.0381 11.5731 20.8885 11.3247 20.6439C11.1243 20.4467 10.9829 20.2057 10.9372 19.9826C10.9208 19.9033 10.8942 19.7072 11.0005 19.5994L12.9333 17.635C13.0005 17.5666 13.1044 17.5521 13.1798 17.5521C13.4306 17.5521 13.7388 17.7018 13.9868 17.9463C14.3802 18.333 14.4825 18.817 14.3114 18.9908ZM17.9798 14.315L13.9145 10.2502C13.7618 10.0975 13.5149 10.0975 13.3622 10.2502C13.2095 10.4029 13.2095 10.6498 13.3622 10.8025L17.4294 14.8693C17.6149 15.0549 17.7169 15.3014 17.7169 15.5635C17.7169 15.8256 17.6145 16.0725 17.4294 16.2576C17.0477 16.6393 16.4263 16.6396 16.0434 16.2596C16.0423 16.2584 16.0415 16.2568 16.0403 16.2557L11.9739 12.1893C11.8212 12.0365 11.5743 12.0365 11.4216 12.1893C11.345 12.2658 11.3071 12.3662 11.3075 12.4666C11.3075 12.5666 11.3458 12.6666 11.422 12.7428L15.4891 16.81L15.4903 16.8111C15.8692 17.1963 15.8688 17.8166 15.486 18.199C15.3856 18.301 15.2645 18.3744 15.1286 18.4229C15.0493 18.067 14.8513 17.7002 14.5317 17.3854C14.1485 17.0084 13.6766 16.7912 13.229 16.776C13.2075 16.3451 12.9962 15.8744 12.6005 15.4846C12.2173 15.1076 11.7454 14.8904 11.2977 14.8756C11.2763 14.4447 11.0649 13.9736 10.6692 13.5838C10.2856 13.2064 9.81375 12.9896 9.36571 12.9748C9.36219 12.899 9.35868 12.8232 9.34266 12.7443C9.26493 12.3678 9.05008 11.9908 8.73407 11.6795C8.3368 11.2889 7.84461 11.065 7.3829 11.065C7.06063 11.065 6.7829 11.1744 6.57938 11.3814L5.00126 12.9854L4.77508 12.7592C2.7204 10.7045 2.66649 7.4123 4.65399 5.42129C5.5954 4.47988 6.85829 3.96152 8.20985 3.96152C9.62938 3.96152 10.9727 4.52324 11.9907 5.54082L12.0848 5.63613L9.88641 7.8377C9.66454 8.05957 9.5493 8.36621 9.57079 8.67793C9.59227 8.98926 9.74774 9.27559 9.99696 9.46426C10.7509 10.0354 11.8134 10.108 12.6575 9.61895L14.8024 8.35723L15.3044 8.85918C15.3079 8.8627 15.3122 8.86348 15.3157 8.8666L19.372 12.9229C19.5579 13.1092 19.6602 13.3561 19.6602 13.6189C19.6602 13.8818 19.5579 14.1291 19.372 14.3146C19.0001 14.6881 18.3516 14.6877 17.9798 14.315Z" fill="#657785"/>
</svg>
