<svg width="14" height="14" viewBox="0 0 14 14" fill="none" xmlns="http://www.w3.org/2000/svg">
<g clip-path="url(#clip0_4157_12140)">
<path d="M0.356414 7.48093C0.714016 8.12255 1.34784 8.652 2.24045 9.0548C2.55551 9.19669 2.88013 9.31572 3.20109 9.42698C2.63035 9.65038 2.04243 9.8548 1.43808 10.0372C1.2126 10.1052 1.03391 10.2695 0.948024 10.4873C0.651399 11.2325 0.590532 12.0657 0.776496 12.8321C0.842723 13.1137 0.954778 13.3512 1.11017 13.5391C1.40133 13.8876 1.74933 14.0006 2.08312 14.0005C2.54039 14.0005 2.97083 13.7886 3.19087 13.6802C4.19233 13.1843 5.12588 12.5411 6.02863 11.9191C6.34505 11.701 6.66514 11.4815 6.98943 11.2666C7.31121 11.4799 7.63032 11.6986 7.9492 11.9183C8.85239 12.5405 9.78637 13.1839 10.789 13.6804C11.0087 13.7886 11.4386 14.0005 11.8958 14.0004C12.2298 14.0004 12.5783 13.8872 12.8698 13.5382C13.0247 13.3509 13.1368 13.1133 13.2025 12.8335C13.3888 12.0656 13.328 11.2323 13.0316 10.4879C12.9454 10.2694 12.7666 10.1052 12.5413 10.0371C11.9316 9.85319 11.3407 9.64865 10.7775 9.42712C11.099 9.31588 11.4241 9.19688 11.739 9.05478C12.6315 8.65208 13.2653 8.12252 13.6232 7.48027C13.9248 6.9352 13.9677 6.30465 13.7454 5.84492C13.7511 5.73563 13.7393 5.62283 13.6996 5.5066C13.5939 5.19682 13.3478 5.01099 13.1564 4.90763C13.1504 4.86268 13.1449 4.83301 13.1438 4.8279C13.1319 4.77791 13.1176 4.72547 13.1026 4.67589C13.0567 4.5272 12.9324 4.41741 12.7784 4.38941C12.7756 4.38889 12.7729 4.3895 12.7701 4.38906C12.9286 2.97725 12.641 1.85539 11.9037 1.05925C11.2448 0.347241 10.413 -0.0260557 9.56549 0.00254587C8.61081 0.0361787 7.95158 0.54964 7.64161 0.854577C7.37938 1.11883 7.1693 1.44001 7.01825 1.80264C6.87084 1.45518 6.65445 1.13614 6.37311 0.852772C6.06505 0.549722 5.40582 0.0362607 4.45136 0.0026279C3.6022 -0.0271768 2.77141 0.347296 2.11292 1.05922C1.37251 1.8588 1.08548 2.97992 1.24785 4.38742C1.23226 4.38854 1.21692 4.38662 1.20128 4.3895C1.04714 4.41739 0.922813 4.52717 0.876028 4.67789C0.861727 4.72552 0.847399 4.77797 0.833617 4.83692C0.833617 4.83692 0.828532 4.8644 0.822844 4.90788C0.631465 5.01126 0.385645 5.19707 0.280016 5.50651C0.240367 5.62259 0.228528 5.73525 0.23416 5.84437C0.0115823 6.30408 0.0545667 6.93484 0.356414 7.48093ZM12.6249 10.6492C12.8883 11.3106 12.9424 12.0498 12.777 12.7319C12.7265 12.947 12.6442 13.1245 12.5334 13.2586C12.2043 13.6527 11.7404 13.6613 10.9828 13.2882C10.0088 12.8058 9.08793 12.1714 8.19734 11.558C7.93274 11.3757 7.66097 11.1902 7.38827 11.0072C8.07006 10.5724 8.77493 10.1722 9.51914 9.87427C9.72515 9.79142 9.93728 9.716 10.149 9.64272C10.8614 9.94307 11.6225 10.217 12.415 10.4561C12.5114 10.4851 12.5878 10.5553 12.6249 10.6492ZM13.0567 6.43462C12.8121 6.85246 12.4376 7.2152 11.9736 7.48371C11.869 7.54428 11.8333 7.6781 11.8938 7.78269C11.9344 7.85274 12.0079 7.89185 12.0834 7.89185C12.1205 7.89185 12.1582 7.88233 12.1928 7.86248C12.7222 7.55593 13.1515 7.13872 13.4343 6.65561C13.4364 6.65208 13.4386 6.64825 13.4406 6.64473C13.4149 6.86837 13.3396 7.08933 13.2408 7.26794C12.9298 7.82581 12.3641 8.29279 11.5591 8.65597C11.1602 8.83594 10.7341 8.98057 10.322 9.12037C10.0039 9.22835 9.67519 9.33986 9.35625 9.46827C8.06235 9.9863 6.90226 10.7857 5.78043 11.5588C4.89036 12.1721 3.97008 12.8062 2.99714 13.2879C2.23889 13.6612 1.77501 13.6524 1.44666 13.2594C1.33527 13.1246 1.25302 12.9472 1.20197 12.7304C1.03695 12.0499 1.0912 11.3107 1.35482 10.6484C1.39157 10.5553 1.46794 10.4851 1.56449 10.456C3.09948 9.9928 4.53705 9.39592 5.83717 8.68189C6.69614 8.21076 7.5843 7.72357 8.32706 7.04394C9.09537 6.34389 9.60421 5.49262 9.76945 4.63417C9.7733 4.63149 9.78375 4.6252 9.79455 4.62777C9.86217 4.64357 9.92987 4.6614 9.9868 4.68043C10.0998 4.71984 10.1854 4.78223 10.2283 4.8571C10.2688 4.92675 10.2803 5.0266 10.2894 5.13139C10.3252 5.54698 10.3035 5.96141 10.2248 6.36325C10.209 6.4441 10.2398 6.52698 10.3048 6.57773C10.3695 6.62837 10.4576 6.63852 10.5321 6.60346C11.3554 6.21863 12.0868 5.61994 12.6921 4.83039C12.7013 4.86221 12.7099 4.89426 12.716 4.91958C12.7171 4.92513 12.7271 4.98089 12.7325 5.06494C12.7377 5.13598 12.7409 5.24418 12.7272 5.35536C12.6852 5.67569 12.3518 6.2061 11.7016 6.66903C11.6032 6.73901 11.5802 6.87562 11.6503 6.97408C11.7203 7.07246 11.8569 7.09562 11.9553 7.02535C12.608 6.56075 13.073 5.94418 13.1542 5.44212C13.2099 5.4985 13.2579 5.56656 13.2857 5.64791C13.3648 5.87962 13.2407 6.12016 13.0567 6.43462ZM0.694055 5.64783C0.721754 5.5667 0.769633 5.4988 0.825141 5.44253C0.905668 5.94322 1.371 6.56042 2.02408 7.02538C2.12266 7.09554 2.25907 7.07227 2.32913 6.97411C2.39918 6.87562 2.37624 6.73912 2.27786 6.66906C1.62771 6.20613 1.29422 5.67572 1.25247 5.35719C1.23847 5.24344 1.24178 5.13565 1.24714 5.06292C1.25217 4.98346 1.26166 4.92877 1.26136 4.92877V4.92899C1.26841 4.89929 1.27642 4.86864 1.28484 4.83905C1.90199 5.62765 2.6295 6.22109 3.44746 6.60346C3.52192 6.63871 3.60983 6.62857 3.67474 6.57773C3.73968 6.52701 3.77055 6.4441 3.75475 6.36325C3.67603 5.96143 3.65434 5.54698 3.69014 5.13128C3.69922 5.02671 3.71064 4.92705 3.75177 4.85603C3.79407 4.78223 3.87963 4.71986 3.98985 4.68139C4.04957 4.66143 4.11727 4.64357 4.17997 4.62883C4.19534 4.62542 4.20603 4.63162 4.21959 4.64688C4.37532 5.49262 4.88418 6.34389 5.65194 7.04343C5.77135 7.15302 5.9005 7.26261 6.03549 7.36909C6.07555 7.4007 6.1234 7.41609 6.17082 7.41609C6.23543 7.41609 6.29952 7.38757 6.34267 7.33278C6.41743 7.23792 6.40122 7.10035 6.30636 7.0256C6.17979 6.92574 6.05909 6.82331 5.94704 6.72055C5.24903 6.08459 4.78834 5.31992 4.6496 4.56627C4.6263 4.44451 4.55636 4.33929 4.45243 4.27008C4.3471 4.19992 4.21486 4.1746 4.08509 4.20184C4.00402 4.22084 3.92305 4.24252 3.84862 4.26732C3.63608 4.34145 3.46677 4.47325 3.37268 4.63753C3.2869 4.78557 3.26716 4.94419 3.25433 5.09384C3.22773 5.40209 3.22997 5.71003 3.26095 6.01371C2.69671 5.68887 2.18396 5.24511 1.72964 4.69214C1.71964 4.63849 1.71039 4.5844 1.70247 4.53021C1.50518 3.16151 1.75127 2.09374 2.43413 1.35653C3.0046 0.739487 3.71491 0.412429 4.43577 0.439964C5.24241 0.468374 5.80359 0.906312 6.06442 1.16296C6.30453 1.40479 6.48995 1.67757 6.6145 1.9711C6.68296 2.13826 6.84276 2.24624 7.02186 2.24624H7.02271C7.19883 2.2458 7.35554 2.13921 7.42155 1.976C7.55187 1.65993 7.73034 1.38641 7.95027 1.16476C8.21301 0.906284 8.77421 0.468347 9.58107 0.439937C10.3001 0.412593 11.0117 0.739651 11.5826 1.3565C12.6053 2.46094 12.3881 4.01623 12.317 4.52539L12.3078 4.58457C12.3056 4.59977 12.3027 4.61484 12.3002 4.63004C11.8336 5.21202 11.3037 5.67681 10.7185 6.01371C10.7495 5.71006 10.7517 5.40212 10.7251 5.09373C10.7122 4.94389 10.6923 4.78516 10.6072 4.63851C10.5125 4.47317 10.3432 4.34137 10.1281 4.26639C10.0565 4.24258 9.97532 4.22089 9.88935 4.20082C9.76461 4.17433 9.63245 4.19987 9.52693 4.27014C9.423 4.33935 9.35305 4.44457 9.32954 4.56772C9.19112 5.32 8.73044 6.08456 8.032 6.72093C7.32779 7.36542 6.46304 7.83967 5.62659 8.29842C5.05019 8.61498 4.44466 8.90676 3.81627 9.17495L3.66244 9.12248C3.24897 8.98201 2.82151 8.83677 2.42021 8.65602C1.61518 8.29276 1.04939 7.82578 0.738899 7.26866C0.63986 7.0895 0.564364 6.86807 0.538715 6.6441C0.540957 6.6479 0.543254 6.652 0.545469 6.65577C0.828203 7.13877 1.25747 7.55598 1.78693 7.86253C1.82144 7.88241 1.85914 7.8919 1.89631 7.8919C1.97183 7.8919 2.0453 7.8528 2.08591 7.78275C2.14636 7.67818 2.11068 7.54434 2.00612 7.48377C1.54201 7.21525 1.16754 6.85251 0.923059 6.43478C0.739008 6.12016 0.614895 5.87962 0.694055 5.64783Z" fill="#3C3ADD"/>
<path d="M11.4312 3.63319C11.4196 3.71235 11.4028 3.79041 11.3815 3.86528C11.3484 3.98138 11.4158 4.10252 11.532 4.13563C11.5519 4.14129 11.5721 4.14408 11.592 4.14408C11.6873 4.14408 11.7749 4.08127 11.8023 3.98516C11.8288 3.89191 11.8496 3.79493 11.864 3.69687C11.8817 3.57735 11.799 3.46625 11.6795 3.44864C11.5607 3.43109 11.4489 3.51356 11.4312 3.63319Z" fill="#3C3ADD"/>
<path d="M9.9247 1.51299C10.4337 1.60806 10.9002 1.92741 11.1727 2.36748C11.2637 2.51456 11.3339 2.67594 11.3813 2.84728C11.4081 2.94416 11.4961 3.0077 11.592 3.0077C11.6114 3.0077 11.631 3.00503 11.6506 2.99969C11.767 2.96743 11.8353 2.84695 11.803 2.73041C11.7445 2.51913 11.6575 2.31963 11.5446 2.13719C11.2085 1.59428 10.6329 1.20012 10.005 1.08295C9.8853 1.06042 9.77199 1.13914 9.74987 1.25781C9.72764 1.37657 9.80592 1.49086 9.9247 1.51299Z" fill="#3C3ADD"/>
</g>
<defs>
<clipPath id="clip0_4157_12140">
<rect width="14" height="14" fill="white"/>
</clipPath>
</defs>
</svg>
