<svg width="22" height="23" viewBox="0 0 22 23" fill="none" xmlns="http://www.w3.org/2000/svg">
<path d="M19.25 10.2426C19.1606 10.2426 19.0713 10.203 19.0059 10.1384C18.9441 10.0701 18.9062 9.97664 18.9062 9.8832C18.9062 9.78977 18.9441 9.69633 19.0059 9.62805C19.1366 9.49508 19.3669 9.49508 19.4941 9.62805C19.5559 9.69633 19.5938 9.78977 19.5938 9.8832C19.5938 9.98023 19.5559 10.0701 19.4941 10.1384C19.4287 10.203 19.3394 10.2426 19.25 10.2426Z" fill="#657785"/>
<path d="M7.5625 16.7113C7.47313 16.7113 7.38375 16.6718 7.31844 16.6071C7.25656 16.5388 7.21875 16.4454 7.21875 16.352C7.21875 16.2585 7.25656 16.1651 7.31844 16.0968C7.44906 15.9638 7.67594 15.9638 7.80656 16.0968C7.86844 16.1651 7.90625 16.2585 7.90625 16.352C7.90625 16.4454 7.86844 16.5388 7.80656 16.6071C7.74125 16.6718 7.65187 16.7113 7.5625 16.7113Z" fill="#657785"/>
<path d="M19.25 13.1172C19.0602 13.1172 18.9062 12.9562 18.9062 12.7578V11.3203C18.9062 11.1219 19.0602 10.9609 19.25 10.9609C19.4398 10.9609 19.5938 11.1219 19.5938 11.3203V12.7578C19.5938 12.9562 19.4398 13.1172 19.25 13.1172Z" fill="#657785"/>
<path d="M19.25 8.80469C19.0602 8.80469 18.9062 8.64369 18.9062 8.44531V4.3125C18.9062 4.11412 19.0602 3.95312 19.25 3.95312C19.4398 3.95312 19.5938 4.11412 19.5938 4.3125V8.44531C19.5938 8.64369 19.4398 8.80469 19.25 8.80469Z" fill="#657785"/>
<path d="M7.5625 15.2738C7.37275 15.2738 7.21875 15.1128 7.21875 14.9144V10.6709C7.21875 10.4725 7.37275 10.3115 7.5625 10.3115C7.75225 10.3115 7.90625 10.4725 7.90625 10.6709V14.9144C7.90625 15.1128 7.75225 15.2738 7.5625 15.2738Z" fill="#657785"/>
<path d="M7.5625 19.5859C7.37275 19.5859 7.21875 19.4249 7.21875 19.2266V17.7891C7.21875 17.5907 7.37275 17.4297 7.5625 17.4297C7.75225 17.4297 7.90625 17.5907 7.90625 17.7891V19.2266C7.90625 19.4249 7.75225 19.5859 7.5625 19.5859Z" fill="#657785"/>
<path d="M12.0752 19.4091C11.8854 19.4091 11.7314 19.2481 11.7314 19.0497V13.4766C11.7314 13.2782 11.8854 13.1172 12.0752 13.1172C12.2649 13.1172 12.4189 13.2782 12.4189 13.4766V19.0497C12.4189 19.2481 12.2653 19.4091 12.0752 19.4091Z" fill="#657785"/>
<path d="M18.5625 13.8359C18.3727 13.8359 18.2188 13.6749 18.2188 13.4766C18.2188 13.2782 18.3727 13.1172 18.5625 13.1172C18.7519 13.1172 18.9062 12.9558 18.9062 12.7578C18.9062 12.5594 19.0602 12.3984 19.25 12.3984C19.4397 12.3984 19.5938 12.5594 19.5938 12.7578C19.5938 13.3522 19.1311 13.8359 18.5625 13.8359Z" fill="#657785"/>
<path d="M18.5625 13.8359H7.5625C7.37275 13.8359 7.21875 13.6749 7.21875 13.4766C7.21875 13.2782 7.37275 13.1172 7.5625 13.1172H18.5625C18.7522 13.1172 18.9062 13.2782 18.9062 13.4766C18.9062 13.6749 18.7522 13.8359 18.5625 13.8359Z" fill="#657785"/>
<path d="M17.1874 7.54688H12.1563C11.9665 7.54688 11.8125 7.38587 11.8125 7.1875C11.8125 6.98912 11.9665 6.82812 12.1563 6.82812H17.1874C17.3771 6.82812 17.5311 6.98912 17.5311 7.1875C17.5311 7.38587 17.3771 7.54688 17.1874 7.54688Z" fill="#657785"/>
<path d="M17.1878 8.98438H12.542C12.3522 8.98438 12.1982 8.82337 12.1982 8.625C12.1982 8.42662 12.3522 8.26562 12.542 8.26562H17.1878C17.3775 8.26562 17.5315 8.42662 17.5315 8.625C17.5315 8.82337 17.3775 8.98438 17.1878 8.98438Z" fill="#657785"/>
<path d="M17.1873 10.4219H11.8574C11.6677 10.4219 11.5137 10.2609 11.5137 10.0625C11.5137 9.86412 11.6677 9.70312 11.8574 9.70312H17.1873C17.377 9.70312 17.531 9.86412 17.531 10.0625C17.531 10.2609 17.377 10.4219 17.1873 10.4219Z" fill="#657785"/>
<path d="M15.8125 6.10938H9.28125C9.0915 6.10938 8.9375 5.94837 8.9375 5.75C8.9375 5.55162 9.0915 5.39062 9.28125 5.39062H15.8125C16.0023 5.39062 16.1562 5.55162 16.1562 5.75C16.1562 5.94837 16.0023 6.10938 15.8125 6.10938Z" fill="#657785"/>
<path d="M12.5469 3.95312C12.3571 3.95312 12.2031 3.79212 12.2031 3.59375V2.875C12.2031 2.67662 12.3571 2.51562 12.5469 2.51562C12.7366 2.51562 12.8906 2.67662 12.8906 2.875V3.59375C12.8906 3.79212 12.7366 3.95312 12.5469 3.95312Z" fill="#657785"/>
<path d="M5.84375 6.10794C5.654 6.10794 5.5 5.94694 5.5 5.74856V4.3125C5.5 4.11412 5.654 3.95312 5.84375 3.95312C6.0335 3.95312 6.1875 4.11412 6.1875 4.3125V5.74856C6.1875 5.94694 6.0335 6.10794 5.84375 6.10794Z" fill="#657785"/>
<path d="M5.84375 4.67188C5.654 4.67188 5.5 4.51087 5.5 4.3125C5.5 3.71809 5.96269 3.23438 6.53125 3.23438C6.721 3.23438 6.875 3.39537 6.875 3.59375C6.875 3.79212 6.721 3.95312 6.53125 3.95312C6.34184 3.95312 6.1875 4.11448 6.1875 4.3125C6.1875 4.51087 6.0335 4.67188 5.84375 4.67188Z" fill="#657785"/>
<path d="M18.5625 3.95312H6.53125C6.3415 3.95312 6.1875 3.79212 6.1875 3.59375C6.1875 3.39537 6.3415 3.23438 6.53125 3.23438H18.5625C18.7522 3.23438 18.9062 3.39537 18.9062 3.59375C18.9062 3.79212 18.7522 3.95312 18.5625 3.95312Z" fill="#657785"/>
<path d="M19.25 4.67188C19.0602 4.67188 18.9062 4.51087 18.9062 4.3125C18.9062 4.11448 18.7519 3.95312 18.5625 3.95312C18.3727 3.95312 18.2188 3.79212 18.2188 3.59375C18.2188 3.39537 18.3727 3.23438 18.5625 3.23438C19.1311 3.23438 19.5938 3.71809 19.5938 4.3125C19.5938 4.51087 19.4397 4.67188 19.25 4.67188Z" fill="#657785"/>
<path d="M3.72642 9.91942C3.58102 9.91942 3.44558 9.82203 3.39917 9.66894C3.34142 9.4799 3.44145 9.27758 3.62227 9.21756C4.73086 8.84776 5.92058 8.77481 7.0632 9.00697C7.24952 9.0447 7.3712 9.23337 7.33545 9.42815C7.29936 9.62294 7.11958 9.74872 6.93258 9.71278C5.90236 9.50326 4.8302 9.56939 3.83127 9.90253C3.7962 9.91367 3.76114 9.91942 3.72642 9.91942Z" fill="#657785"/>
<path d="M6.99734 9.71926C6.86809 9.71926 6.74399 9.64271 6.68555 9.51154C6.60546 9.33185 6.67971 9.11802 6.85193 9.03393L10.0495 7.47532C10.2207 7.39123 10.4262 7.46885 10.5063 7.64926C10.5864 7.82895 10.5122 8.04277 10.34 8.12687L7.1424 9.68548C7.09565 9.70884 7.04615 9.71926 6.99734 9.71926Z" fill="#657785"/>
<path d="M10.7762 9.46284C10.647 9.46284 10.5229 9.38629 10.4644 9.25548C10.3844 9.07579 10.4586 8.8616 10.6305 8.77787C10.9075 8.64274 10.8006 8.36459 10.7762 8.31032C10.7522 8.25605 10.6184 7.99227 10.3397 8.12668C10.1681 8.21077 9.96291 8.13315 9.88282 7.95274C9.80273 7.77305 9.87698 7.55923 10.0492 7.47513C10.6487 7.18224 11.1825 7.52077 11.3991 8.00665C11.6157 8.49216 11.5208 9.13688 10.9209 9.42941C10.8745 9.45205 10.825 9.46284 10.7762 9.46284Z" fill="#657785"/>
<path d="M7.56277 11.03C7.43352 11.03 7.30943 10.9535 7.25099 10.8226C7.1709 10.6426 7.24515 10.4288 7.41702 10.345L10.6311 8.77816C10.803 8.69371 11.0078 8.77205 11.0879 8.95174C11.168 9.13178 11.0938 9.34561 10.9219 9.42935L7.70784 10.9962C7.66109 11.0192 7.61159 11.03 7.56277 11.03Z" fill="#657785"/>
<path d="M8.8584 20.4841C8.7625 20.4841 8.66693 20.4424 8.59922 20.3608C8.47443 20.2109 8.48956 19.9842 8.63256 19.8537L11.8504 16.9234C11.9937 16.7929 12.2107 16.8087 12.3354 16.9582C12.4602 17.1081 12.4451 17.3349 12.3021 17.4653L9.08425 20.3957C9.01893 20.455 8.9385 20.4841 8.8584 20.4841Z" fill="#657785"/>
<path d="M15.2938 20.4841C15.2137 20.4841 15.1333 20.455 15.0683 20.3957L11.8504 17.4653C11.7071 17.3349 11.6923 17.1081 11.8171 16.9582C11.9415 16.8087 12.1588 16.7929 12.3021 16.9234L15.52 19.8537C15.6633 19.9842 15.6781 20.2109 15.5533 20.3608C15.4853 20.4424 15.39 20.4841 15.2938 20.4841Z" fill="#657785"/>
<path d="M2.75 15.0022C2.56025 15.0022 2.40625 14.8412 2.40625 14.6429V10.9355C2.40625 10.7372 2.56025 10.5762 2.75 10.5762C2.93975 10.5762 3.09375 10.7372 3.09375 10.9355V14.6429C3.09375 14.8412 2.93975 15.0022 2.75 15.0022Z" fill="#657785"/>
<path d="M2.75 11.2952C2.56025 11.2952 2.40625 11.1342 2.40625 10.9358C2.40625 10.1383 2.89678 9.44727 3.62691 9.21583C3.80841 9.15797 4.00056 9.26578 4.05556 9.45553C4.11056 9.64564 4.00778 9.84617 3.82628 9.90367C3.388 10.0428 3.09375 10.4575 3.09375 10.9358C3.09375 11.1342 2.93975 11.2952 2.75 11.2952Z" fill="#657785"/>
<path d="M4.125 19.5864C3.93525 19.5864 3.78125 19.4254 3.78125 19.227V11.3262C3.78125 11.1278 3.93525 10.9668 4.125 10.9668C4.31475 10.9668 4.46875 11.1278 4.46875 11.3262V19.227C4.46875 19.4254 4.31475 19.5864 4.125 19.5864Z" fill="#657785"/>
<path d="M5.84389 9.5912C4.75455 9.5912 3.83398 8.6288 3.83398 7.48994C3.83398 6.35108 4.75455 5.38867 5.84389 5.38867C6.93323 5.38867 7.8538 6.35072 7.8538 7.48994C7.8538 8.62916 6.93323 9.5912 5.84389 9.5912ZM5.84389 6.10778C5.12717 6.10778 4.52148 6.741 4.52148 7.4903C4.52148 8.23959 5.12717 8.87281 5.84389 8.87281C6.56061 8.87281 7.1663 8.23959 7.1663 7.4903C7.1663 6.74064 6.56061 6.10778 5.84389 6.10778Z" fill="#657785"/>
<path d="M5.84375 19.5864C5.654 19.5864 5.5 19.4254 5.5 19.227V14.6436C5.5 14.4452 5.654 14.2842 5.84375 14.2842C6.0335 14.2842 6.1875 14.4452 6.1875 14.6436V19.227C6.1875 19.4254 6.0335 19.5864 5.84375 19.5864Z" fill="#657785"/>
<path d="M3.4375 15.6983C2.92497 15.6983 2.40625 15.3361 2.40625 14.6436C2.40625 14.4452 2.56025 14.2842 2.75 14.2842C2.93975 14.2842 3.09375 14.4452 3.09375 14.6436C3.09375 14.9634 3.38009 14.9796 3.4375 14.9796C3.49491 14.9796 3.78125 14.9634 3.78125 14.6436C3.78125 14.4452 3.93525 14.2842 4.125 14.2842C4.31475 14.2842 4.46875 14.4452 4.46875 14.6436C4.46875 15.3361 3.95003 15.6983 3.4375 15.6983Z" fill="#657785"/>
<path d="M6.70312 20.4549C6.39581 20.4549 6.10637 20.3471 5.88809 20.1509C5.63784 19.9259 5.5 19.5974 5.5 19.2266C5.5 19.0282 5.654 18.8672 5.84375 18.8672C6.0335 18.8672 6.1875 19.0282 6.1875 19.2266C6.1875 19.7218 6.65053 19.7362 6.70312 19.7362C6.75572 19.7362 7.21875 19.7218 7.21875 19.2266C7.21875 19.0282 7.37275 18.8672 7.5625 18.8672C7.75225 18.8672 7.90625 19.0282 7.90625 19.2266C7.90625 20.033 7.30091 20.4549 6.70312 20.4549Z" fill="#657785"/>
<path d="M4.98438 20.4549C4.67706 20.4549 4.38762 20.3471 4.16934 20.1509C3.91909 19.9259 3.78125 19.5974 3.78125 19.2266C3.78125 19.0282 3.93525 18.8672 4.125 18.8672C4.31475 18.8672 4.46875 19.0282 4.46875 19.2266C4.46875 19.7218 4.93178 19.7362 4.98438 19.7362C5.03697 19.7362 5.5 19.7218 5.5 19.2266C5.5 19.0282 5.654 18.8672 5.84375 18.8672C6.0335 18.8672 6.1875 19.0282 6.1875 19.2266C6.1875 20.033 5.58216 20.4549 4.98438 20.4549Z" fill="#657785"/>
</svg>
