<svg width="15" height="15" viewBox="0 0 15 15" fill="none" xmlns="http://www.w3.org/2000/svg">
<g clip-path="url(#clip0_4157_12128)">
<path d="M14.3433 5.197L14 5.15425V5.12925C14.0009 4.99263 13.9455 4.86168 13.8468 4.76725C12.8359 3.75654 11.421 3.25915 10 3.415V3.25C10 2.97386 9.77614 2.75 9.5 2.75H8.5V1.75C8.5 1.47386 8.27614 1.25 8 1.25H7C6.72386 1.25 6.5 1.47386 6.5 1.75V2.75H5.5C5.22386 2.75 5 2.97386 5 3.25V3.415C3.58009 3.25872 2.16597 3.75529 1.1555 4.765C1.05527 4.85982 0.998949 4.99203 1 5.13V5.155L0.65525 5.19775C0.281292 5.24715 0.00137883 5.5653 0 5.9425V13.25C0 13.6642 0.335786 14 0.75 14H5.80275C5.98775 14.441 6.65475 14.75 7.5 14.75C8.34525 14.75 9.01225 14.441 9.19725 14H14.25C14.6642 14 15 13.6642 15 13.25V5.9425C14.9988 5.56455 14.718 5.24585 14.3433 5.197ZM7.25 12.3418L7.09225 12.2402C6.97475 12.1672 4.2015 10.4792 1.9635 12.4902L1.609 12.1403C3.90775 10.0332 6.65 11.409 7.25 11.753V12.3418ZM7.75 11.7545C8.33925 11.4243 11.1117 10.059 13.3892 12.1368L13.0315 12.4843C10.7483 10.4272 8.0185 12.168 7.90475 12.2423L7.75 12.3422V11.7545ZM5.5 3.25H6.75C6.88807 3.25 7 3.13807 7 3V1.75H8V3C8 3.13807 8.11193 3.25 8.25 3.25H9.5V4.25H8.25C8.11193 4.25 8 4.36193 8 4.5V7.25H7V4.5C7 4.36193 6.88807 4.25 6.75 4.25H5.5V3.25ZM5 3.91825V4.25C5 4.52614 5.22386 4.75 5.5 4.75H6.5V7.25C6.5 7.52614 6.72386 7.75 7 7.75H7.25V10.5C7.25 10.6381 7.36193 10.75 7.5 10.75C7.63807 10.75 7.75 10.6381 7.75 10.5V7.75H8C8.27614 7.75 8.5 7.52614 8.5 7.25V4.75H9.5C9.77614 4.75 10 4.52614 10 4.25V3.9185C11.2918 3.75443 12.5861 4.20246 13.5 5.13V11.5712C11.0345 9.558 8.15175 10.959 7.5 11.3212C6.84825 10.958 3.966 9.5575 1.5 11.5712V5.127C2.41457 4.2007 3.70872 3.75375 5 3.91825ZM14.5 13.25C14.5 13.3881 14.3881 13.5 14.25 13.5H9.25V13.25C9.25 13.1119 9.13807 13 9 13C8.86193 13 8.75 13.1119 8.75 13.25V13.75C8.75 13.95 8.2515 14.25 7.5 14.25C6.7485 14.25 6.25 13.95 6.25 13.75V13.2533C6.25 13.1152 6.13807 13.0033 6 13.0033C5.86193 13.0033 5.75 13.1152 5.75 13.2533V13.5H0.75C0.611929 13.5 0.5 13.3881 0.5 13.25V5.9425C0.5001 5.81626 0.593413 5.7095 0.7185 5.6925L1 5.658V12.135C1.00021 12.2019 1.02722 12.2659 1.075 12.3127L1.6125 12.8448C1.80374 13.0303 2.1062 13.0353 2.3035 12.8562C4.2595 11.1 6.725 12.6 6.825 12.6628L7.2295 12.923C7.39432 13.0291 7.60593 13.0291 7.77075 12.923L8.177 12.6617C8.279 12.5953 10.696 11.053 12.697 12.8555C12.894 13.0356 13.1973 13.0308 13.3885 12.8445L13.926 12.3127C13.9738 12.2659 14.0008 12.2019 14.001 12.135V5.658L14.2812 5.69275C14.4067 5.70938 14.5006 5.81618 14.501 5.94275L14.5 13.25Z" fill="#3C3ADD"/>
<path d="M4.1611 5.96635L4.8111 5.59135C4.88909 5.54701 4.93734 5.46428 4.93754 5.37457C4.93774 5.28486 4.88985 5.20192 4.81206 5.15724C4.73427 5.11256 4.6385 5.11298 4.5611 5.15835L3.9111 5.53335C3.83312 5.57769 3.78487 5.66042 3.78467 5.75013C3.78447 5.83984 3.83236 5.92278 3.91015 5.96747C3.98794 6.01215 4.08371 6.01172 4.1611 5.96635Z" fill="#3C3ADD"/>
<path d="M10.4394 2.34135L11.0894 1.96635C11.1674 1.92201 11.2157 1.83928 11.2159 1.74957C11.2161 1.65986 11.1682 1.57692 11.0904 1.53224C11.0126 1.48756 10.9168 1.48798 10.8394 1.53335L10.1894 1.90835C10.1114 1.95269 10.0632 2.03542 10.063 2.12513C10.0628 2.21484 10.1107 2.29778 10.1885 2.34247C10.2663 2.38715 10.362 2.38672 10.4394 2.34135Z" fill="#3C3ADD"/>
<path d="M10.1894 5.59135L10.8394 5.96635C10.9168 6.01172 11.0126 6.01215 11.0904 5.96747C11.1682 5.92278 11.2161 5.83984 11.2159 5.75013C11.2157 5.66042 11.1674 5.57769 11.0894 5.53335L10.4394 5.15835C10.362 5.11298 10.2663 5.11256 10.1885 5.15724C10.1107 5.20192 10.0628 5.28486 10.063 5.37457C10.0632 5.46428 10.1114 5.54701 10.1894 5.59135Z" fill="#3C3ADD"/>
<path d="M4.1611 1.53335C4.08371 1.48798 3.98794 1.48756 3.91015 1.53224C3.83236 1.57692 3.78447 1.65986 3.78467 1.74957C3.78487 1.83928 3.83312 1.92201 3.9111 1.96635L4.5611 2.34135C4.6385 2.38672 4.73427 2.38715 4.81206 2.34247C4.88985 2.29778 4.93774 2.21484 4.93754 2.12513C4.93734 2.03542 4.88909 1.95269 4.8111 1.90835L4.1611 1.53335Z" fill="#3C3ADD"/>
<path d="M4.76814 7.00593C4.87393 7.09449 5.03147 7.08062 5.12014 6.97493L5.60239 6.39993C5.65978 6.33147 5.67628 6.23759 5.64569 6.15366C5.61509 6.06974 5.54204 6.00851 5.45406 5.99304C5.36608 5.97757 5.27653 6.01022 5.21914 6.07868L4.73714 6.65368C4.69453 6.7045 4.67386 6.77016 4.67967 6.83623C4.68549 6.90229 4.71731 6.96334 4.76814 7.00593Z" fill="#3C3ADD"/>
<path d="M10.2315 0.493863C10.1258 0.405298 9.96822 0.419172 9.87954 0.524863L9.39729 1.09961C9.30858 1.20544 9.32246 1.36315 9.42829 1.45186C9.53412 1.54057 9.69183 1.52669 9.78054 1.42086L10.2625 0.845863C10.3511 0.740076 10.3372 0.582542 10.2315 0.493863Z" fill="#3C3ADD"/>
<path d="M9.87954 6.97493C9.93627 7.04552 10.0267 7.07991 10.116 7.06482C10.2053 7.04973 10.2795 6.98753 10.3099 6.90222C10.3403 6.81691 10.3222 6.72183 10.2625 6.65368L9.78054 6.07868C9.69183 5.97285 9.53412 5.95897 9.42829 6.04768C9.32246 6.13639 9.30858 6.2941 9.39729 6.39993L9.87954 6.97493Z" fill="#3C3ADD"/>
<path d="M5.57141 1.45203C5.6771 1.36335 5.69097 1.20582 5.60241 1.10003L5.12016 0.525029C5.06342 0.45444 4.97295 0.420053 4.88365 0.43514C4.79435 0.450226 4.7202 0.512427 4.6898 0.597737C4.6594 0.683047 4.67752 0.778125 4.73716 0.846279L5.21916 1.42128C5.26179 1.47207 5.32285 1.50385 5.38891 1.50962C5.45498 1.51538 5.52062 1.49467 5.57141 1.45203Z" fill="#3C3ADD"/>
</g>
<defs>
<clipPath id="clip0_4157_12128">
<rect width="15" height="15" fill="white"/>
</clipPath>
</defs>
</svg>
