<svg width="20" height="19" viewBox="0 0 20 19" fill="none" xmlns="http://www.w3.org/2000/svg">
<path d="M11.6667 7.05371L19.0083 8.43913C19.6 8.55788 20 9.03288 20 9.59496V17.67C20 18.327 19.4417 18.8575 18.75 18.8575H11.25C11.4833 18.8575 11.6667 18.6833 11.6667 18.4616V18.0658H18.75C18.975 18.0658 19.1667 17.8916 19.1667 17.67V9.59496C19.1667 9.41288 19.0333 9.24663 18.8417 9.20704L11.6667 7.86121V7.05371Z" fill="#657785"/>
<path d="M16.2503 10.9404C16.4837 10.9404 16.667 11.1146 16.667 11.3363C16.667 11.5579 16.4837 11.7321 16.2503 11.7321H14.5837C14.3503 11.7321 14.167 11.5579 14.167 11.3363C14.167 11.1146 14.3503 10.9404 14.5837 10.9404H16.2503Z" fill="#657785"/>
<path d="M16.2503 13.3154C16.4837 13.3154 16.667 13.4896 16.667 13.7113C16.667 13.9329 16.4837 14.1071 16.2503 14.1071H14.5837C14.3503 14.1071 14.167 13.9329 14.167 13.7113C14.167 13.4896 14.3503 13.3154 14.5837 13.3154H16.2503Z" fill="#657785"/>
<path d="M16.2503 15.6904C16.4837 15.6904 16.667 15.8646 16.667 16.0863C16.667 16.3079 16.4837 16.4821 16.2503 16.4821H14.5837C14.3503 16.4821 14.167 16.3079 14.167 16.0863C14.167 15.8646 14.3503 15.6904 14.5837 15.6904H16.2503Z" fill="#657785"/>
<path d="M11.6663 18.4615C11.6663 18.6831 11.483 18.8573 11.2497 18.8573C11.0163 18.8573 10.833 18.6831 10.833 18.4615V18.0656V7.37814C10.833 7.25939 10.8913 7.14855 10.983 7.06939C11.083 6.99814 11.208 6.96647 11.333 6.99022L11.6663 7.05355V7.86105V18.0656V18.4615Z" fill="#657785"/>
<path d="M10.8337 18.0654V18.4613C10.8337 18.6829 11.017 18.8571 11.2503 18.8571H7.91699C8.15033 18.8571 8.33366 18.6829 8.33366 18.4613V18.0654H10.8337Z" fill="#657785"/>
<path d="M8.75033 3.81543C8.98366 3.81543 9.16699 3.9896 9.16699 4.21126C9.16699 4.43293 8.98366 4.6071 8.75033 4.6071H7.08366C6.85033 4.6071 6.66699 4.43293 6.66699 4.21126C6.66699 3.9896 6.85033 3.81543 7.08366 3.81543H8.75033Z" fill="#657785"/>
<path d="M9.16699 6.58626C9.16699 6.80793 8.98366 6.9821 8.75033 6.9821H7.08366C6.85033 6.9821 6.66699 6.80793 6.66699 6.58626C6.66699 6.3646 6.85033 6.19043 7.08366 6.19043H8.75033C8.98366 6.19043 9.16699 6.3646 9.16699 6.58626Z" fill="#657785"/>
<path d="M8.75033 8.56543C8.98366 8.56543 9.16699 8.7396 9.16699 8.96126C9.16699 9.18293 8.98366 9.3571 8.75033 9.3571H7.08366C6.85033 9.3571 6.66699 9.18293 6.66699 8.96126C6.66699 8.7396 6.85033 8.56543 7.08366 8.56543H8.75033Z" fill="#657785"/>
<path d="M8.75033 10.9404C8.98366 10.9404 9.16699 11.1146 9.16699 11.3363C9.16699 11.5579 8.98366 11.7321 8.75033 11.7321H7.08366C6.85033 11.7321 6.66699 11.5579 6.66699 11.3363C6.66699 11.1146 6.85033 10.9404 7.08366 10.9404H8.75033Z" fill="#657785"/>
<path d="M5 11.3363C5 11.5579 4.81667 11.7321 4.58333 11.7321H2.91667C2.68333 11.7321 2.5 11.5579 2.5 11.3363C2.5 11.1146 2.68333 10.9404 2.91667 10.9404H4.58333C4.81667 10.9404 5 11.1146 5 11.3363Z" fill="#657785"/>
<path d="M4.58333 3.81543C4.81667 3.81543 5 3.9896 5 4.21126C5 4.43293 4.81667 4.6071 4.58333 4.6071H2.91667C2.68333 4.6071 2.5 4.43293 2.5 4.21126C2.5 3.9896 2.68333 3.81543 2.91667 3.81543H4.58333Z" fill="#657785"/>
<path d="M4.58333 6.19043C4.81667 6.19043 5 6.3646 5 6.58626C5 6.80793 4.81667 6.9821 4.58333 6.9821H2.91667C2.68333 6.9821 2.5 6.80793 2.5 6.58626C2.5 6.3646 2.68333 6.19043 2.91667 6.19043H4.58333Z" fill="#657785"/>
<path d="M4.58333 8.56543C4.81667 8.56543 5 8.7396 5 8.96126C5 9.18293 4.81667 9.3571 4.58333 9.3571H2.91667C2.68333 9.3571 2.5 9.18293 2.5 8.96126C2.5 8.7396 2.68333 8.56543 2.91667 8.56543H4.58333Z" fill="#657785"/>
<path d="M7.49967 14.5029C7.49967 14.2813 7.30801 14.1071 7.08301 14.1071H4.58301C4.34967 14.1071 4.16634 14.2813 4.16634 14.5029V18.0654H3.33301V14.5029C3.33301 13.8458 3.89134 13.3154 4.58301 13.3154H7.08301C7.77467 13.3154 8.33301 13.8458 8.33301 14.5029V18.0654H7.49967V14.5029Z" fill="#657785"/>
<path d="M4.16634 18.0654H7.49967H8.33301V18.4613C8.33301 18.6829 8.14967 18.8571 7.91634 18.8571H3.74967C3.51634 18.8571 3.33301 18.6829 3.33301 18.4613V18.0654H4.16634Z" fill="#657785"/>
<path d="M1.45833 0.0154129L10.6167 1.3375C11.225 1.4325 11.6667 1.92333 11.6667 2.50916V7.05333L11.3333 6.99C11.2083 6.96625 11.0833 6.99791 10.9833 7.06916C10.8917 7.14833 10.8333 7.25916 10.8333 7.37791V2.50916C10.8333 2.31125 10.6833 2.145 10.4833 2.11333L1.325 0.799163C1.3 0.791246 1.275 0.791246 1.25 0.791246C1.15 0.791246 1.05833 0.822913 0.983333 0.886246C0.883333 0.965413 0.833333 1.06833 0.833333 1.18708V17.6696C0.833333 17.8912 1.025 18.0654 1.25 18.0654H3.33333V18.4612C3.33333 18.6829 3.51667 18.8571 3.75 18.8571H1.25C0.558333 18.8571 0 18.3267 0 17.6696V1.18708C0 0.838746 0.158333 0.506246 0.441667 0.28458C0.725 0.0549963 1.09167 -0.0400037 1.45833 0.0154129Z" fill="#657785"/>
</svg>
