<svg width="16" height="18" viewBox="0 0 16 18" fill="none" xmlns="http://www.w3.org/2000/svg">
<path d="M13.154 5.54231C13.9083 5.54157 14.6315 5.24942 15.165 4.72995C15.6984 4.21049 15.9985 3.50614 15.9994 2.77144C15.9987 2.03664 15.6986 1.33214 15.1652 0.812558C14.6317 0.292973 13.9084 0.000744557 13.154 0C12.3997 0.000893425 11.6766 0.293188 11.1432 0.812756C10.6099 1.33232 10.31 2.03673 10.3092 2.77144C10.3092 3.13088 10.3848 3.47175 10.5136 3.78731L4.86208 6.98006C4.59836 6.72001 4.28425 6.51355 3.93796 6.37267C3.59167 6.23179 3.22011 6.15929 2.84483 6.15937C2.09062 6.16027 1.36755 6.45249 0.834244 6.97193C0.300934 7.49138 0.000916979 8.19564 0 8.93025C0.000764157 9.66496 0.300713 10.3694 0.83404 10.8889C1.36737 11.4085 2.09052 11.7008 2.84483 11.7017C3.64469 11.7017 4.366 11.3754 4.88345 10.8557L10.4876 14.2959C10.373 14.5945 10.3128 14.9103 10.3098 15.2291C10.3107 15.9637 10.6107 16.668 11.144 17.1874C11.6773 17.7069 12.4004 17.9991 13.1546 18C13.9089 17.9993 14.6321 17.7071 15.1656 17.1876C15.699 16.6682 15.9991 15.9638 16 15.2291C15.9992 14.4943 15.6992 13.7898 15.1658 13.2702C14.6323 12.7507 13.909 12.4584 13.1546 12.4577C12.7669 12.4583 12.3835 12.5365 12.0282 12.6875C11.6728 12.8384 11.3531 13.0589 11.0888 13.3352L5.49908 9.90337C5.61689 9.59906 5.68966 9.27337 5.68966 8.92969C5.68966 8.57475 5.61458 8.23838 5.48926 7.92619L11.146 4.73062C11.4092 4.98825 11.7221 5.19261 12.0667 5.33192C12.4114 5.47122 12.7809 5.54273 13.154 5.54231ZM13.154 13.5833C13.6022 13.5837 14.0319 13.7573 14.3488 14.066C14.6657 14.3746 14.8439 14.7932 14.8444 15.2297C14.8438 15.6661 14.6655 16.0845 14.3486 16.393C14.0317 16.7016 13.6021 16.8751 13.154 16.8756C12.706 16.875 12.2766 16.7014 11.9598 16.3928C11.6431 16.0843 11.4648 15.666 11.4642 15.2297C11.4642 14.9271 11.5543 14.6469 11.701 14.4034C11.7056 14.3972 11.7114 14.3927 11.716 14.3859C11.7224 14.3764 11.7224 14.3651 11.7281 14.3556C11.8791 14.1197 12.0892 13.925 12.3386 13.7899C12.588 13.6548 12.8686 13.5837 13.154 13.5833ZM2.84425 10.5773C2.39618 10.5767 1.96664 10.403 1.64985 10.0943C1.33307 9.78567 1.15491 9.36724 1.15445 8.93081C1.15506 8.49448 1.33329 8.07619 1.65006 7.76766C1.96682 7.45913 2.39628 7.28553 2.84425 7.28494C3.3952 7.28494 3.88089 7.54706 4.18986 7.94588C4.19794 7.96388 4.19852 7.983 4.20892 7.99987C4.2356 8.04468 4.26865 8.08558 4.30709 8.12138C4.44743 8.36156 4.53463 8.63494 4.53463 8.93025C4.53389 9.2412 4.44192 9.54546 4.26955 9.80719L4.26551 9.81113C4.2632 9.8145 4.26378 9.81787 4.26147 9.82125C4.10902 10.0527 3.8994 10.2431 3.6518 10.3752C3.40421 10.5073 3.12655 10.5768 2.84425 10.5773ZM13.154 1.12556C13.6022 1.12601 14.0319 1.29962 14.3488 1.60829C14.6657 1.91696 14.8439 2.33547 14.8444 2.772C14.8438 3.20843 14.6655 3.6268 14.3486 3.93535C14.0317 4.2439 13.6021 4.41743 13.154 4.41787C12.706 4.41728 12.2766 4.24368 11.9598 3.93515C11.6431 3.62662 11.4648 3.20833 11.4642 2.772C11.4645 2.33553 11.6426 1.91701 11.9594 1.60832C12.2763 1.29963 12.7059 1.12601 13.154 1.12556Z" fill="#616161"/>
</svg>
