<svg width="19" height="19" viewBox="0 0 19 19" fill="none" xmlns="http://www.w3.org/2000/svg">
<g clip-path="url(#clip0_4182_694)">
<path d="M15.2729 18.9998C15.2245 18.9998 15.1756 18.9873 15.131 18.9608C13.7789 18.158 13.1544 16.8705 13.0012 16.5126C12.094 15.949 11.5266 15.1709 11.2162 14.6344C11.002 14.8668 10.7976 15.08 10.5964 15.2812C9.82302 16.0546 8.75114 16.4098 7.98815 16.5716C7.54937 16.6646 7.17107 16.7038 6.93097 16.7203C6.77926 16.7307 6.67005 16.7351 6.58881 16.7343L4.40486 18.9183C4.29616 19.027 4.11993 19.027 4.01127 18.9183C3.90257 18.8096 3.90257 18.6334 4.01127 18.5247L6.28292 16.2531C6.3489 16.1871 6.44137 16.1601 6.52918 16.176C6.85233 16.1986 9.00898 16.0816 10.2028 14.8876C10.3928 14.6977 10.5859 14.4964 10.7881 14.2776C10.2494 14.3261 9.40345 14.242 8.69762 13.5362L7.24599 12.0845C7.05859 12.4122 6.84175 12.6999 6.59898 12.9427C6.49025 13.0514 6.31405 13.0514 6.20536 12.9427C6.09666 12.834 6.09666 12.6578 6.20536 12.5491C6.44505 12.3094 6.6568 12.0157 6.83604 11.6746L6.65669 11.4953C6.30106 11.1397 6.14876 10.7827 6.20395 10.4343C6.24829 10.1544 6.42516 9.90389 6.73106 9.68672C6.41365 9.31529 6.46746 8.82299 6.87849 8.41192C7.03447 8.25595 7.2022 8.15141 7.37053 8.09908C7.34953 8.01581 7.34266 7.93009 7.34986 7.84347C7.27152 7.36624 7.14509 6.89301 6.9732 6.433C6.2494 6.76279 5.48772 6.6335 5.44687 6.62627C5.29553 6.59921 5.19481 6.45463 5.22183 6.30333C5.24885 6.1523 5.39291 6.05166 5.54402 6.07815C5.55408 6.0799 6.55846 6.24522 7.17352 5.63016L8.57056 4.23312C9.0354 3.76824 8.97179 3.25449 8.71595 2.97387C8.55297 2.79507 8.27702 2.68853 7.99135 2.92574C7.0037 3.74587 6.17511 4.11463 5.76913 4.26147C5.59723 4.32363 5.45087 4.43314 5.34589 4.5782L4.24803 6.09441C4.15785 6.21891 3.98388 6.24674 3.85938 6.1566C3.73487 6.06646 3.70704 5.89245 3.79718 5.76795L4.89504 4.25175C5.06575 4.01595 5.30255 3.83827 5.57987 3.738C5.95171 3.60351 6.71324 3.26351 7.63576 2.49749C8.10472 2.10817 8.71807 2.1498 9.12736 2.59883C9.30804 2.79704 9.42921 3.0567 9.46209 3.34163L10.4659 2.3378C10.5747 2.22911 10.7509 2.22911 10.8595 2.3378C10.9682 2.4465 10.9682 2.62273 10.8595 2.73139L7.56714 6.02375C7.52992 6.06097 7.49185 6.09608 7.45307 6.12918C7.57768 6.44881 7.68185 6.77493 7.76464 7.10469C8.05466 6.84618 8.37859 6.75916 8.66923 6.84829C8.72438 6.68468 8.82847 6.52403 8.97565 6.37681C9.16755 6.18492 9.3823 6.06631 9.59669 6.03384C9.77993 6.00608 10.0525 6.02698 10.3098 6.2843L10.9877 6.96218C11.0891 6.78302 11.2329 6.62723 11.4077 6.51341C11.6335 6.36638 11.871 6.31573 12.0595 6.37447C12.1323 6.39719 12.2078 6.42917 12.2853 6.46918L15.6633 3.0911C16.3102 2.44431 16.4918 1.85363 16.1493 1.5111C16.0003 1.36211 15.8092 1.30893 15.5814 1.35346C15.2819 1.41183 14.9319 1.63438 14.5693 1.99702L13.8635 2.70285L10.8366 5.7298C10.7278 5.83846 10.5516 5.83853 10.443 5.7298C10.3342 5.62111 10.3342 5.44491 10.4429 5.33621L13.4728 2.30637C14.1173 1.66069 14.2978 1.07128 13.9558 0.729234C13.8068 0.580238 13.6158 0.527059 13.3879 0.571591C13.0884 0.629965 12.7385 0.852514 12.3758 1.21515L11.6389 1.95212C11.5302 2.06085 11.354 2.06085 11.2453 1.95216C11.1366 1.84346 11.1366 1.66723 11.2453 1.55853L11.9822 0.821564C12.4298 0.373944 12.867 0.106047 13.2815 0.0252587C13.6904 -0.0544164 14.0696 0.0558373 14.3495 0.335683C14.4654 0.451615 14.6907 0.733762 14.6866 1.16735C14.9561 0.977537 15.2198 0.856856 15.475 0.807128C15.8837 0.727453 16.2631 0.83767 16.543 1.11755C16.7281 1.30266 17.1922 1.91171 16.5553 2.88462C17.0054 2.87104 17.2963 3.10282 17.4147 3.2212C17.6354 3.4419 18.2524 4.26477 16.9287 5.58841L16.4871 6.03009C16.776 6.04245 17.0387 6.15675 17.2466 6.36464C17.5265 6.64449 17.6367 7.02379 17.557 7.43259C17.4762 7.84711 17.2083 8.28423 16.7607 8.73181L15.351 10.1416C15.2422 10.2503 15.066 10.2503 14.9573 10.1416C14.8486 10.0329 14.8486 9.85669 14.9573 9.74803L16.3671 8.33822C16.7297 7.97558 16.9523 7.6256 17.0107 7.32612C17.0551 7.0983 17.0021 6.90726 16.8531 6.75827C16.704 6.60923 16.5129 6.55616 16.2852 6.60062C15.9857 6.659 15.6357 6.88154 15.2731 7.24418C15.2725 7.2447 15.272 7.24522 15.2715 7.24574L14.1252 8.39199C14.4617 9.06008 14.4788 9.89677 14.1871 11.0841C14.6438 11.3129 15.6972 11.9337 16.4273 13.0868C16.7869 13.2365 18.0802 13.8484 18.8961 15.1926C18.9759 15.324 18.934 15.4952 18.8026 15.575C18.6713 15.6547 18.5 15.6128 18.4202 15.4814C17.5904 14.1142 16.1585 13.5784 16.1441 13.5732C16.0847 13.5515 16.0341 13.5101 16.0013 13.4561C15.1644 12.0773 13.7697 11.5028 13.7557 11.4972C13.6252 11.4446 13.5545 11.3029 13.591 11.167C14.0383 9.4988 13.7895 8.83642 13.4871 8.40851C12.8909 7.56485 12.2376 7.01577 11.8978 6.90719C11.8679 6.90481 11.7728 6.92845 11.6616 7.01573C11.6 7.06401 11.4679 7.18625 11.4084 7.38297L11.4092 7.38375L11.9509 7.92545C12.151 8.12558 12.7727 8.53516 12.9954 8.67611C13.1253 8.75831 13.164 8.93024 13.0818 9.06012C12.9996 9.19001 12.8277 9.22867 12.6977 9.14648C12.6105 9.09126 11.8371 8.59892 11.5572 8.31904L10.9113 7.6731C10.9103 7.67206 10.9092 7.67098 10.9082 7.66995L9.9162 6.67796C9.81549 6.57721 9.7331 6.57632 9.68007 6.58429C9.5854 6.59862 9.47504 6.66475 9.36931 6.77051C9.26359 6.87624 9.19746 6.9866 9.18309 7.08131C9.17508 7.13441 9.17601 7.21668 9.27676 7.31744L10.4172 8.45786C10.5259 8.56656 10.5259 8.74279 10.4172 8.85145C10.3085 8.96011 10.1323 8.96015 10.0236 8.85145L8.88317 7.71103L8.63981 7.4677C8.41254 7.24043 8.17192 7.48109 8.09284 7.56017C7.77314 7.87991 7.94414 8.05092 8.00033 8.1071L8.20903 8.31581C8.21026 8.31699 8.21148 8.31826 8.21274 8.31948C8.21338 8.32015 8.21401 8.32078 8.21464 8.32141L9.38416 9.49089C9.49285 9.59959 9.49285 9.77582 9.38416 9.88448C9.27546 9.99318 9.09923 9.99318 8.99057 9.88448L7.81712 8.71103C7.59049 8.48729 7.35101 8.72673 7.27223 8.80558C6.95253 9.12532 7.12353 9.29633 7.17971 9.35251L7.36927 9.54207C7.37243 9.54507 7.37551 9.54815 7.37855 9.55135L8.5602 10.733C8.6689 10.8417 8.6689 11.0179 8.5602 11.1266C8.45151 11.2353 8.27528 11.2353 8.16662 11.1266L7.12962 10.0896C6.94919 10.2029 6.78082 10.3516 6.75388 10.5215C6.72182 10.7239 6.89742 10.9488 7.05042 11.1018L9.09132 13.1427C9.93439 13.9858 11.0018 13.6863 11.0721 13.6651C11.1337 13.6404 11.2025 13.6384 11.2661 13.6603C11.3448 13.6874 11.4072 13.7483 11.4363 13.8263C11.4415 13.8401 11.9912 15.2667 13.3665 16.0833C13.4211 16.1157 13.463 16.1658 13.4852 16.2253C13.4904 16.2392 14.0401 17.6658 15.4154 18.4823C15.5476 18.5608 15.5911 18.7316 15.5126 18.8638C15.4604 18.9512 15.3679 18.9998 15.2729 18.9998ZM6.62425 16.212C6.6244 16.2121 6.62451 16.2121 6.62466 16.2122C6.62451 16.2121 6.62436 16.2121 6.62425 16.212ZM6.62373 16.2117C6.62384 16.2117 6.62396 16.2118 6.62407 16.2118C6.62399 16.2118 6.62384 16.2117 6.62373 16.2117ZM6.6234 16.2114C6.6234 16.2114 6.62344 16.2115 6.62347 16.2115C6.62344 16.2115 6.6234 16.2115 6.6234 16.2114ZM11.0301 13.6859C11.03 13.686 11.0299 13.6861 11.0297 13.6862C11.0298 13.6861 11.03 13.686 11.0301 13.6859ZM12.7555 6.78606C13.1293 7.08943 13.5091 7.50692 13.8155 7.9142L16.5351 5.19464C17.1819 4.54785 17.3635 3.95721 17.021 3.61464C16.6785 3.27208 16.0878 3.45377 15.4411 4.10056C15.4404 4.10119 15.4398 4.10179 15.4392 4.10238L12.7555 6.78606ZM11.8996 6.90719H11.8997C11.8996 6.90719 11.8996 6.90719 11.8996 6.90719ZM0.34228 15.134C0.271066 15.134 0.199815 15.1069 0.145486 15.0525C0.0367911 14.9438 0.0367911 14.7676 0.145486 14.6589L2.30469 12.4997C1.743 10.2397 2.1482 8.04516 2.83139 7.10164L3.19967 6.59305C3.28981 6.46859 3.46382 6.44072 3.58833 6.53086C3.71283 6.621 3.74066 6.795 3.65052 6.91955L3.28224 7.42814C2.74812 8.16577 2.27103 10.2307 2.88272 12.512C2.90847 12.608 2.88101 12.7106 2.81069 12.7809L0.539074 15.0525C0.484745 15.1069 0.413494 15.134 0.34228 15.134Z" fill="#657785"/>
</g>
<defs>
<clipPath id="clip0_4182_694">
<rect width="19" height="19" fill="white"/>
</clipPath>
</defs>
</svg>
