<svg width="18" height="20" viewBox="0 0 18 20" fill="none" xmlns="http://www.w3.org/2000/svg">
<path d="M16.6153 0H2.76922C2.00422 0 1.38461 0.619613 1.38461 1.38461V2.76922H0.692305C0.310152 2.76922 0 3.07937 0 3.46152C0 3.84367 0.310152 4.15383 0.692305 4.15383C1.93499 4.15383 -0.100384 4.15383 2.76922 4.15383C3.15137 4.15383 3.46152 4.46398 3.46152 4.84613C3.46152 5.22828 3.15137 5.53844 2.76922 5.53844H1.38461V13.8461H0.692305C0.310152 13.8461 0 14.1562 0 14.5384C0 14.9205 0.310152 15.2307 0.692305 15.2307C1.93499 15.2307 -0.100384 15.2307 2.76922 15.2307C3.15137 15.2307 3.46152 15.5409 3.46152 15.923C3.46152 16.3052 3.15137 16.6153 2.76922 16.6153H1.38461V17.9999C1.38461 18.7649 2.00422 19.3845 2.76922 19.3845H16.6153C17.3803 19.3845 17.9999 18.7649 17.9999 17.9999V1.38461C17.9999 0.619613 17.3803 0 16.6153 0ZM9.69226 3.46152C11.2216 3.46152 12.4615 4.70144 12.4615 6.23074C12.4615 7.76004 11.2216 8.99996 9.69226 8.99996C8.16296 8.99996 6.92305 7.76004 6.92305 6.23074C6.92305 4.70144 8.16296 3.46152 9.69226 3.46152ZM13.8461 15.2307H5.53844V13.8461C5.53844 11.5518 7.39797 9.69226 9.69226 9.69226C11.9866 9.69226 13.8461 11.5518 13.8461 13.8461V15.2307Z" fill="#BCBCBC"/>
</svg>
