<svg width="18" height="18" viewBox="0 0 18 18" fill="none" xmlns="http://www.w3.org/2000/svg">
<path d="M9.75 9.75H12C12.9946 9.75 13.9484 10.1451 14.6517 10.8483C15.3549 11.5516 15.75 12.5054 15.75 13.5V14.25C15.75 14.25 14.5875 15.4725 11.25 15.75" stroke="white" stroke-width="1.5" stroke-linecap="round" stroke-linejoin="round"/>
<path d="M9.74982 2.25C10.4915 2.25 11.2165 2.46993 11.8332 2.88199C12.4499 3.29404 12.9305 3.87971 13.2144 4.56494C13.4982 5.25016 13.5725 6.00416 13.4278 6.73159C13.2831 7.45902 12.9259 8.1272 12.4015 8.65165C11.877 9.1761 11.2088 9.53325 10.4814 9.67795C9.75398 9.82264 8.99998 9.74838 8.31476 9.46455C7.62954 9.18072 7.04387 8.70007 6.63181 8.08339C6.21976 7.4667 5.99982 6.74168 5.99982 6C5.99982 5.00544 6.39491 4.05161 7.09817 3.34835C7.80143 2.64509 8.75526 2.25 9.74982 2.25V2.25ZM2.46732 12.0675L6.14982 15.75H8.24982V13.65L4.56732 9.9675C4.42713 9.83008 4.23864 9.75311 4.04232 9.75311C3.84601 9.75311 3.65752 9.83008 3.51732 9.9675L2.46732 11.0175C2.3299 11.1577 2.25293 11.3462 2.25293 11.5425C2.25293 11.7388 2.3299 11.9273 2.46732 12.0675V12.0675Z" stroke="white" stroke-width="1.5" stroke-linecap="round" stroke-linejoin="round"/>
</svg>
