<svg width="20" height="20" viewBox="0 0 20 20" fill="none" xmlns="http://www.w3.org/2000/svg">
<g clip-path="url(#clip0_4182_714)">
<path d="M19.696 9.27203C19.5 9.08508 19.2426 8.98933 18.9717 9.00191C18.8633 9.00699 18.7599 9.03008 18.6638 9.06789V8.6648C18.6638 8.12375 18.2237 7.68359 17.6826 7.68359C17.1416 7.68359 16.7014 8.12375 16.7014 8.6648V9.0864C16.5913 9.04351 16.4717 9.01972 16.3465 9.01972C15.8054 9.01972 15.3653 9.45988 15.3653 10.0009V10.7566C15.2551 10.7137 15.1355 10.6899 15.0104 10.6899C14.4693 10.6899 14.0292 11.13 14.0292 11.6711V13.7127C12.5297 13.8697 11.3569 15.1412 11.3569 16.6815V19.6878C11.3569 19.8608 11.4971 20.001 11.6701 20.001C11.8431 20.001 11.9833 19.8608 11.9833 19.6878V16.6815C11.9833 15.3808 13.0415 14.3225 14.3423 14.3225H15.6784C15.7921 14.3225 15.8913 14.2618 15.9461 14.1712L17.6672 12.4241C17.7337 12.3566 17.8225 12.319 17.9173 12.3183C17.9182 12.3183 17.9191 12.3183 17.92 12.3183C18.0138 12.3183 18.1021 12.3544 18.169 12.4203C18.3068 12.556 18.3085 12.7844 18.1728 12.9222L16.4001 14.7217C16.2884 14.8351 16.2809 15.0199 16.3828 15.1421C16.4997 15.2821 16.7183 15.2912 16.8463 15.1613L18.619 13.3618C18.8029 13.1751 18.9031 12.9279 18.9011 12.6658C18.8994 12.4309 18.8156 12.2094 18.6638 12.0336V10.0009C18.6638 9.80382 18.8152 9.63632 19.0011 9.62761C19.2011 9.61765 19.3736 9.78175 19.3736 9.98207V13.5456L18.4633 14.4559C18.3493 14.5699 18.3417 14.7583 18.4466 14.8808C18.5637 15.0176 18.7788 15.0262 18.9061 14.8989L19.9082 13.8968C19.9669 13.838 19.9999 13.7584 19.9999 13.6753V9.98214C19.9999 9.71511 19.8891 9.45632 19.696 9.27203ZM15.3653 13.6544V13.6961H14.6555V11.6711C14.6555 11.4754 14.8147 11.3162 15.0104 11.3162C15.2061 11.3162 15.3653 11.4754 15.3653 11.6711V13.6544H15.3653ZM15.9916 13.2325V10.0009C15.9916 9.80523 16.1508 9.64601 16.3465 9.64601C16.5422 9.64601 16.7014 9.80523 16.7014 10.0009V12.4017V12.4853C16.7014 12.4939 16.702 12.5023 16.7027 12.5107L15.9916 13.2325ZM18.0375 11.6997C17.9988 11.6951 17.9597 11.6919 17.9201 11.6919C17.9176 11.6919 17.9151 11.6919 17.9126 11.692C17.6984 11.6936 17.4952 11.7634 17.3277 11.8907V8.6648C17.3277 8.4691 17.4869 8.30988 17.6826 8.30988C17.8783 8.30988 18.0375 8.4691 18.0375 8.6648V11.6997H18.0375Z" fill="#657785"/>
<path d="M17.9041 15.4569C17.7818 15.3347 17.5835 15.3347 17.4612 15.4569L16.4811 16.4371L14.5027 17.756C14.4156 17.8141 14.3633 17.9118 14.3633 18.0165V19.6867C14.3633 19.8597 14.5035 19.9999 14.6764 19.9999C14.8494 19.9999 14.9896 19.8597 14.9896 19.6867V18.1842L16.8543 16.941C16.8715 16.9296 16.8875 16.9165 16.9021 16.9019L17.9041 15.8998C18.0264 15.7775 18.0264 15.5792 17.9041 15.4569Z" fill="#657785"/>
<path d="M5.97081 13.7126V11.671C5.97081 11.13 5.53065 10.6898 4.9896 10.6898C4.86448 10.6898 4.74484 10.7136 4.63468 10.7565V10.0009C4.63468 9.45988 4.19452 9.01972 3.65347 9.01972C3.52835 9.01972 3.4087 9.04351 3.29855 9.0864V8.6648C3.29855 8.12375 2.85839 7.68359 2.31734 7.68359C1.77629 7.68359 1.33613 8.12375 1.33613 8.6648V9.06789C1.24004 9.03011 1.13664 9.00707 1.02824 9.00191C0.757538 8.98984 0.499921 9.08504 0.303984 9.27203C0.110781 9.45632 0 9.71511 0 9.98207V10.669C0 10.8419 0.140195 10.9821 0.313163 10.9821C0.486093 10.9821 0.626327 10.842 0.626327 10.669V9.98207C0.626327 9.78195 0.798788 9.61742 0.998787 9.62761C1.1848 9.63632 1.33617 9.80386 1.33617 10.0009V12.0344C1.00722 12.417 1.02066 12.9958 1.38101 13.3617L3.15367 15.1612C3.28191 15.2914 3.49995 15.2818 3.61718 15.1421C3.71941 15.0201 3.71132 14.8349 3.59984 14.7217L1.82722 12.9222C1.68984 12.7828 1.69156 12.5576 1.83097 12.4203C1.96851 12.2848 2.19765 12.2867 2.33289 12.4241L4.0539 14.1712C4.10882 14.2617 4.20796 14.3224 4.32159 14.3224H5.65772C6.9585 14.3224 8.01678 15.3807 8.01678 16.6815V19.6878C8.01678 19.8607 8.15698 20.0009 8.32995 20.0009C8.50288 20.0009 8.64311 19.8608 8.64311 19.6878V16.6815C8.64303 15.1411 7.4703 13.8697 5.97081 13.7126ZM2.67226 11.8907C2.50476 11.7634 2.30156 11.6936 2.08738 11.692C2.04531 11.6916 2.00363 11.6942 1.96246 11.6991V8.6648C1.96246 8.4691 2.12168 8.30988 2.31738 8.30988C2.51308 8.30988 2.6723 8.4691 2.6723 8.6648L2.67226 11.8907ZM4.00839 13.2325L3.2973 12.5106C3.29796 12.5023 3.29859 12.4938 3.29859 12.4853V10.0009C3.29859 9.80523 3.45781 9.64601 3.65351 9.64601C3.84921 9.64601 4.00843 9.80523 4.00843 10.0009L4.00839 13.2325ZM5.34448 13.6961H4.63468V11.6711C4.63468 11.4754 4.7939 11.3162 4.9896 11.3162C5.1853 11.3162 5.34452 11.4754 5.34452 11.6711V13.6961H5.34448Z" fill="#657785"/>
<path d="M5.49729 17.7565L3.51894 16.4376L0.626327 13.545V12.3386C0.626327 12.1656 0.486132 12.0254 0.313163 12.0254C0.140234 12.0254 0 12.1655 0 12.3386V13.6747C0 13.7577 0.0329687 13.8373 0.0917186 13.8961L3.09796 16.9024C3.11253 16.9169 3.12851 16.9301 3.1457 16.9415L5.01042 18.1846V19.6872C5.01042 19.8601 5.15062 20.0003 5.32358 20.0003C5.49655 20.0003 5.63675 19.8602 5.63675 19.6872V18.017C5.63675 17.9123 5.5844 17.8145 5.49729 17.7565Z" fill="#657785"/>
<path d="M13.0064 4.67621H10.9813V1.98309C10.9813 1.81012 10.8411 1.66992 10.6682 1.66992H9.33203C9.1591 1.66992 9.01886 1.81008 9.01886 1.98309V4.67621H6.99383C6.8209 4.67621 6.68066 4.81636 6.68066 4.98937V6.3255C6.68066 6.49847 6.82086 6.63866 6.99383 6.63866H9.01886V12.6721C9.01886 12.845 9.15906 12.9852 9.33203 12.9852H10.6682C10.8411 12.9852 10.9813 12.8451 10.9813 12.6721V6.63862H13.0064C13.1793 6.63862 13.3195 6.49847 13.3195 6.32546V4.98933C13.3195 4.81636 13.1793 4.67621 13.0064 4.67621ZM12.6932 6.01234H10.6682C10.4953 6.01234 10.355 6.15249 10.355 6.3255V12.3589H9.64523V6.32546C9.64523 6.15249 9.50503 6.0123 9.33207 6.0123H7.30703V5.30249H9.33207C9.50499 5.30249 9.64523 5.16234 9.64523 4.98933V2.29625H10.355V4.98937C10.355 5.16234 10.4952 5.30253 10.6682 5.30253H12.6932V6.01234Z" fill="#657785"/>
<path d="M10.0002 0C9.82725 0 9.68701 0.140156 9.68701 0.313163V0.981209C9.68701 1.15418 9.82721 1.29437 10.0002 1.29437C10.1731 1.29437 10.3133 1.15422 10.3133 0.981209V0.313163C10.3133 0.140156 10.1731 0 10.0002 0Z" fill="#657785"/>
<path d="M7.93306 1.45196L7.59904 0.873409C7.51252 0.723604 7.321 0.672354 7.17127 0.758799C7.0215 0.845284 6.97018 1.03681 7.05666 1.18657L7.39064 1.76513C7.48267 1.92454 7.69912 1.96989 7.84767 1.86063C7.97447 1.76735 8.01166 1.58817 7.93306 1.45196Z" fill="#657785"/>
<path d="M6.10693 3.04792L5.52838 2.71389C5.37857 2.62741 5.18709 2.6787 5.10061 2.8285C5.01412 2.97831 5.06545 3.16983 5.21521 3.25632L5.79377 3.59034C5.95357 3.68253 6.16342 3.61311 6.23732 3.44452C6.30056 3.30034 6.24314 3.12655 6.10693 3.04792Z" fill="#657785"/>
<path d="M5.32349 5.34375H4.65545C4.48252 5.34375 4.34229 5.48391 4.34229 5.65691C4.34229 5.82988 4.48248 5.97008 4.65545 5.97008H5.32349C5.49642 5.97008 5.63666 5.82992 5.63666 5.65691C5.63666 5.48395 5.49642 5.34375 5.32349 5.34375Z" fill="#657785"/>
<path d="M6.22138 7.84021C6.13485 7.6904 5.94337 7.63915 5.7936 7.7256L5.21505 8.05962C5.09857 8.12688 5.03704 8.26548 5.06548 8.397C5.09634 8.53954 5.22611 8.64403 5.37193 8.64403C5.42505 8.64403 5.47888 8.63052 5.52821 8.60204L6.10677 8.26802C6.25653 8.18149 6.30786 7.98997 6.22138 7.84021Z" fill="#657785"/>
<path d="M7.81838 9.43653C7.66858 9.35009 7.47709 9.40134 7.39061 9.55114L7.05659 10.1297C6.93854 10.3341 7.08999 10.5995 7.32749 10.5995C7.43573 10.5995 7.54096 10.5433 7.59897 10.4429L7.93299 9.86431C8.01948 9.71454 7.96819 9.52302 7.81838 9.43653Z" fill="#657785"/>
<path d="M12.9434 10.1297L12.6093 9.55113C12.5228 9.40132 12.3312 9.35011 12.1815 9.43652C12.0318 9.523 11.9804 9.71452 12.0669 9.86429L12.4009 10.4428C12.493 10.6023 12.7094 10.6476 12.858 10.5384C12.9848 10.445 13.022 10.2659 12.9434 10.1297Z" fill="#657785"/>
<path d="M14.7852 8.05768L14.2066 7.72366C14.0569 7.63718 13.8653 7.68847 13.7789 7.83827C13.6923 7.98807 13.7437 8.1796 13.8935 8.26608L14.472 8.6001C14.6318 8.69229 14.8417 8.62288 14.9156 8.45428C14.9788 8.3101 14.9214 8.13635 14.7852 8.05768Z" fill="#657785"/>
<path d="M15.3445 5.34375H14.6764C14.5035 5.34375 14.3633 5.48391 14.3633 5.65691C14.3633 5.82988 14.5035 5.97008 14.6764 5.97008H15.3445C15.5174 5.97008 15.6577 5.82992 15.6577 5.65691C15.6577 5.48395 15.5175 5.34375 15.3445 5.34375Z" fill="#657785"/>
<path d="M14.8996 2.82849C14.8131 2.67868 14.6216 2.62743 14.4718 2.71388L13.8933 3.0479C13.7768 3.11517 13.7153 3.25376 13.7437 3.38528C13.7746 3.52782 13.9043 3.63231 14.0501 3.63231C14.1033 3.63231 14.1571 3.6188 14.2064 3.59032L14.785 3.2563C14.9348 3.16978 14.9861 2.97825 14.8996 2.82849Z" fill="#657785"/>
<path d="M12.8287 0.758817C12.6789 0.672333 12.4874 0.723621 12.4009 0.873426L12.0669 1.45198C11.9804 1.60174 12.0318 1.79327 12.1815 1.87975C12.3295 1.96514 12.524 1.91288 12.6093 1.76514L12.9433 1.18659C13.0298 1.03678 12.9785 0.845262 12.8287 0.758817Z" fill="#657785"/>
<path d="M4.66033 2.21306L2.63534 1.04396C2.48553 0.95751 2.29405 1.00876 2.20756 1.15856C2.12104 1.30833 2.17237 1.49985 2.32217 1.58634L4.34713 2.75544C4.39643 2.78391 4.45029 2.79743 4.50342 2.79743C4.61166 2.79743 4.7169 2.74126 4.7749 2.64083C4.86139 2.49102 4.8101 2.2995 4.66033 2.21306Z" fill="#657785"/>
<path d="M3.31933 5.34375H0.981132C0.808203 5.34375 0.667969 5.48391 0.667969 5.65691C0.667969 5.82988 0.808164 5.97008 0.981132 5.97008H3.31933C3.49226 5.97008 3.63249 5.82992 3.63249 5.65691C3.63249 5.48395 3.49226 5.34375 3.31933 5.34375Z" fill="#657785"/>
<path d="M19.0185 5.34375H16.6804C16.5074 5.34375 16.3672 5.48391 16.3672 5.65691C16.3672 5.82988 16.5074 5.97008 16.6804 5.97008H19.0185C19.1915 5.97008 19.3317 5.82992 19.3317 5.65691C19.3317 5.48395 19.1915 5.34375 19.0185 5.34375Z" fill="#657785"/>
<path d="M17.7925 1.15855C17.706 1.00874 17.5144 0.957532 17.3647 1.04394L15.3397 2.21304C15.19 2.29952 15.1386 2.49104 15.2251 2.64081C15.2831 2.74128 15.3884 2.79741 15.4966 2.79741C15.5497 2.79741 15.6036 2.7839 15.6529 2.75542L17.6778 1.58632C17.8276 1.49984 17.8789 1.30831 17.7925 1.15855Z" fill="#657785"/>
</g>
<defs>
<clipPath id="clip0_4182_714">
<rect width="20" height="20" fill="white"/>
</clipPath>
</defs>
</svg>
