<svg width="20" height="20" viewBox="0 0 20 20" fill="none" xmlns="http://www.w3.org/2000/svg">
<g clip-path="url(#clip0_4157_13018)">
<path d="M19.6965 9.27105C19.5005 9.0841 19.2431 8.98836 18.9722 9.00094C18.8638 9.00601 18.7604 9.0291 18.6643 9.06691V8.66383C18.6643 8.12277 18.2242 7.68262 17.6831 7.68262C17.1421 7.68262 16.7019 8.12277 16.7019 8.66383V9.08543C16.5917 9.04254 16.4721 9.01875 16.347 9.01875C15.8059 9.01875 15.3658 9.4589 15.3658 9.99996V10.7556C15.2556 10.7127 15.136 10.6889 15.0109 10.6889C14.4698 10.6889 14.0296 11.1291 14.0296 11.6701V13.7117C12.5302 13.8687 11.3574 15.1402 11.3574 16.6806V19.6868C11.3574 19.8598 11.4976 20 11.6706 20C11.8436 20 11.9837 19.8598 11.9837 19.6868V16.6806C11.9837 15.3798 13.042 14.3215 14.3428 14.3215H15.6789C15.7926 14.3215 15.8917 14.2608 15.9466 14.1702L17.6676 12.4231C17.7342 12.3556 17.823 12.318 17.9178 12.3173C17.9187 12.3173 17.9196 12.3173 17.9205 12.3173C18.0143 12.3173 18.1026 12.3535 18.1695 12.4193C18.3073 12.5551 18.309 12.7834 18.1733 12.9212L16.4006 14.7207C16.2889 14.8341 16.2814 15.0189 16.3833 15.1411C16.5001 15.2812 16.7188 15.2902 16.8468 15.1603L18.6194 13.3608C18.8033 13.1741 18.9036 12.9269 18.9016 12.6648C18.8999 12.43 18.816 12.2085 18.6643 12.0326V9.99996C18.6643 9.80285 18.8156 9.63535 19.0016 9.62664C19.2016 9.61668 19.3741 9.78078 19.3741 9.98109V13.5446L18.4638 14.4549C18.3498 14.569 18.3422 14.7573 18.4471 14.8799C18.5642 15.0166 18.7792 15.0252 18.9066 14.8979L19.9087 13.8958C19.9674 13.8371 20.0004 13.7574 20.0004 13.6744V9.98117C20.0004 9.71414 19.8896 9.45535 19.6965 9.27105ZM15.3658 13.6534V13.6951H14.656V11.6701C14.656 11.4744 14.8152 11.3152 15.0109 11.3152C15.2066 11.3152 15.3658 11.4744 15.3658 11.6701V13.6534H15.3658ZM15.9921 13.2316V9.99996C15.9921 9.80425 16.1513 9.64504 16.347 9.64504C16.5427 9.64504 16.7019 9.80425 16.7019 9.99996V12.4008V12.4843C16.7019 12.4929 16.7025 12.5013 16.7032 12.5097L15.9921 13.2316ZM18.038 11.6987C17.9992 11.6941 17.9602 11.691 17.9206 11.691C17.9181 11.691 17.9156 11.691 17.9131 11.691C17.6989 11.6926 17.4957 11.7624 17.3282 11.8897V8.66383C17.3282 8.46812 17.4874 8.30891 17.6831 8.30891C17.8788 8.30891 18.038 8.46812 18.038 8.66383V11.6987H18.038Z" fill="#657785"/>
<path d="M17.9041 15.4569C17.7818 15.3347 17.5835 15.3347 17.4612 15.4569L16.4811 16.4371L14.5027 17.756C14.4156 17.8141 14.3633 17.9118 14.3633 18.0165V19.6867C14.3633 19.8597 14.5035 19.9999 14.6764 19.9999C14.8494 19.9999 14.9896 19.8597 14.9896 19.6867V18.1842L16.8543 16.941C16.8715 16.9296 16.8875 16.9165 16.9021 16.9019L17.9041 15.8998C18.0264 15.7775 18.0264 15.5792 17.9041 15.4569Z" fill="#657785"/>
<path d="M5.97081 13.7117V11.6701C5.97081 11.129 5.53065 10.6889 4.9896 10.6889C4.86448 10.6889 4.74484 10.7127 4.63468 10.7555V9.99996C4.63468 9.4589 4.19452 9.01875 3.65347 9.01875C3.52835 9.01875 3.4087 9.04254 3.29855 9.08543V8.66383C3.29855 8.12277 2.85839 7.68262 2.31734 7.68262C1.77629 7.68262 1.33613 8.12277 1.33613 8.66383V9.06691C1.24004 9.02914 1.13664 9.00609 1.02824 9.00094C0.757538 8.98887 0.499921 9.08406 0.303984 9.27105C0.110781 9.45535 0 9.71414 0 9.98109V10.668C0 10.841 0.140195 10.9812 0.313163 10.9812C0.486093 10.9812 0.626327 10.841 0.626327 10.668V9.98109C0.626327 9.78097 0.798788 9.61644 0.998787 9.62664C1.1848 9.63535 1.33617 9.80289 1.33617 9.99996V12.0334C1.00722 12.416 1.02066 12.9949 1.38101 13.3608L3.15367 15.1603C3.28191 15.2904 3.49995 15.2808 3.61718 15.1411C3.71941 15.0192 3.71132 14.8339 3.59984 14.7207L1.82722 12.9212C1.68984 12.7818 1.69156 12.5566 1.83097 12.4193C1.96851 12.2838 2.19765 12.2858 2.33289 12.4231L4.0539 14.1702C4.10882 14.2607 4.20796 14.3215 4.32159 14.3215H5.65772C6.9585 14.3215 8.01678 15.3798 8.01678 16.6805V19.6868C8.01678 19.8597 8.15698 19.9999 8.32995 19.9999C8.50288 19.9999 8.64311 19.8598 8.64311 19.6868V16.6805C8.64303 15.1401 7.4703 13.8687 5.97081 13.7117ZM2.67226 11.8897C2.50476 11.7624 2.30156 11.6926 2.08738 11.691C2.04531 11.6906 2.00363 11.6932 1.96246 11.6981V8.66383C1.96246 8.46812 2.12168 8.30891 2.31738 8.30891C2.51308 8.30891 2.6723 8.46812 2.6723 8.66383L2.67226 11.8897ZM4.00839 13.2315L3.2973 12.5096C3.29796 12.5013 3.29859 12.4928 3.29859 12.4843V9.99996C3.29859 9.80425 3.45781 9.64504 3.65351 9.64504C3.84921 9.64504 4.00843 9.80425 4.00843 9.99996L4.00839 13.2315ZM5.34448 13.6951H4.63468V11.6701C4.63468 11.4744 4.7939 11.3152 4.9896 11.3152C5.1853 11.3152 5.34452 11.4744 5.34452 11.6701V13.6951H5.34448Z" fill="#657785"/>
<path d="M5.49729 17.7565L3.51894 16.4376L0.626327 13.545V12.3386C0.626327 12.1656 0.486132 12.0254 0.313163 12.0254C0.140234 12.0254 0 12.1655 0 12.3386V13.6747C0 13.7577 0.0329687 13.8373 0.0917186 13.8961L3.09796 16.9024C3.11253 16.9169 3.12851 16.9301 3.1457 16.9415L5.01042 18.1846V19.6872C5.01042 19.8601 5.15062 20.0003 5.32358 20.0003C5.49655 20.0003 5.63675 19.8602 5.63675 19.6872V18.017C5.63675 17.9123 5.5844 17.8145 5.49729 17.7565Z" fill="#657785"/>
<path d="M13.0064 4.67621H10.9813V1.98309C10.9813 1.81012 10.8411 1.66992 10.6682 1.66992H9.33203C9.1591 1.66992 9.01886 1.81008 9.01886 1.98309V4.67621H6.99383C6.8209 4.67621 6.68066 4.81636 6.68066 4.98937V6.3255C6.68066 6.49847 6.82086 6.63866 6.99383 6.63866H9.01886V12.6721C9.01886 12.845 9.15906 12.9852 9.33203 12.9852H10.6682C10.8411 12.9852 10.9813 12.8451 10.9813 12.6721V6.63862H13.0064C13.1793 6.63862 13.3195 6.49847 13.3195 6.32546V4.98933C13.3195 4.81636 13.1793 4.67621 13.0064 4.67621ZM12.6932 6.01234H10.6682C10.4953 6.01234 10.355 6.15249 10.355 6.3255V12.3589H9.64523V6.32546C9.64523 6.15249 9.50503 6.0123 9.33207 6.0123H7.30703V5.30249H9.33207C9.50499 5.30249 9.64523 5.16234 9.64523 4.98933V2.29625H10.355V4.98937C10.355 5.16234 10.4952 5.30253 10.6682 5.30253H12.6932V6.01234Z" fill="#657785"/>
<path d="M9.99969 0C9.82676 0 9.68652 0.140156 9.68652 0.313163V0.981209C9.68652 1.15418 9.82672 1.29437 9.99969 1.29437C10.1727 1.29437 10.3129 1.15422 10.3129 0.981209V0.313163C10.3129 0.140156 10.1726 0 9.99969 0Z" fill="#657785"/>
<path d="M7.93306 1.45099L7.59904 0.872432C7.51252 0.722628 7.321 0.671378 7.17127 0.757823C7.0215 0.844307 6.97018 1.03583 7.05666 1.1856L7.39064 1.76415C7.48267 1.92356 7.69912 1.96891 7.84767 1.85966C7.97447 1.76638 8.01166 1.5872 7.93306 1.45099Z" fill="#657785"/>
<path d="M6.10693 3.04792L5.52838 2.71389C5.37857 2.62741 5.18709 2.6787 5.10061 2.8285C5.01412 2.97831 5.06545 3.16983 5.21521 3.25632L5.79377 3.59034C5.95357 3.68253 6.16342 3.61311 6.23732 3.44452C6.30056 3.30034 6.24314 3.12655 6.10693 3.04792Z" fill="#657785"/>
<path d="M5.32398 5.34473H4.65594C4.48301 5.34473 4.34277 5.48488 4.34277 5.65789C4.34277 5.83086 4.48297 5.97105 4.65594 5.97105H5.32398C5.49691 5.97105 5.63715 5.8309 5.63715 5.65789C5.63715 5.48492 5.49691 5.34473 5.32398 5.34473Z" fill="#657785"/>
<path d="M6.22138 7.83923C6.13485 7.68942 5.94337 7.63817 5.7936 7.72462L5.21505 8.05864C5.09857 8.12591 5.03704 8.2645 5.06548 8.39602C5.09634 8.53856 5.22611 8.64306 5.37193 8.64306C5.42505 8.64306 5.47888 8.62954 5.52821 8.60106L6.10677 8.26704C6.25653 8.18052 6.30786 7.98899 6.22138 7.83923Z" fill="#657785"/>
<path d="M7.81838 9.43653C7.66858 9.35009 7.47709 9.40134 7.39061 9.55114L7.05659 10.1297C6.93854 10.3341 7.08999 10.5995 7.32749 10.5995C7.43573 10.5995 7.54096 10.5433 7.59897 10.4429L7.93299 9.86431C8.01948 9.71454 7.96819 9.52302 7.81838 9.43653Z" fill="#657785"/>
<path d="M12.9438 10.1297L12.6098 9.55113C12.5233 9.40132 12.3317 9.35011 12.182 9.43652C12.0322 9.523 11.9809 9.71452 12.0674 9.86429L12.4014 10.4428C12.4935 10.6023 12.7099 10.6476 12.8585 10.5384C12.9853 10.445 13.0225 10.2659 12.9438 10.1297Z" fill="#657785"/>
<path d="M14.7847 8.05866L14.2061 7.72464C14.0564 7.63815 13.8648 7.68944 13.7784 7.83925C13.6918 7.98905 13.7432 8.18057 13.893 8.26706L14.4715 8.60108C14.6313 8.69327 14.8412 8.62385 14.9151 8.45526C14.9783 8.31108 14.9209 8.13733 14.7847 8.05866Z" fill="#657785"/>
<path d="M15.3445 5.34473H14.6764C14.5035 5.34473 14.3633 5.48488 14.3633 5.65789C14.3633 5.83086 14.5035 5.97105 14.6764 5.97105H15.3445C15.5174 5.97105 15.6577 5.8309 15.6577 5.65789C15.6577 5.48492 15.5175 5.34473 15.3445 5.34473Z" fill="#657785"/>
<path d="M14.8991 2.82849C14.8126 2.67868 14.6211 2.62743 14.4713 2.71388L13.8928 3.0479C13.7763 3.11517 13.7148 3.25376 13.7432 3.38528C13.7741 3.52782 13.9038 3.63231 14.0497 3.63231C14.1028 3.63231 14.1567 3.6188 14.2059 3.59032L14.7845 3.2563C14.9343 3.16978 14.9856 2.97825 14.8991 2.82849Z" fill="#657785"/>
<path d="M12.8292 0.75784C12.6794 0.671356 12.4879 0.722645 12.4014 0.872449L12.0674 1.451C11.9809 1.60077 12.0322 1.79229 12.182 1.87878C12.33 1.96417 12.5245 1.9119 12.6098 1.76417L12.9438 1.18561C13.0303 1.03581 12.979 0.844285 12.8292 0.75784Z" fill="#657785"/>
<path d="M4.66082 2.21306L2.63583 1.04396C2.48602 0.95751 2.29454 1.00876 2.20805 1.15856C2.12153 1.30833 2.17286 1.49985 2.32266 1.58634L4.34762 2.75544C4.39692 2.78391 4.45078 2.79743 4.50391 2.79743C4.61215 2.79743 4.71738 2.74126 4.77539 2.64083C4.86188 2.49102 4.81059 2.2995 4.66082 2.21306Z" fill="#657785"/>
<path d="M3.31933 5.34473H0.981132C0.808203 5.34473 0.667969 5.48488 0.667969 5.65789C0.667969 5.83086 0.808164 5.97105 0.981132 5.97105H3.31933C3.49226 5.97105 3.63249 5.8309 3.63249 5.65789C3.63249 5.48492 3.49226 5.34473 3.31933 5.34473Z" fill="#657785"/>
<path d="M19.0185 5.34473H16.6804C16.5074 5.34473 16.3672 5.48488 16.3672 5.65789C16.3672 5.83086 16.5074 5.97105 16.6804 5.97105H19.0185C19.1915 5.97105 19.3317 5.8309 19.3317 5.65789C19.3317 5.48492 19.1915 5.34473 19.0185 5.34473Z" fill="#657785"/>
<path d="M17.7929 1.15855C17.7065 1.00874 17.5149 0.957532 17.3652 1.04394L15.3402 2.21304C15.1904 2.29952 15.1391 2.49104 15.2256 2.64081C15.2836 2.74128 15.3888 2.79741 15.4971 2.79741C15.5502 2.79741 15.6041 2.7839 15.6534 2.75542L17.6783 1.58632C17.8281 1.49984 17.8794 1.30831 17.7929 1.15855Z" fill="#657785"/>
</g>
<defs>
<clipPath id="clip0_4157_13018">
<rect width="20" height="20" fill="white"/>
</clipPath>
</defs>
</svg>
