<svg width="20" height="21" viewBox="0 0 20 21" fill="none" xmlns="http://www.w3.org/2000/svg">
<mask id="mask0_4157_12885" style="mask-type:luminance" maskUnits="userSpaceOnUse" x="-2" y="0" width="22" height="21">
<path d="M-1.04883 3.8147e-06H19.9512V21H-1.04883V3.8147e-06Z" fill="white"/>
</mask>
<g mask="url(#mask0_4157_12885)">
<path d="M2.60205 13.7159C3.763 13.7159 4.7041 14.6571 4.7041 15.818V16.5434C4.7041 17.0578 4.8221 17.5654 5.04904 18.027C5.50953 18.9636 5.06483 20.0934 4.08944 20.4649C3.3489 20.7469 2.51116 20.503 2.03772 19.8676C1.26732 18.8337 0.5 17.1074 0.5 15.818C0.5 14.6571 1.4411 13.7159 2.60205 13.7159Z" stroke="#657785" stroke-miterlimit="10" stroke-linecap="round" stroke-linejoin="round"/>
<path d="M19.541 4.91016C19.541 5.36321 19.1738 5.73047 18.7207 5.73047C18.2676 5.73047 17.9004 5.36321 17.9004 4.91016C17.9004 4.4571 18.2676 4.08984 18.7207 4.08984C19.1738 4.08984 19.541 4.4571 19.541 4.91016Z" stroke="#657785" stroke-miterlimit="10" stroke-linecap="round" stroke-linejoin="round"/>
<path d="M17.4121 2.45215C17.4121 2.90521 17.0449 3.27246 16.5918 3.27246C16.1387 3.27246 15.7715 2.90521 15.7715 2.45215C15.7715 1.99909 16.1387 1.63184 16.5918 1.63184C17.0449 1.63184 17.4121 1.99909 17.4121 2.45215Z" stroke="#657785" stroke-miterlimit="10" stroke-linecap="round" stroke-linejoin="round"/>
<path d="M14.1865 1.37695C14.1865 1.83001 13.8193 2.19727 13.3662 2.19727C12.9132 2.19727 12.5459 1.83001 12.5459 1.37695C12.5459 0.923895 12.9132 0.556641 13.3662 0.556641C13.8193 0.556641 14.1865 0.923895 14.1865 1.37695Z" stroke="#657785" stroke-miterlimit="10" stroke-linecap="round" stroke-linejoin="round"/>
<path d="M10.7363 1.23828C10.7363 1.69134 10.3691 2.05859 9.91602 2.05859C9.46296 2.05859 9.0957 1.69134 9.0957 1.23828C9.0957 0.785223 9.46296 0.417969 9.91602 0.417969C10.3691 0.417969 10.7363 0.785223 10.7363 1.23828Z" stroke="#657785" stroke-miterlimit="10" stroke-linecap="round" stroke-linejoin="round"/>
<path d="M7.96058 4.26871C7.96058 5.05334 7.32451 5.68945 6.53984 5.68945C5.75521 5.68945 5.11914 5.05334 5.11914 4.26871C5.11914 3.48408 5.75521 2.84797 6.53984 2.84797C7.32451 2.84797 7.96058 3.48408 7.96058 4.26871Z" stroke="#657785" stroke-miterlimit="10" stroke-linecap="round" stroke-linejoin="round"/>
<path d="M17.5742 12.5205C17.6659 11.6566 17.712 10.7881 17.712 9.91855C17.712 7.15225 15.4694 4.90973 12.7031 4.90973C9.90234 4.90973 7.63184 7.18023 7.63184 9.98102C7.63184 10.8832 7.87252 11.769 8.32902 12.5472L8.78302 13.321C9.26504 14.1427 9.51917 15.0781 9.51917 16.0307V16.9533C9.51917 18.9568 11.1434 20.5811 13.1469 20.5811C14.899 20.5811 16.4008 19.3288 16.7156 17.6052L16.9792 16.1626" stroke="#657785" stroke-miterlimit="10" stroke-linecap="round" stroke-linejoin="round"/>
</g>
</svg>
