<svg width="13" height="19" viewBox="0 0 13 19" fill="none" xmlns="http://www.w3.org/2000/svg">
<path d="M0.382353 18.7317C0.171294 18.7317 0 18.5608 0 18.3493V16.3378C0 15.432 0.582706 14.647 1.44988 14.3847L4.36303 13.4388C4.52132 13.3876 4.62724 13.2411 4.62724 13.0752V12.0933C4.62724 11.8818 4.79853 11.7109 5.00959 11.7109C5.22065 11.7109 5.39194 11.8818 5.39194 12.0933V13.0752C5.39194 13.5741 5.07344 14.0123 4.59894 14.1664L1.67853 15.1143C1.12909 15.281 0.764706 15.7715 0.764706 16.3378V18.3493C0.764706 18.5608 0.593412 18.7317 0.382353 18.7317Z" fill="#657785"/>
<path d="M12.6179 18.7321C12.4064 18.7321 12.2355 18.5612 12.2355 18.3497V16.3382C12.2355 15.7719 11.8711 15.281 11.3286 15.1169L8.37873 14.093C7.91762 13.9328 7.60791 13.4973 7.60791 13.0094V12.0933C7.60791 11.8818 7.77882 11.7109 7.99026 11.7109C8.2017 11.7109 8.37262 11.8818 8.37262 12.0933V13.0094C8.37262 13.1723 8.47623 13.3176 8.62956 13.3707L11.5649 14.3897C12.4175 14.6474 13.0002 15.4324 13.0002 16.3382V18.3497C13.0002 18.5612 12.8293 18.7321 12.6179 18.7321Z" fill="#657785"/>
<path d="M2.79739 18.74C2.58633 18.74 2.41504 18.5691 2.41504 18.3577V17.271C2.41504 17.0596 2.58633 16.8887 2.79739 16.8887C3.00845 16.8887 3.17975 17.0596 3.17975 17.271V18.3577C3.17975 18.5691 3.00845 18.74 2.79739 18.74Z" fill="#657785"/>
<path d="M10.2085 18.7668C9.99708 18.7668 9.82617 18.5959 9.82617 18.3844V17.271C9.82617 17.0596 9.99708 16.8887 10.2085 16.8887C10.42 16.8887 10.5909 17.0596 10.5909 17.271V18.3844C10.5909 18.5955 10.42 18.7668 10.2085 18.7668Z" fill="#657785"/>
<path d="M3.08216 10.1658C2.15724 9.24779 1.64795 8.02426 1.64795 6.7212C1.64795 4.04549 3.82468 1.86914 6.50001 1.86914C9.17533 1.86914 11.3521 4.04588 11.3521 6.7212C11.3521 7.99214 10.8474 9.18738 9.93086 10.0859L9.39557 9.53991C10.1641 8.78629 10.5874 7.78529 10.5874 6.7212C10.5874 4.46723 8.7536 2.63385 6.50001 2.63385C4.24642 2.63385 2.41265 4.46761 2.41265 6.7212C2.41265 7.81893 2.84204 8.84938 3.62127 9.62288L3.08216 10.1658Z" fill="#657785"/>
<path d="M6.49785 12.6232C4.83767 12.6232 3.38932 11.5021 2.99282 9.86948C2.92514 9.59151 2.89111 9.30436 2.89111 9.01645V7.44077C2.89111 7.22359 2.989 7.02362 3.15952 6.89133C3.483 6.64165 3.98655 6.1358 4.34252 5.53245C4.43008 5.38409 4.58417 5.29233 4.7547 5.28736C4.91911 5.28201 5.0755 5.36307 5.16802 5.50186C5.17873 5.5183 6.25926 7.08709 9.58344 6.80071C9.71688 6.78962 9.85299 6.83474 9.95279 6.92651C10.0514 7.01712 10.108 7.14559 10.108 7.27904V9.01606C10.108 9.30474 10.074 9.59189 10.0063 9.86948C9.6102 11.5017 8.16223 12.622 6.50244 12.6228C6.50129 12.6232 6.49976 12.6232 6.49785 12.6232ZM6.27417 11.8497C6.27494 11.8501 6.27608 11.8501 6.27685 11.8501C6.35408 11.8562 6.43285 11.8608 6.50626 11.8585C6.57776 11.8581 6.64964 11.8554 6.72229 11.8501H6.72458C7.93817 11.7556 8.96938 10.9018 9.26341 9.68939C9.31655 9.47068 9.34332 9.24433 9.34332 9.01645V7.58454C6.92379 7.71951 5.45747 6.91886 4.79447 6.24439C4.33411 6.91006 3.81832 7.34518 3.65582 7.47404V9.01645C3.65582 9.24395 3.68258 9.4703 3.73573 9.68939C4.03014 10.9011 5.06097 11.7552 6.27417 11.8497Z" fill="#657785"/>
<path d="M10.2078 18.7702C10.03 18.7702 9.87058 18.6456 9.83349 18.4644C9.69241 17.7746 9.07796 17.2745 8.3729 17.2745C7.8854 17.2745 7.42735 17.5138 7.14861 17.9149C7.00064 18.1271 6.75823 18.2537 6.49976 18.2537C6.24129 18.2537 5.99849 18.1271 5.8509 17.9149C5.57179 17.5138 5.11411 17.2745 4.62623 17.2745C3.93187 17.2745 3.31934 17.7658 3.17023 18.4433C3.12511 18.6494 2.91979 18.7786 2.71484 18.7347C2.50837 18.6892 2.37837 18.4854 2.42349 18.2793C2.64908 17.2542 3.57552 16.5101 4.62623 16.5101C5.36379 16.5101 6.05623 16.8719 6.47835 17.4783L6.49976 17.5039L6.52079 17.4779C6.94252 16.8715 7.63534 16.5098 8.3729 16.5098C9.43967 16.5098 10.3692 17.2672 10.5825 18.3114C10.625 18.5183 10.4915 18.7201 10.2847 18.7626C10.2591 18.7676 10.2334 18.7702 10.2078 18.7702Z" fill="#657785"/>
<path d="M2.51431 13.3879C2.48716 13.3879 2.45925 13.3848 2.43172 13.3791C0.997129 13.0625 0.431629 12.502 0.3716 12.4389C0.306217 12.3701 0.268747 12.2794 0.266835 12.1842C0.161305 7.49965 1.56645 4.9421 2.76398 3.62145C2.90584 3.46545 3.14748 3.45321 3.30425 3.59507C3.46063 3.73692 3.47248 3.97857 3.33063 4.13533C2.24092 5.33707 0.965011 7.67248 1.0281 11.9954C1.22272 12.1387 1.70831 12.4362 2.59651 12.6324C2.80298 12.6779 2.93298 12.8817 2.88748 13.0881C2.84772 13.2667 2.68981 13.3879 2.51431 13.3879Z" fill="#657785"/>
<path d="M10.4862 13.3882C10.3107 13.3882 10.1528 13.267 10.113 13.0884C10.0675 12.8819 10.1979 12.6781 10.404 12.6326C11.2899 12.4369 11.7759 12.1402 11.9728 11.9949C12.0351 7.67236 10.7596 5.33657 9.67024 4.1356C9.52877 3.97922 9.54024 3.73719 9.69663 3.59533C9.85263 3.45348 10.0943 3.46495 10.2369 3.62172C11.434 4.94198 12.8392 7.49954 12.734 12.1845C12.7317 12.2797 12.6943 12.3703 12.6289 12.4395C12.5692 12.5022 12.0037 13.0628 10.5692 13.3794C10.5409 13.3855 10.5133 13.3882 10.4862 13.3882Z" fill="#657785"/>
<path d="M8.93806 2.5632L8.18444 2.43396L8.30412 1.73693C7.83803 1.65626 7.08365 1.45055 6.50018 0.929787C5.91671 1.45017 5.16233 1.65626 4.69624 1.73693L4.81553 2.43129L4.06153 2.56052L3.87456 1.47043C3.85621 1.36223 3.88489 1.25096 3.95409 1.1657C4.0233 1.08043 4.12577 1.02843 4.2355 1.02385C4.24774 1.02346 5.5573 0.953875 6.19965 0.137934C6.34456 -0.0459779 6.65541 -0.0459779 6.80033 0.137934C7.44727 0.95961 8.75109 1.02308 8.76447 1.02385C8.87421 1.02843 8.97668 1.08005 9.0455 1.1657C9.11509 1.25135 9.14377 1.36223 9.12503 1.47043L8.93806 2.5632Z" fill="#657785"/>
</svg>
