<svg width="20" height="19" viewBox="0 0 20 19" fill="none" xmlns="http://www.w3.org/2000/svg">
<g clip-path="url(#clip0_4157_13099)">
<path d="M18.9743 3.16699H1.02566C0.461523 3.16699 0 3.60544 0 4.14134V14.8593C0 15.3952 0.461523 15.8337 1.02566 15.8337H18.9744C19.5384 15.8337 20 15.3952 20 14.8593V4.14134C20 3.60544 19.5385 3.16699 18.9743 3.16699ZM18.5895 3.89771L10.59 9.59779C10.4462 9.70177 10.2254 9.76682 9.99996 9.76586C9.77457 9.76682 9.55383 9.70177 9.40996 9.59779L1.41051 3.89771H18.5895ZM14.3164 9.97389L18.6754 15.0893C18.6798 15.0944 18.6851 15.0983 18.6898 15.103H1.31023C1.31484 15.0981 1.32023 15.0944 1.32461 15.0893L5.68359 9.97389C5.81715 9.81703 5.79184 9.58706 5.62641 9.45989C5.46129 9.33301 5.21922 9.35706 5.08562 9.51396L0.769219 14.5794V4.35446L8.94867 10.1823C9.25613 10.3999 9.63019 10.4956 9.99992 10.4966C10.3691 10.4958 10.7435 10.4001 11.0512 10.1823L19.2306 4.35446V14.5793L14.9143 9.51396C14.7807 9.3571 14.5384 9.33297 14.3736 9.45989C14.2082 9.58677 14.1828 9.81703 14.3164 9.97389Z" fill="#657785"/>
</g>
<defs>
<clipPath id="clip0_4157_13099">
<rect width="20" height="19" fill="white"/>
</clipPath>
</defs>
</svg>
