<svg width="7" height="12" viewBox="0 0 7 12" fill="none" xmlns="http://www.w3.org/2000/svg">
<path d="M2.50127 5.99775L6.72963 1.53891C6.90285 1.36922 7 1.14023 7 0.901612C7 0.662995 6.90285 0.434001 6.72963 0.264313C6.64443 0.180596 6.54289 0.114117 6.43093 0.0687422C6.31896 0.023367 6.19879 0 6.07742 0C5.95605 0 5.83588 0.023367 5.72392 0.0687422C5.61195 0.114117 5.51041 0.180596 5.42521 0.264313L0.269425 5.3627C0.0967644 5.53267 0 5.76156 0 6C0 6.23844 0.0967644 6.46733 0.269425 6.6373L5.42521 11.7357C5.51041 11.8194 5.61195 11.8859 5.72392 11.9313C5.83588 11.9766 5.95605 12 6.07742 12C6.19879 12 6.31896 11.9766 6.43093 11.9313C6.54289 11.8859 6.64443 11.8194 6.72963 11.7357C6.90285 11.566 7 11.337 7 11.0984C7 10.8598 6.90285 10.6308 6.72963 10.4611L2.50127 5.99775Z" fill="#525252"/>
</svg>
