<svg width="14" height="20" viewBox="0 0 14 20" fill="none" xmlns="http://www.w3.org/2000/svg">
<path d="M12.8687 14.3279C12.6899 13.3848 12.0378 12.9984 11.665 12.852C11.6589 12.8496 11.6528 12.8474 11.6465 12.8455C11.5742 12.8231 9.5389 12.1911 9.29921 12.1167L8.56726 11.5957V11.1145C9.7476 10.4649 10.545 9.16439 10.545 7.6704V7.6163C11.1509 7.49845 11.607 7.00423 11.607 6.41403C11.607 6.09357 11.4724 5.80142 11.2525 5.58243V3.05501C11.2525 1.65189 10.0457 0.57837 8.72483 0.824034C6.93052 -0.591669 4.34893 -0.143895 3.09697 1.86497C3.01266 2.00032 3.04851 2.18196 3.17705 2.27079C3.3056 2.35954 3.47816 2.32177 3.56258 2.1865C4.18706 1.18435 5.23852 0.586104 6.3751 0.586104C7.15013 0.586104 7.8784 0.856105 8.48121 1.36685C8.5486 1.42396 8.63751 1.44485 8.72153 1.42333C9.73139 1.16501 10.6957 1.97325 10.6957 3.05501V5.24989C10.64 5.23259 10.5827 5.21841 10.524 5.2079C10.4824 5.01474 10.3736 4.84732 10.2917 4.77993L9.13426 3.83138C8.84941 3.59798 8.48214 3.56388 8.23762 3.68087C5.43341 4.82193 3.75277 4.82192 3.66935 4.8345C3.46001 4.8556 3.25372 4.98564 3.18707 5.20763C3.12785 5.21817 3.06999 5.23239 3.01381 5.24985C3.02932 4.30493 2.96931 3.94423 3.09408 3.35325C3.1274 3.19528 3.03285 3.03872 2.88274 3.00364C2.73263 2.96845 2.5839 3.0681 2.55061 3.2261C2.40399 3.9206 2.47613 4.33196 2.45706 5.58232C2.23718 5.8013 2.10262 6.09341 2.10262 6.41388C2.10262 7.00407 2.55866 7.49829 3.16451 7.61614V7.61919C3.16451 9.05052 3.90978 10.4028 5.13235 11.0974V11.6001L4.41176 12.113C4.35483 12.1307 2.05234 12.845 2.03453 12.8519C1.66177 12.9983 1.00972 13.3847 0.830812 14.3279L0.0195267 18.6161C0.0185248 18.6214 0.0176341 18.6267 0.0169291 18.6321C-0.0903912 19.4287 0.315697 20 1.14554 20H4.11139C4.26517 20 4.38979 19.8688 4.38979 19.707C4.38979 19.5451 4.26517 19.4139 4.11139 19.4139H3.10833V16.6519C3.10833 16.49 2.98371 16.3589 2.82993 16.3589C2.67615 16.3589 2.55154 16.49 2.55154 16.6519V19.4139H1.14546C0.765574 19.4139 0.560285 19.2795 0.55739 18.8797C0.555832 18.6803 0.547556 18.8788 1.37662 14.4426C1.50127 13.7854 1.95463 13.5109 2.22022 13.4046C2.315 13.3752 4.31119 12.7553 4.35253 12.7425L4.86289 14.2481C4.96309 14.5435 5.24854 14.6834 5.50396 14.6276L6.37755 15.4343C6.64548 15.6818 7.05149 15.6839 7.3218 15.4356L8.20118 14.6275C8.46369 14.685 8.74483 14.537 8.84276 14.248L9.35254 12.7443C9.61438 12.8256 10.9066 13.2268 11.4791 13.4046C11.7446 13.5109 12.198 13.7854 12.3227 14.4425C13.1656 18.9531 13.1495 18.6969 13.1413 18.9105C13.1279 19.2633 12.9523 19.4139 12.5539 19.4139H11.1578V16.6519C11.1578 16.49 11.0332 16.3589 10.8794 16.3589C10.7256 16.3589 10.601 16.49 10.601 16.6519V19.4139H5.41059C5.25681 19.4139 5.1322 19.5451 5.1322 19.707C5.1322 19.8688 5.25681 20 5.41059 20H12.5539C13.2417 20 13.6925 19.6017 13.6988 18.8842C13.6996 18.7703 13.7209 18.8846 12.8687 14.3279ZM10.545 5.81298C11.219 6.02384 11.2158 6.80528 10.545 7.01509V5.81298ZM3.1644 7.01509C2.49238 6.80485 2.49183 6.02345 3.1644 5.81298V7.01509ZM3.72119 7.61931C3.72119 7.35689 3.72119 5.69868 3.72119 5.41876C3.7249 5.41806 5.76012 5.35528 8.43905 4.22732L8.46061 4.21849C8.51464 4.20001 8.64657 4.17458 8.79218 4.29388L9.93348 5.22923C10.0126 5.33099 9.98829 5.26142 9.98829 7.6704C9.98829 8.9736 9.27338 10.1027 8.22601 10.638C8.15895 10.6514 7.0525 11.2664 5.76064 10.7574C4.54398 10.2695 3.72119 9.01001 3.72119 7.61931ZM8.01048 11.3617V11.6924L7.30042 13.4787L6.4078 13.4788C6.23386 13.0429 5.65214 11.5846 5.68899 11.6765V11.3533C6.45741 11.6272 7.27764 11.6144 8.01048 11.3617ZM5.39155 14.0537C5.38376 14.0533 5.40981 14.1095 4.8616 12.5003L5.29132 12.1945C5.44529 12.5819 5.80532 13.4876 5.87906 13.6731L5.39155 14.0537ZM6.95572 14.994C6.8956 15.0493 6.80487 15.0493 6.74486 14.9938L6.00215 14.3079L6.31524 14.0648H7.39379L7.70365 14.3068L6.95572 14.994ZM8.31793 14.0525C8.31295 14.0577 8.32175 14.0566 7.82678 13.6731C8.04591 13.1218 8.29592 12.4928 8.41452 12.1945L8.84421 12.5003L8.31793 14.0525Z" fill="#657785"/>
</svg>
