<svg width="12" height="12" viewBox="0 0 12 12" fill="none" xmlns="http://www.w3.org/2000/svg">
<g clip-path="url(#clip0_4157_13619)">
<path d="M6 0C3.519 0 1.5 2.033 1.5 4.5325C1.5 8.084 5.577 11.751 5.7505 11.905C5.822 11.9685 5.911 12 6 12C6.089 12 6.178 11.9685 6.2495 11.9055C6.423 11.751 10.5 8.084 10.5 4.5325C10.5 2.033 8.481 0 6 0ZM6 7C4.6215 7 3.5 5.8785 3.5 4.5C3.5 3.1215 4.6215 2 6 2C7.3785 2 8.5 3.1215 8.5 4.5C8.5 5.8785 7.3785 7 6 7Z" fill="#3C3ADD"/>
</g>
<defs>
<clipPath id="clip0_4157_13619">
<rect width="12" height="12" fill="white"/>
</clipPath>
</defs>
</svg>
