<svg width="18" height="20" viewBox="0 0 18 20" fill="none" xmlns="http://www.w3.org/2000/svg">
<path d="M13.3337 4.87194V7.94896C13.3337 8.0905 13.2189 8.20537 13.0773 8.20537H4.87194C4.7304 8.20537 4.61552 8.0905 4.61552 7.94896V4.87194C4.61552 4.7304 4.7304 4.61552 4.87194 4.61552H13.0773C13.2189 4.61552 13.3337 4.7304 13.3337 4.87194ZM17.9493 2.8206V17.18C17.9493 18.7359 16.6846 20.0006 15.1287 20.0006H2.8206C1.26465 20.0006 0 18.7359 0 17.18V2.8206C0 1.26465 1.26465 0 2.8206 0H15.1287C16.6846 0 17.9493 1.26465 17.9493 2.8206ZM10.7696 15.1287C10.7696 14.704 10.4249 14.3594 10.0003 14.3594H3.84627C3.42164 14.3594 3.07702 14.704 3.07702 15.1287C3.07702 15.5533 3.42164 15.8979 3.84627 15.8979H10.0003C10.4249 15.8979 10.7696 15.5533 10.7696 15.1287ZM14.8722 12.0516C14.8722 11.627 14.5276 11.2824 14.103 11.2824H3.84627C3.42164 11.2824 3.07702 11.627 3.07702 12.0516C3.07702 12.4763 3.42164 12.8209 3.84627 12.8209H14.103C14.5276 12.8209 14.8722 12.4763 14.8722 12.0516ZM14.8722 4.87194C14.8722 3.88217 14.0671 3.07701 13.0773 3.07701H4.87194C3.88217 3.07701 3.07702 3.88217 3.07702 4.87194V7.94896C3.07702 8.93873 3.88217 9.74388 4.87194 9.74388H13.0773C14.0671 9.74388 14.8722 8.93873 14.8722 7.94896V4.87194Z" fill="#BCBCBC"/>
</svg>
