<svg width="26" height="26" viewBox="0 0 26 26" fill="none" xmlns="http://www.w3.org/2000/svg">
<path d="M22.0564 11.8192L22.777 12.4261L23.4313 11.6491L19.9873 8.749V5.12322H17.6265V6.76092L13.0001 2.86523L2.56885 11.6491L3.22316 12.4261L3.94375 11.8192V22.1187H2.81793V23.1343H23.1822V22.1187H22.0564V11.8192ZM8.23146 21.6474V18.2626C8.12025 18.3901 7.95699 18.4706 7.77545 18.4706C7.44232 18.4706 7.17115 18.1996 7.17115 17.8663V15.3643C7.17115 14.6191 7.77748 14.0127 8.5227 14.0127H10.559C11.2915 14.0127 11.9106 14.6559 11.9106 15.4171V17.9193C11.9106 18.2527 11.6394 18.5236 11.306 18.5236C11.1242 18.5236 10.961 18.4429 10.8503 18.3154V21.685C10.8503 21.8026 10.8038 21.9128 10.7197 21.9953C10.6428 22.0704 10.5435 22.1136 10.4374 22.1187C10.4303 22.1189 10.4232 22.1192 10.4161 22.1192C10.4133 22.1192 10.4105 22.1192 10.4074 22.1189H8.65625C8.65447 22.1189 8.6527 22.1189 8.65092 22.1187C8.42697 22.1106 8.23146 21.8917 8.23146 21.6474ZM11.1354 11.7781C11.1354 12.6571 10.4201 13.3724 9.54086 13.3724C8.66158 13.3724 7.94633 12.6571 7.94633 11.7781C7.94633 10.8988 8.66158 10.1836 9.54086 10.1836C10.4201 10.1833 11.1354 10.8986 11.1354 11.7781ZM18.356 18.5528C18.1996 18.5869 18.0391 18.5577 17.9043 18.4711C17.8934 18.464 17.8829 18.4569 17.8728 18.4492L18.2702 20.2657C18.2864 20.3398 18.2684 20.4163 18.2206 20.4757C18.1973 20.5048 18.1677 20.5282 18.134 20.5443C18.1003 20.5604 18.0635 20.5687 18.0262 20.5686H17.2581V21.7071C17.2581 21.8178 17.2157 21.9206 17.1382 21.9963C17.0621 22.0707 16.96 22.1136 16.848 22.1187C16.8404 22.1189 16.833 22.1192 16.8254 22.1192C16.8219 22.1192 16.8186 22.1192 16.8153 22.1189H15.0641C15.0623 22.1189 15.0605 22.1189 15.0588 22.1187C14.8307 22.1108 14.6393 21.9064 14.6393 21.6695V20.5686H13.8705C13.7948 20.5686 13.724 20.5348 13.6762 20.4757C13.6528 20.4467 13.6362 20.4128 13.6277 20.3766C13.6191 20.3403 13.6188 20.3026 13.6267 20.2662L14.0218 18.4396C14.0078 18.4508 13.9931 18.4612 13.9776 18.4711C13.8796 18.534 13.7679 18.5668 13.6541 18.5668C13.6115 18.5668 13.5686 18.562 13.5259 18.5528C13.2027 18.4828 12.9968 18.1626 13.0666 17.8394L13.6709 15.053C13.735 14.7585 13.8976 14.4947 14.132 14.3052C14.3669 14.1163 14.6593 14.0131 14.9607 14.0127H16.9212C17.2218 14.0127 17.5161 14.1166 17.7499 14.3052C17.9842 14.4948 18.147 14.7585 18.2113 15.053L18.8153 17.8394C18.8854 18.1626 18.6792 18.483 18.356 18.5528ZM14.3542 11.7781C14.3542 10.8988 15.0694 10.1836 15.9487 10.1836C16.828 10.1836 17.5432 10.8988 17.5432 11.7781C17.5432 12.6571 16.828 13.3724 15.9487 13.3724C15.0694 13.3724 14.3542 12.6569 14.3542 11.7781Z" fill="#9C9FA2"/>
</svg>
