<svg width="50" height="50" viewBox="0 0 50 50" fill="none" xmlns="http://www.w3.org/2000/svg">
<path d="M28.125 6.25586V14.0621C28.125 16.4986 29.984 18.501 32.3611 18.7281L32.8125 18.7496H40.625V22.1377C42.3056 22.7317 43.5463 24.2568 43.7272 26.0932L43.75 26.5585V39.0684C43.75 41.5051 41.8909 43.5073 39.5139 43.7344L39.0625 43.7559H10.9375C8.50094 43.7559 6.4986 41.897 6.27146 39.5198L6.25 39.0684V26.5585C6.25 24.6745 7.36142 23.0501 8.96438 22.3052L9.375 22.1377V10.9434C9.375 8.50683 11.234 6.50446 13.6111 6.27732L14.0625 6.25586H28.125ZM39.0625 24.996H10.9375C10.0746 24.996 9.375 25.6955 9.375 26.5585V39.0683C9.375 39.9314 10.0746 40.6308 10.9375 40.6308H39.0625C39.9253 40.6308 40.625 39.9314 40.625 39.0683V26.5585C40.625 25.6955 39.9253 24.996 39.0625 24.996ZM16.6655 28.1341C18.6793 28.1341 20.3118 29.7666 20.3118 31.7805C20.3118 33.66 18.8897 35.2071 17.0628 35.4051L16.6655 35.4265H15.6243V35.9468C15.6243 36.8096 14.9247 37.5093 14.0618 37.5093C13.2947 37.5093 12.6567 36.9564 12.5244 36.2276L12.4992 35.9468V29.6966C12.4992 28.9296 13.052 28.2916 13.7809 28.1593L14.0618 28.1341H16.6655ZM24.9992 28.1341C27.588 28.1341 29.6867 30.2328 29.6867 32.8218C29.6867 35.2582 27.8276 37.2607 25.4506 37.4878L24.9992 37.5093H23.4322C22.6651 37.5093 22.0271 36.9564 21.8948 36.2276L21.8697 35.9468V29.6966C21.8697 28.9296 22.4224 28.2916 23.1513 28.1593L23.4322 28.1341H24.9992ZM35.9338 28.1341C36.7966 28.1341 37.4963 28.8337 37.4963 29.6966C37.4963 30.5595 36.7966 31.2593 35.9338 31.2593H34.3744L34.3731 32.3043H35.9338C36.7966 32.3043 37.4963 33.004 37.4963 33.8668C37.4963 34.7299 36.7966 35.4293 35.9338 35.4293H34.375L34.3766 35.9427C34.3787 36.8055 33.6809 37.5071 32.8178 37.509C31.955 37.5111 31.2537 36.8136 31.2516 35.9505L31.2462 33.8649L31.2516 29.6946C31.2525 28.8325 31.9519 28.1341 32.8141 28.1341H35.9338ZM24.9992 31.2593L24.9947 34.3843C25.8621 34.3843 26.5617 33.6846 26.5617 32.8218C26.5617 31.9586 25.8621 31.2593 24.9992 31.2593ZM16.6655 31.2593H15.6243V32.3015H16.6655C16.9534 32.3015 17.1868 32.0683 17.1868 31.7805C17.1868 31.55 17.0374 31.3547 16.8303 31.2858L16.6655 31.2593ZM31.25 7.17933L39.705 15.6246H32.8125C31.9497 15.6246 31.25 14.925 31.25 14.0621V7.17933Z" fill="white"/>
</svg>
