<svg width="22" height="16" viewBox="0 0 22 16" fill="none" xmlns="http://www.w3.org/2000/svg">
<path d="M18.8907 0H3.111C2.28638 0.00120262 1.49587 0.32901 0.91272 0.911578C0.329572 1.49415 0.00135441 2.28395 0 3.10791V12.8915C0.00105382 13.7156 0.329157 14.5057 0.912354 15.0884C1.49555 15.6711 2.28623 15.9989 3.111 16H18.8907C19.7152 15.9986 20.5056 15.6707 21.0884 15.088C21.6713 14.5052 21.9991 13.7154 22 12.8915V3.10791C21.9988 2.2842 21.6709 1.49457 21.088 0.912014C20.5052 0.329462 19.7151 0.0015036 18.8907 0ZM17.9337 4.39723L12.2915 7.99176C11.9057 8.23647 11.4581 8.36641 11.0011 8.36641C10.5441 8.36641 10.0966 8.23647 9.71077 7.99176L4.06853 4.39723C3.98978 4.34714 3.92168 4.28203 3.86811 4.20564C3.81454 4.12925 3.77655 4.04306 3.75632 3.952C3.73608 3.86094 3.734 3.76679 3.75018 3.67493C3.76636 3.58306 3.80049 3.49528 3.85063 3.41659C3.90076 3.33791 3.96591 3.26986 4.04237 3.21633C4.11882 3.16281 4.20508 3.12485 4.29621 3.10463C4.38735 3.08441 4.48157 3.08233 4.57351 3.0985C4.66545 3.11467 4.75331 3.14877 4.83206 3.19886L10.4743 6.79339C10.6318 6.89312 10.8144 6.94606 11.0009 6.94606C11.1873 6.94606 11.3699 6.89312 11.5274 6.79339L17.1696 3.19886C17.3286 3.10224 17.5191 3.07171 17.7004 3.11383C17.8816 3.15595 18.0391 3.26735 18.1391 3.42414C18.239 3.58094 18.2735 3.77064 18.2351 3.95255C18.1968 4.13447 18.0886 4.2941 17.9337 4.39723Z" fill="#9C9FA2"/>
</svg>
