<svg width="21" height="21" viewBox="0 0 21 21" fill="none" xmlns="http://www.w3.org/2000/svg">
<path d="M11.375 11.375H14C15.1603 11.375 16.2731 11.8359 17.0936 12.6564C17.9141 13.4769 18.375 14.5897 18.375 15.75V16.625C18.375 16.625 17.0187 18.0512 13.125 18.375" stroke="#3C3ADD" stroke-width="1.5" stroke-linecap="round" stroke-linejoin="round"/>
<path d="M11.3753 2.625C12.2406 2.625 13.0864 2.88159 13.8059 3.36232C14.5254 3.84305 15.0861 4.52633 15.4173 5.32576C15.7484 6.12519 15.835 7.00485 15.6662 7.85352C15.4974 8.70219 15.0807 9.48174 14.4689 10.0936C13.857 10.7054 13.0775 11.1221 12.2288 11.2909C11.3801 11.4597 10.5005 11.3731 9.70104 11.042C8.90161 10.7108 8.21833 10.1501 7.7376 9.43062C7.25687 8.71115 7.00028 7.86529 7.00028 7C7.00028 5.83968 7.46122 4.72688 8.28169 3.90641C9.10216 3.08594 10.215 2.625 11.3753 2.625V2.625ZM2.87903 14.0788L7.17528 18.375H9.62528V15.925L5.32903 11.6287C5.16547 11.4684 4.94556 11.3786 4.71653 11.3786C4.4875 11.3786 4.26759 11.4684 4.10403 11.6287L2.87903 12.8537C2.71871 13.0173 2.62891 13.2372 2.62891 13.4663C2.62891 13.6953 2.71871 13.9152 2.87903 14.0788V14.0788Z" stroke="#3C3ADD" stroke-width="1.5" stroke-linecap="round" stroke-linejoin="round"/>
</svg>
