<svg width="19" height="19" viewBox="0 0 19 19" fill="none" xmlns="http://www.w3.org/2000/svg">
<path d="M9.5 9.50024C9.75196 9.50024 9.99359 9.40015 10.1718 9.22199C10.3499 9.04383 10.45 8.8022 10.45 8.55024C10.45 8.14491 9.96867 7.40391 9.75967 7.10307C9.73048 7.06127 9.69164 7.02712 9.64643 7.00354C9.60122 6.97997 9.55099 6.96766 9.5 6.96766C9.44901 6.96766 9.39878 6.97997 9.35357 7.00354C9.30836 7.02712 9.26952 7.06127 9.24033 7.10307C9.03133 7.40391 8.55 8.14491 8.55 8.55024C8.55 8.8022 8.65009 9.04383 8.82825 9.22199C9.00641 9.40015 9.24804 9.50024 9.5 9.50024ZM9.5 7.86941C9.64108 8.07807 9.74798 8.3079 9.81667 8.55024C9.81667 8.63423 9.7833 8.71477 9.72392 8.77416C9.66453 8.83354 9.58399 8.86691 9.5 8.86691C9.41601 8.86691 9.33547 8.83354 9.27608 8.77416C9.2167 8.71477 9.18333 8.63423 9.18333 8.55024C9.25262 8.30813 9.35947 8.07839 9.5 7.86941Z" fill="#657785"/>
<path d="M6.33333 9.50024C6.58529 9.50024 6.82693 9.40015 7.00508 9.22199C7.18324 9.04383 7.28333 8.8022 7.28333 8.55024C7.28333 8.14491 6.802 7.40391 6.593 7.10307C6.56382 7.06127 6.52497 7.02712 6.47976 7.00354C6.43455 6.97997 6.38432 6.96766 6.33333 6.96766C6.28235 6.96766 6.23211 6.97997 6.18691 7.00354C6.1417 7.02712 6.10285 7.06127 6.07367 7.10307C5.86467 7.40391 5.38333 8.14491 5.38333 8.55024C5.38333 8.8022 5.48342 9.04383 5.66158 9.22199C5.83974 9.40015 6.08138 9.50024 6.33333 9.50024ZM6.33333 7.86941C6.47442 8.07807 6.58132 8.3079 6.65 8.55024C6.65 8.63423 6.61664 8.71477 6.55725 8.77416C6.49786 8.83354 6.41732 8.86691 6.33333 8.86691C6.24935 8.86691 6.1688 8.83354 6.10942 8.77416C6.05003 8.71477 6.01667 8.63423 6.01667 8.55024C6.08595 8.30813 6.19281 8.07839 6.33333 7.86941Z" fill="#657785"/>
<path d="M5.38333 11.7167H4.75C4.49804 11.7167 4.25641 11.8168 4.07825 11.9949C3.90009 12.1731 3.8 12.4147 3.8 12.6667V16.7833C3.8 16.8673 3.83336 16.9479 3.89275 17.0073C3.95214 17.0666 4.03268 17.1 4.11667 17.1H14.8833C14.9673 17.1 15.0479 17.0666 15.1073 17.0073C15.1666 16.9479 15.2 16.8673 15.2 16.7833V12.6667C15.2 12.4147 15.0999 12.1731 14.9218 11.9949C14.7436 11.8168 14.502 11.7167 14.25 11.7167H13.6167V10.1333C13.6167 10.0493 13.5833 9.9688 13.5239 9.90942C13.4645 9.85003 13.384 9.81667 13.3 9.81667H12.0333C11.9493 9.81667 11.8688 9.85003 11.8094 9.90942C11.75 9.9688 11.7167 10.0493 11.7167 10.1333V11.7167H10.45V10.1333C10.45 10.0493 10.4166 9.9688 10.3573 9.90942C10.2979 9.85003 10.2173 9.81667 10.1333 9.81667H8.86667C8.78268 9.81667 8.70214 9.85003 8.64275 9.90942C8.58336 9.9688 8.55 10.0493 8.55 10.1333V11.7167H7.28333V10.1333C7.28333 10.0493 7.24997 9.9688 7.19058 9.90942C7.1312 9.85003 7.05065 9.81667 6.96667 9.81667H5.7C5.61601 9.81667 5.53547 9.85003 5.47608 9.90942C5.4167 9.9688 5.38333 10.0493 5.38333 10.1333V11.7167ZM14.5667 16.4667H4.43333V14.25C4.61067 14.25 4.68667 14.3197 4.84183 14.4748C4.94545 14.6025 5.07626 14.7055 5.22472 14.7762C5.37318 14.8469 5.53556 14.8836 5.7 14.8836C5.86444 14.8836 6.02682 14.8469 6.17528 14.7762C6.32374 14.7055 6.45455 14.6025 6.55817 14.4748C6.71333 14.3197 6.78933 14.25 6.96667 14.25C7.144 14.25 7.22 14.3197 7.37517 14.4748C7.47879 14.6025 7.60959 14.7055 7.75806 14.7762C7.90652 14.8469 8.06889 14.8836 8.23333 14.8836C8.39778 14.8836 8.56015 14.8469 8.70861 14.7762C8.85707 14.7055 8.98788 14.6025 9.0915 14.4748C9.24667 14.3197 9.32267 14.25 9.5 14.25C9.67733 14.25 9.75333 14.3197 9.9085 14.4748C10.0121 14.6025 10.1429 14.7055 10.2914 14.7762C10.4399 14.8469 10.6022 14.8836 10.7667 14.8836C10.9311 14.8836 11.0935 14.8469 11.2419 14.7762C11.3904 14.7055 11.5212 14.6025 11.6248 14.4748C11.78 14.3197 11.856 14.25 12.0333 14.25C12.2107 14.25 12.2867 14.3197 12.4418 14.4748C12.5455 14.6025 12.6763 14.7055 12.8247 14.7762C12.9732 14.8469 13.1356 14.8836 13.3 14.8836C13.4644 14.8836 13.6268 14.8469 13.7753 14.7762C13.9237 14.7055 14.0545 14.6025 14.1582 14.4748C14.3133 14.3197 14.3893 14.25 14.5667 14.25V16.4667ZM14.5667 12.6667V13.6167C14.4027 13.619 14.2411 13.6567 14.093 13.7272C13.9449 13.7977 13.8137 13.8993 13.7085 14.0252C13.5533 14.1803 13.4773 14.25 13.3 14.25C13.1227 14.25 13.0467 14.1803 12.8915 14.0252C12.7879 13.8975 12.6571 13.7945 12.5086 13.7238C12.3601 13.6531 12.1978 13.6164 12.0333 13.6164C11.8689 13.6164 11.7065 13.6531 11.5581 13.7238C11.4096 13.7945 11.2788 13.8975 11.1752 14.0252C11.02 14.1803 10.944 14.25 10.7667 14.25C10.5893 14.25 10.5133 14.1803 10.3582 14.0252C10.2545 13.8975 10.1237 13.7945 9.97528 13.7238C9.82682 13.6531 9.66444 13.6164 9.5 13.6164C9.33556 13.6164 9.17318 13.6531 9.02472 13.7238C8.87626 13.7945 8.74545 13.8975 8.64183 14.0252C8.48667 14.1803 8.41067 14.25 8.23333 14.25C8.056 14.25 7.98 14.1803 7.82483 14.0252C7.72121 13.8975 7.59041 13.7945 7.44194 13.7238C7.29348 13.6531 7.13111 13.6164 6.96667 13.6164C6.80222 13.6164 6.63985 13.6531 6.49139 13.7238C6.34293 13.7945 6.21212 13.8975 6.1085 14.0252C5.95333 14.1803 5.87733 14.25 5.7 14.25C5.52267 14.25 5.44667 14.1803 5.2915 14.0252C5.18627 13.8993 5.05512 13.7977 4.90702 13.7272C4.75891 13.6567 4.59734 13.619 4.43333 13.6167V12.6667C4.43333 12.5827 4.4667 12.5021 4.52608 12.4427C4.58547 12.3834 4.66601 12.35 4.75 12.35H14.25C14.334 12.35 14.4145 12.3834 14.4739 12.4427C14.5333 12.5021 14.5667 12.5827 14.5667 12.6667ZM12.35 10.45H12.9833V11.7167H12.35V10.45ZM9.18333 10.45H9.81667V11.7167H9.18333V10.45ZM6.65 10.45V11.7167H6.01667V10.45H6.65Z" fill="#657785"/>
<path d="M12.6667 9.50024C12.9186 9.50024 13.1603 9.40015 13.3384 9.22199C13.5166 9.04383 13.6167 8.8022 13.6167 8.55024C13.6167 8.14491 13.1353 7.40391 12.9263 7.10307C12.8972 7.06127 12.8583 7.02712 12.8131 7.00354C12.7679 6.97997 12.7177 6.96766 12.6667 6.96766C12.6157 6.96766 12.5654 6.97997 12.5202 7.00354C12.475 7.02712 12.4362 7.06127 12.407 7.10307C12.198 7.40391 11.7167 8.14491 11.7167 8.55024C11.7167 8.8022 11.8168 9.04383 11.9949 9.22199C12.1731 9.40015 12.4147 9.50024 12.6667 9.50024ZM12.6667 7.86941C12.8078 8.07807 12.9146 8.3079 12.9833 8.55024C12.9833 8.63423 12.95 8.71477 12.8906 8.77416C12.8312 8.83354 12.7507 8.86691 12.6667 8.86691C12.5827 8.86691 12.5021 8.83354 12.4427 8.77416C12.3834 8.71477 12.35 8.63423 12.35 8.55024C12.4193 8.30813 12.5261 8.07839 12.6667 7.86941Z" fill="#657785"/>
<path d="M18.05 1.58333H16.15V0.95C16.15 0.698044 16.0499 0.456408 15.8718 0.278249C15.6936 0.100089 15.452 7.54992e-08 15.2 7.54992e-08C14.948 7.54992e-08 14.7064 0.100089 14.5282 0.278249C14.3501 0.456408 14.25 0.698044 14.25 0.95V1.58333H12.35V0.95C12.35 0.698044 12.2499 0.456408 12.0718 0.278249C11.8936 0.100089 11.652 0 11.4 0C11.148 0 10.9064 0.100089 10.7282 0.278249C10.5501 0.456408 10.45 0.698044 10.45 0.95V1.58333H8.55V0.95C8.55 0.698044 8.44991 0.456408 8.27175 0.278249C8.09359 0.100089 7.85196 0 7.6 0C7.34804 0 7.10641 0.100089 6.92825 0.278249C6.75009 0.456408 6.65 0.698044 6.65 0.95V1.58333H4.75V0.95C4.75 0.698044 4.64991 0.456408 4.47175 0.278249C4.29359 0.100089 4.05196 0 3.8 0C3.54804 0 3.30641 0.100089 3.12825 0.278249C2.95009 0.456408 2.85 0.698044 2.85 0.95V1.58333H0.95C0.698044 1.58333 0.456408 1.68342 0.278249 1.86158C0.100089 2.03974 0 2.28138 0 2.53333V7.28333C0 7.36732 0.033363 7.44786 0.0927495 7.50725C0.152136 7.56664 0.232681 7.6 0.316667 7.6C0.400652 7.6 0.481197 7.56664 0.540584 7.50725C0.59997 7.44786 0.633333 7.36732 0.633333 7.28333V5.7H18.3667V15.5167C18.3667 15.6007 18.4 15.6812 18.4594 15.7406C18.5188 15.8 18.5993 15.8333 18.6833 15.8333C18.7673 15.8333 18.8479 15.8 18.9072 15.7406C18.9666 15.6812 19 15.6007 19 15.5167V2.53333C19 2.28138 18.8999 2.03974 18.7218 1.86158C18.5436 1.68342 18.302 1.58333 18.05 1.58333ZM14.8833 0.95C14.8833 0.866015 14.9167 0.785469 14.9761 0.726083C15.0355 0.666696 15.116 0.633333 15.2 0.633333C15.284 0.633333 15.3645 0.666696 15.4239 0.726083C15.4833 0.785469 15.5167 0.866015 15.5167 0.95V2.85C15.5167 2.93399 15.4833 3.01453 15.4239 3.07392C15.3645 3.1333 15.284 3.16667 15.2 3.16667C15.116 3.16667 15.0355 3.1333 14.9761 3.07392C14.9167 3.01453 14.8833 2.93399 14.8833 2.85V0.95ZM11.0833 0.95C11.0833 0.866015 11.1167 0.785469 11.1761 0.726083C11.2355 0.666696 11.316 0.633333 11.4 0.633333C11.484 0.633333 11.5645 0.666696 11.6239 0.726083C11.6833 0.785469 11.7167 0.866015 11.7167 0.95V2.85C11.7167 2.93399 11.6833 3.01453 11.6239 3.07392C11.5645 3.1333 11.484 3.16667 11.4 3.16667C11.316 3.16667 11.2355 3.1333 11.1761 3.07392C11.1167 3.01453 11.0833 2.93399 11.0833 2.85V0.95ZM7.28333 0.95C7.28333 0.866015 7.3167 0.785469 7.37608 0.726083C7.43547 0.666696 7.51601 0.633333 7.6 0.633333C7.68399 0.633333 7.76453 0.666696 7.82392 0.726083C7.8833 0.785469 7.91667 0.866015 7.91667 0.95V2.85C7.91667 2.93399 7.8833 3.01453 7.82392 3.07392C7.76453 3.1333 7.68399 3.16667 7.6 3.16667C7.51601 3.16667 7.43547 3.1333 7.37608 3.07392C7.3167 3.01453 7.28333 2.93399 7.28333 2.85V0.95ZM3.48333 0.95C3.48333 0.866015 3.5167 0.785469 3.57608 0.726083C3.63547 0.666696 3.71601 0.633333 3.8 0.633333C3.88399 0.633333 3.96453 0.666696 4.02392 0.726083C4.0833 0.785469 4.11667 0.866015 4.11667 0.95V2.85C4.11667 2.93399 4.0833 3.01453 4.02392 3.07392C3.96453 3.1333 3.88399 3.16667 3.8 3.16667C3.71601 3.16667 3.63547 3.1333 3.57608 3.07392C3.5167 3.01453 3.48333 2.93399 3.48333 2.85V0.95ZM0.633333 5.06667V2.53333C0.633333 2.44935 0.666696 2.3688 0.726083 2.30942C0.785469 2.25003 0.866015 2.21667 0.95 2.21667H2.85V2.85C2.85 3.10196 2.95009 3.34359 3.12825 3.52175C3.30641 3.69991 3.54804 3.8 3.8 3.8C4.05196 3.8 4.29359 3.69991 4.47175 3.52175C4.64991 3.34359 4.75 3.10196 4.75 2.85V2.21667H6.65V2.85C6.65 3.10196 6.75009 3.34359 6.92825 3.52175C7.10641 3.69991 7.34804 3.8 7.6 3.8C7.85196 3.8 8.09359 3.69991 8.27175 3.52175C8.44991 3.34359 8.55 3.10196 8.55 2.85V2.21667H10.45V2.85C10.45 3.10196 10.5501 3.34359 10.7282 3.52175C10.9064 3.69991 11.148 3.8 11.4 3.8C11.652 3.8 11.8936 3.69991 12.0718 3.52175C12.2499 3.34359 12.35 3.10196 12.35 2.85V2.21667H14.25V2.85C14.25 3.10196 14.3501 3.34359 14.5282 3.52175C14.7064 3.69991 14.948 3.8 15.2 3.8C15.452 3.8 15.6936 3.69991 15.8718 3.52175C16.0499 3.34359 16.15 3.10196 16.15 2.85V2.21667H18.05C18.134 2.21667 18.2145 2.25003 18.2739 2.30942C18.3333 2.3688 18.3667 2.44935 18.3667 2.53333V5.06667H0.633333Z" fill="#657785"/>
<path d="M18.6833 16.4667C18.5993 16.4667 18.5188 16.5 18.4594 16.5594C18.4 16.6188 18.3667 16.6993 18.3667 16.7833V18.05C18.3667 18.134 18.3333 18.2145 18.2739 18.2739C18.2145 18.3333 18.134 18.3667 18.05 18.3667H0.95C0.866015 18.3667 0.785469 18.3333 0.726083 18.2739C0.666696 18.2145 0.633333 18.134 0.633333 18.05V8.55C0.633333 8.46601 0.59997 8.38547 0.540584 8.32608C0.481197 8.2667 0.400652 8.23333 0.316667 8.23333C0.232681 8.23333 0.152136 8.2667 0.0927495 8.32608C0.033363 8.38547 0 8.46601 0 8.55V18.05C0 18.302 0.100089 18.5436 0.278249 18.7218C0.456408 18.8999 0.698044 19 0.95 19H18.05C18.302 19 18.5436 18.8999 18.7218 18.7218C18.8999 18.5436 19 18.302 19 18.05V16.7833C19 16.6993 18.9666 16.6188 18.9072 16.5594C18.8479 16.5 18.7673 16.4667 18.6833 16.4667Z" fill="#657785"/>
</svg>
