<svg width="17" height="21" viewBox="0 0 17 21" fill="none" xmlns="http://www.w3.org/2000/svg">
<path d="M8.47317 8.21843C10.6418 8.21843 12.3999 6.46038 12.3999 4.29173C12.3999 2.12307 10.6418 0.365022 8.47317 0.365022C6.30451 0.365022 4.54647 2.12307 4.54647 4.29173C4.54647 6.46038 6.30451 8.21843 8.47317 8.21843Z" stroke="#657785" stroke-width="0.7" stroke-miterlimit="10" stroke-linecap="round" stroke-linejoin="round"/>
<path d="M12.3159 5.10281C12.4585 5.18846 12.6253 5.23781 12.8037 5.23781C13.3277 5.23781 13.7525 4.81303 13.7525 4.28903C13.7525 3.76503 13.3277 3.34026 12.8037 3.34026C12.6249 3.34026 12.4577 3.38981 12.3149 3.47579" stroke="#657785" stroke-width="0.7" stroke-miterlimit="10" stroke-linecap="round" stroke-linejoin="round"/>
<path d="M4.63277 3.46681C4.49345 3.38647 4.33194 3.34026 4.15954 3.34026C3.63554 3.34026 3.21077 3.76503 3.21077 4.28903C3.21077 4.81303 3.63554 5.23781 4.15954 5.23781C4.33153 5.23781 4.49267 5.1918 4.63179 5.11178" stroke="#657785" stroke-width="0.7" stroke-miterlimit="10" stroke-linecap="round" stroke-linejoin="round"/>
<path d="M6.15644 4.55564V5.00048" stroke="#657785" stroke-width="0.7" stroke-miterlimit="10" stroke-linecap="round" stroke-linejoin="round"/>
<path d="M10.7865 4.55564V5.00048" stroke="#657785" stroke-width="0.7" stroke-miterlimit="10" stroke-linecap="round" stroke-linejoin="round"/>
<path d="M7.86124 4.98796C8.00965 5.15823 8.22793 5.26599 8.47154 5.26599C8.71514 5.26599 8.93346 5.15823 9.08184 4.98796" stroke="#657785" stroke-width="0.7" stroke-miterlimit="10" stroke-linecap="round" stroke-linejoin="round"/>
<path d="M9.20158 1.97022C9.3201 2.18797 9.34657 2.45417 9.25182 2.70422C9.07939 3.1595 8.57048 3.38875 8.11524 3.21632C7.66 3.04388 7.43381 2.55618 7.51742 2.07659C7.63435 1.40601 8.16757 0.805822 8.55751 0.365022" stroke="#657785" stroke-width="0.7" stroke-miterlimit="10" stroke-linecap="round" stroke-linejoin="round"/>
<path d="M7.61685 16.5674V14.9253H6.82963C6.47191 14.9253 6.18193 14.6354 6.18193 14.2776V13.8429C6.18193 13.4851 6.47191 13.1952 6.82963 13.1952H7.61685V12.4079C7.61685 12.0502 7.90683 11.7602 8.26455 11.7602H8.69932C9.05704 11.7602 9.34702 12.0502 9.34702 12.4079V13.1952H10.1342C10.492 13.1952 10.7819 13.4851 10.7819 13.8429V14.2776C10.7819 14.6354 10.492 14.9253 10.1342 14.9253H9.34702V16.5674C9.34702 16.9251 9.05704 17.2151 8.69932 17.2151H8.26455C7.90687 17.2151 7.61685 16.9251 7.61685 16.5674Z" stroke="#657785" stroke-width="0.7" stroke-miterlimit="10" stroke-linecap="round" stroke-linejoin="round"/>
<path d="M2.02569 9.99121H1.24148C0.757452 9.99121 0.365022 10.3836 0.365022 10.8677C0.365022 15.3504 3.99897 18.9843 8.48165 18.9843C12.9643 18.9843 16.5983 15.3504 16.5983 10.8677C16.5983 10.3836 16.2059 9.99121 15.7218 9.99121H3.4545" stroke="#657785" stroke-width="0.7" stroke-miterlimit="10" stroke-linecap="round" stroke-linejoin="round"/>
<path d="M11.5013 20.6348H12.3203C13.022 20.6348 13.5908 20.066 13.5908 19.3643V17.1744" stroke="#657785" stroke-width="0.7" stroke-miterlimit="10" stroke-linecap="round" stroke-linejoin="round"/>
<path d="M3.37289 17.1744V19.3643C3.37289 20.066 3.94171 20.6348 4.64341 20.6348H10.0721" stroke="#657785" stroke-width="0.7" stroke-miterlimit="10" stroke-linecap="round" stroke-linejoin="round"/>
<path d="M6.54483 7.71339C5.65046 8.18005 4.97063 9.00145 4.69329 9.99154" stroke="#657785" stroke-width="0.7" stroke-miterlimit="10" stroke-linecap="round" stroke-linejoin="round"/>
<path d="M12.2699 9.99117C11.9917 8.99774 11.3081 8.17409 10.4093 7.70829" stroke="#657785" stroke-width="0.7" stroke-miterlimit="10" stroke-linecap="round" stroke-linejoin="round"/>
</svg>
