<svg width="18" height="19" viewBox="0 0 18 19" fill="none" xmlns="http://www.w3.org/2000/svg">
<g clip-path="url(#clip0_4157_12905)">
<path d="M4.21875 13.3031V15.623H2.63672C2.34524 15.623 2.10938 15.872 2.10938 16.1797C2.10938 16.4874 2.34524 16.7363 2.63672 16.7363H4.21875V18.4434C4.21875 18.751 4.45461 19 4.74609 19C5.03757 19 5.27344 18.751 5.27344 18.4434V16.7363H6.85547C7.14695 16.7363 7.38281 16.4874 7.38281 16.1797C7.38281 15.872 7.14695 15.623 6.85547 15.623H5.27344V13.3053C5.63214 13.2568 5.98243 13.1799 6.31455 13.0561C6.01186 12.7902 5.73725 12.4908 5.49109 12.1661C5.25034 12.2184 5.00126 12.2461 4.74609 12.2461C2.71086 12.2461 1.05469 10.4979 1.05469 8.34961C1.05469 6.20131 2.71086 4.45312 4.74609 4.45312C6.84942 4.45312 8.4375 6.34685 8.4375 8.34961C8.4375 8.99438 8.27406 9.59396 8.01018 10.1302C8.24069 10.4196 8.52258 10.6571 8.84549 10.8284C9.24557 10.0943 9.49219 9.25556 9.49219 8.34961C9.49219 5.76769 7.48055 3.33984 4.74609 3.33984C2.12896 3.33984 0 5.58708 0 8.34961C0 10.9215 1.85221 13.0221 4.21875 13.3031Z" fill="#657785"/>
<path d="M17.4727 0H14.3086C14.0171 0 13.7812 0.248967 13.7812 0.556641C13.7812 0.864314 14.0171 1.11328 14.3086 1.11328H16.1996L12.9655 4.45287C12.1535 3.76723 11.138 3.33984 10.0195 3.33984C9.46716 3.33984 8.94456 3.45915 8.45107 3.6431C8.75377 3.90906 9.02837 4.20839 9.27453 4.5331C9.51529 4.48077 9.76437 4.45312 10.0195 4.45312C12.0548 4.45312 13.7109 6.20131 13.7109 8.34961C13.7109 10.4979 12.0548 12.2461 10.0195 12.2461C7.93044 12.2461 6.32812 10.3731 6.32812 8.34961C6.32812 7.70483 6.49157 7.10526 6.75545 6.56899C6.52493 6.27961 6.24305 6.04211 5.92014 5.87081C5.52006 6.60488 5.27344 7.44366 5.27344 8.34961C5.27344 10.9567 7.33911 13.3594 10.0195 13.3594C12.6367 13.3594 14.7656 11.1121 14.7656 8.34961C14.7656 7.16905 14.3607 6.09711 13.7112 5.23999L16.9453 1.90041V3.89648C16.9453 4.20416 17.1812 4.45312 17.4727 4.45312C17.7641 4.45312 18 4.20416 18 3.89648V0.556641C18 0.252084 17.7635 0 17.4727 0Z" fill="#657785"/>
</g>
<defs>
<clipPath id="clip0_4157_12905">
<rect width="18" height="19" fill="white"/>
</clipPath>
</defs>
</svg>
