<svg width="20" height="21" viewBox="0 0 20 21" fill="none" xmlns="http://www.w3.org/2000/svg">
<mask id="mask0_4182_645" style="mask-type:luminance" maskUnits="userSpaceOnUse" x="-2" y="0" width="22" height="21">
<path d="M-1.04883 3.8147e-06H19.9512V21H-1.04883V3.8147e-06Z" fill="white"/>
</mask>
<g mask="url(#mask0_4182_645)">
<path d="M2.60205 13.7169C3.763 13.7169 4.7041 14.6581 4.7041 15.819V16.5444C4.7041 17.0588 4.8221 17.5664 5.04904 18.0279C5.50953 18.9646 5.06483 20.0944 4.08944 20.4659C3.3489 20.7479 2.51116 20.504 2.03772 19.8686C1.26732 18.8346 0.5 17.1083 0.5 15.819C0.5 14.6581 1.4411 13.7169 2.60205 13.7169Z" stroke="#657785" stroke-miterlimit="10" stroke-linecap="round" stroke-linejoin="round"/>
<path d="M19.541 4.91016C19.541 5.36321 19.1738 5.73047 18.7207 5.73047C18.2676 5.73047 17.9004 5.36321 17.9004 4.91016C17.9004 4.4571 18.2676 4.08984 18.7207 4.08984C19.1738 4.08984 19.541 4.4571 19.541 4.91016Z" stroke="#657785" stroke-miterlimit="10" stroke-linecap="round" stroke-linejoin="round"/>
<path d="M17.4121 2.45313C17.4121 2.90618 17.0449 3.27344 16.5918 3.27344C16.1387 3.27344 15.7715 2.90618 15.7715 2.45313C15.7715 2.00007 16.1387 1.63281 16.5918 1.63281C17.0449 1.63281 17.4121 2.00007 17.4121 2.45313Z" stroke="#657785" stroke-miterlimit="10" stroke-linecap="round" stroke-linejoin="round"/>
<path d="M14.1865 1.37695C14.1865 1.83001 13.8193 2.19727 13.3662 2.19727C12.9132 2.19727 12.5459 1.83001 12.5459 1.37695C12.5459 0.923895 12.9132 0.556641 13.3662 0.556641C13.8193 0.556641 14.1865 0.923895 14.1865 1.37695Z" stroke="#657785" stroke-miterlimit="10" stroke-linecap="round" stroke-linejoin="round"/>
<path d="M10.7368 1.24023C10.7368 1.69329 10.3696 2.06055 9.9165 2.06055C9.46345 2.06055 9.09619 1.69329 9.09619 1.24023C9.09619 0.787176 9.46345 0.419922 9.9165 0.419922C10.3696 0.419922 10.7368 0.787176 10.7368 1.24023Z" stroke="#657785" stroke-miterlimit="10" stroke-linecap="round" stroke-linejoin="round"/>
<path d="M7.96107 4.26871C7.96107 5.05334 7.325 5.68945 6.54033 5.68945C5.7557 5.68945 5.11963 5.05334 5.11963 4.26871C5.11963 3.48408 5.7557 2.84797 6.54033 2.84797C7.325 2.84797 7.96107 3.48408 7.96107 4.26871Z" stroke="#657785" stroke-miterlimit="10" stroke-linecap="round" stroke-linejoin="round"/>
<path d="M17.5737 12.5214C17.6655 11.6576 17.7115 10.7891 17.7115 9.91953C17.7115 7.15323 15.4689 4.9107 12.7026 4.9107C9.90185 4.9107 7.63135 7.1812 7.63135 9.982C7.63135 10.8842 7.87203 11.77 8.32853 12.5481L8.78253 13.322C9.26455 14.1437 9.51868 15.079 9.51868 16.0316V16.9543C9.51868 18.9578 11.1429 20.582 13.1464 20.582C14.8985 20.582 16.4003 19.3298 16.7151 17.6062L16.9787 16.1636" stroke="#657785" stroke-miterlimit="10" stroke-linecap="round" stroke-linejoin="round"/>
</g>
</svg>
