<svg width="7" height="12" viewBox="0 0 7 12" fill="none" xmlns="http://www.w3.org/2000/svg">
<path d="M4.49873 6.00225L0.270365 10.4611C0.0971484 10.6308 0 10.8598 0 11.0984C0 11.337 0.0971484 11.566 0.270365 11.7357C0.35557 11.8194 0.457107 11.8859 0.569074 11.9313C0.681042 11.9766 0.801205 12 0.922579 12C1.04395 12 1.16412 11.9766 1.27608 11.9313C1.38805 11.8859 1.48959 11.8194 1.57479 11.7357L6.73058 6.6373C6.90324 6.46733 7 6.23844 7 6C7 5.76156 6.90324 5.53267 6.73058 5.3627L1.57479 0.264314C1.48959 0.180596 1.38805 0.114119 1.27608 0.0687428C1.16412 0.0233679 1.04395 0 0.922579 0C0.801205 0 0.681042 0.0233679 0.569074 0.0687428C0.457107 0.114119 0.35557 0.180596 0.270365 0.264314C0.0971484 0.434002 0 0.662995 0 0.901612C0 1.14023 0.0971484 1.36922 0.270365 1.53891L4.49873 6.00225Z" fill="#2D6B99"/>
</svg>
