<svg width="20" height="20" viewBox="0 0 20 20" fill="none" xmlns="http://www.w3.org/2000/svg">
<g clip-path="url(#clip0_4157_13079)">
<path d="M13.5312 18.9688H0.3125C0.15625 18.9688 0 18.8438 0 18.6562C0 18.4687 0.125 18.3438 0.3125 18.3438H13.5312C13.6875 18.3438 13.8437 18.4687 13.8437 18.6562C13.8437 18.8438 13.6875 18.9688 13.5312 18.9688Z" fill="#657785"/>
<path d="M13.5313 18.9688H2.21875C2.0625 18.9688 1.90625 18.8438 1.90625 18.6562V10.6875C1.90625 10.5312 2.03125 10.375 2.21875 10.375C2.40625 10.375 2.53125 10.5 2.53125 10.6875V18.3438H13.5313C13.6875 18.3438 13.8438 18.4688 13.8438 18.6562C13.8438 18.8438 13.6875 18.9688 13.5313 18.9688Z" fill="#657785"/>
<path d="M1.40625 11.3125C1.03125 11.3125 0.6875 11.1875 0.40625 10.9063C0.15625 10.6563 0 10.2813 0 9.90625C0 9.5625 0.15625 9.21875 0.375 8.9375L7.53125 1.78125C8.53125 0.78125 10.125 0.78125 11.125 1.78125L14.1875 4.84375C14.3125 4.96875 14.3125 5.15625 14.1875 5.28125C14.0625 5.40625 13.875 5.40625 13.75 5.28125L10.6875 2.21875C9.9375 1.46875 8.71875 1.46875 7.96875 2.21875L0.84375 9.34375C0.71875 9.5 0.625 9.71875 0.625 9.90625C0.625 10.0625 0.65625 10.2812 0.84375 10.4688C1.15625 10.7812 1.6875 10.7812 2 10.4688L9.125 3.34375C9.25 3.21875 9.4375 3.21875 9.5625 3.34375L12.1563 5.9375C12.2813 6.0625 12.2813 6.25 12.1563 6.375C12.0313 6.5 11.8438 6.5 11.7188 6.375L9.34375 4L2.4375 10.9063C2.15625 11.1875 1.78125 11.3125 1.40625 11.3125Z" fill="#657785"/>
<path d="M10.2812 18.9688H5.84375C5.6875 18.9688 5.53125 18.8438 5.53125 18.6562V12.9688C5.53125 12.4688 5.9375 12.0312 6.46875 12.0312H9.6875C10.1875 12.0312 10.5938 12.4688 10.5938 12.9688V18.6562C10.5938 18.8125 10.4375 18.9688 10.2812 18.9688ZM6.15625 18.3438H9.96875V12.9688C9.96875 12.7812 9.8125 12.6562 9.6875 12.6562H6.46875C6.28125 12.6562 6.15625 12.8125 6.15625 12.9688V18.3438Z" fill="#657785"/>
<path d="M15.4688 18.9375C15.0625 18.9375 14.6875 18.7188 14.4687 18.375C13.375 16.5625 10.9062 12.1875 10.9062 10.3125C10.9062 7.8125 12.9375 5.78125 15.4375 5.78125C17.9375 5.78125 20 7.8125 20 10.3125C20 11.625 18.8125 14.3125 16.5 18.375C16.25 18.7188 15.875 18.9375 15.4688 18.9375ZM15.4375 6.40625C13.2813 6.40625 11.5313 8.15625 11.5313 10.3125C11.5313 12.0625 14.1875 16.6875 15 18.0625C15.0938 18.2188 15.2812 18.3438 15.5 18.3438C15.7187 18.3438 15.875 18.25 16 18.0625C18.7813 13.1562 19.375 11.125 19.375 10.3125C19.375 8.15625 17.625 6.40625 15.4375 6.40625Z" fill="#657785"/>
<path d="M15.4687 13.2187C13.875 13.2187 12.5625 11.9062 12.5625 10.3125C12.5625 8.71875 13.875 7.40625 15.4687 7.40625C17.0625 7.40625 18.375 8.71875 18.375 10.3125C18.375 11.9062 17.0625 13.2187 15.4687 13.2187ZM15.4687 8.03125C14.2187 8.03125 13.1875 9.0625 13.1875 10.3125C13.1875 11.5625 14.2187 12.5937 15.4687 12.5937C16.7188 12.5937 17.75 11.5625 17.75 10.3125C17.75 9.0625 16.7188 8.03125 15.4687 8.03125Z" fill="#657785"/>
<path d="M6.78125 16.0625C6.625 16.0625 6.46875 15.9375 6.46875 15.75V15.3438C6.46875 15.1875 6.59375 15.0312 6.78125 15.0312C6.96875 15.0312 7.09375 15.1562 7.09375 15.3438V15.75C7.09375 15.9063 6.9375 16.0625 6.78125 16.0625Z" fill="#657785"/>
</g>
<defs>
<clipPath id="clip0_4157_13079">
<rect width="20" height="20" fill="white"/>
</clipPath>
</defs>
</svg>
