<svg width="18" height="20" viewBox="0 0 18 20" fill="none" xmlns="http://www.w3.org/2000/svg">
<path d="M13.3331 4.87169V7.94855C13.3331 8.09009 13.2182 8.20496 13.0767 8.20496H4.87169C4.73016 8.20496 4.61529 8.09009 4.61529 7.94855V4.87169C4.61529 4.73016 4.73016 4.61529 4.87169 4.61529H13.0767C13.2182 4.61529 13.3331 4.73016 13.3331 4.87169ZM17.9483 2.82045V17.1791C17.9483 18.735 16.6838 19.9996 15.1279 19.9996H2.82045C1.26459 19.9996 0 18.735 0 17.1791V2.82045C0 1.26459 1.26459 0 2.82045 0H15.1279C16.6838 0 17.9483 1.26459 17.9483 2.82045ZM10.769 15.1279C10.769 14.7033 10.4244 14.3587 9.99979 14.3587H3.84607C3.42147 14.3587 3.07686 14.7033 3.07686 15.1279C3.07686 15.5525 3.42147 15.8971 3.84607 15.8971H9.99979C10.4244 15.8971 10.769 15.5525 10.769 15.1279ZM14.8715 12.051C14.8715 11.6264 14.5269 11.2818 14.1023 11.2818H3.84607C3.42147 11.2818 3.07686 11.6264 3.07686 12.051C3.07686 12.4756 3.42147 12.8202 3.84607 12.8202H14.1023C14.5269 12.8202 14.8715 12.4756 14.8715 12.051ZM14.8715 4.87169C14.8715 3.88197 14.0664 3.07686 13.0767 3.07686H4.87169C3.88197 3.07686 3.07686 3.88197 3.07686 4.87169V7.94855C3.07686 8.93827 3.88197 9.74339 4.87169 9.74339H13.0767C14.0664 9.74339 14.8715 8.93827 14.8715 7.94855V4.87169Z" fill="#BCBCBC"/>
</svg>
