<svg width="18" height="18" viewBox="0 0 18 18" fill="none" xmlns="http://www.w3.org/2000/svg">
<g clip-path="url(#clip0_4182_775)">
<path fill-rule="evenodd" clip-rule="evenodd" d="M9.00001 12.7371C8.87847 12.7371 8.76565 12.6742 8.7027 12.5717C8.47566 12.2099 8.16955 11.7543 7.8151 11.2285C6.38849 9.11054 4.43457 6.21188 4.43457 4.56552C4.43457 2.04768 6.48225 0 9.00005 0C11.5179 0 13.5656 2.04768 13.5656 4.56552C13.5656 6.21184 11.6117 9.11199 10.185 11.2285C9.83056 11.7543 9.52445 12.2099 9.29744 12.5717C9.23433 12.6756 9.12159 12.7371 9.00001 12.7371ZM9.00001 0.703072C6.87033 0.703072 5.1376 2.43584 5.1376 4.56552C5.1376 5.99654 7.09887 8.9084 8.39805 10.836C8.6192 11.1655 8.82283 11.4658 9.00001 11.7368C9.17723 11.4658 9.38086 11.1655 9.60202 10.836C10.8998 8.9084 12.861 5.9965 12.861 4.56552C12.8625 2.4358 11.1297 0.703072 9.00001 0.703072Z" fill="#657785"/>
<path fill-rule="evenodd" clip-rule="evenodd" d="M8.99979 7.00547C7.62296 7.00547 6.50391 5.88497 6.50391 4.50955C6.50391 3.13272 7.62441 2.01367 8.99979 2.01367C10.3767 2.01367 11.4957 3.13418 11.4957 4.50955C11.4957 5.88497 10.3766 7.00547 8.99979 7.00547ZM8.99979 2.71533C8.01112 2.71533 7.20698 3.51947 7.20698 4.50814C7.20698 5.49685 8.01112 6.30099 8.99979 6.30099C9.9885 6.30099 10.7926 5.49685 10.7926 4.50814C10.7926 3.51943 9.9885 2.71533 8.99979 2.71533Z" fill="#657785"/>
<path fill-rule="evenodd" clip-rule="evenodd" d="M6.39993 17.9991C6.36331 17.9991 6.32523 17.9932 6.28861 17.9815L1.09031 16.2473C0.946764 16.1989 0.850098 16.0657 0.850098 15.9133V5.80676C0.850098 5.69398 0.904286 5.58706 0.99655 5.52116C1.08881 5.45526 1.20603 5.43766 1.31296 5.47283L5.88728 6.9976C5.97224 7.02542 6.04254 7.08551 6.08502 7.16307C6.26224 7.48969 6.46878 7.84858 6.70164 8.22939C6.73535 8.28503 6.75292 8.34806 6.75292 8.41247V17.6475C6.75292 17.7603 6.69873 17.8672 6.60647 17.9331C6.54493 17.9756 6.47314 17.9991 6.39993 17.9991ZM1.55317 15.6614L6.04839 17.1598L6.04835 8.51063C5.85647 8.19422 5.68806 7.90131 5.53276 7.62153L1.55317 6.29308V15.6614Z" fill="#657785"/>
<path fill-rule="evenodd" clip-rule="evenodd" d="M6.39992 17.9986C6.32667 17.9986 6.25492 17.9751 6.19483 17.9327C6.10261 17.8667 6.04838 17.7598 6.04838 17.647L6.04834 8.412C6.04834 8.25384 6.15385 8.11615 6.3047 8.07367C6.45701 8.03119 6.61816 8.09563 6.70017 8.22892C7.25384 9.13999 7.8617 10.0408 8.39636 10.8361C8.61751 11.1657 8.82114 11.4674 8.99832 11.7369C9.17554 11.4674 9.37917 11.1657 9.60032 10.8361C10.1364 10.0408 10.7428 9.13999 11.2965 8.22892C11.3785 8.09418 11.5396 8.03119 11.692 8.07367C11.8443 8.11615 11.9483 8.25384 11.9483 8.412V15.9143C11.9483 16.0652 11.8516 16.1999 11.7081 16.2482L6.50983 17.981C6.47458 17.9927 6.43799 17.9986 6.39992 17.9986ZM6.75141 9.63062V17.1592L11.2467 15.6608V9.63062C10.8849 10.1902 10.5201 10.7307 10.1848 11.2301C9.83028 11.7559 9.52417 12.2115 9.29716 12.5733C9.23268 12.6758 9.11994 12.7387 8.99832 12.7387C8.87678 12.7387 8.76396 12.6758 8.70101 12.5733C8.47396 12.21 8.16785 11.7559 7.81341 11.2301C7.47794 10.7307 7.11466 10.1902 6.75141 9.63062Z" fill="#657785"/>
<path fill-rule="evenodd" clip-rule="evenodd" d="M16.7978 17.9997C16.7612 17.9997 16.7232 17.9939 16.6866 17.9822L11.4883 16.2494C11.3448 16.2011 11.2481 16.0678 11.2481 15.9154L11.248 8.41318C11.248 8.34874 11.2656 8.28575 11.2993 8.23011C11.8178 7.37618 12.1972 6.66725 12.4579 6.06234C12.5297 5.89388 12.7186 5.81038 12.8915 5.86752L16.9092 7.20627C17.0527 7.2546 17.1494 7.38789 17.1494 7.5402V17.6482C17.1494 17.761 17.0952 17.8679 17.0029 17.9338C16.9428 17.9763 16.8711 17.9997 16.7978 17.9997ZM11.9511 15.6621L16.4463 17.1605L16.4463 7.79361L12.9705 6.63503C12.7171 7.1799 12.3803 7.79801 11.9511 8.51134V15.6621Z" fill="#657785"/>
</g>
<defs>
<clipPath id="clip0_4182_775">
<rect width="18" height="18" fill="white"/>
</clipPath>
</defs>
</svg>
