<svg width="18" height="18" viewBox="0 0 18 18" fill="none" xmlns="http://www.w3.org/2000/svg">
<g clip-path="url(#clip0_4157_14303)">
<path d="M14.9973 6.61561C14.1653 3.30151 10.8044 1.28932 7.49028 2.12124C4.90039 2.77138 3.01984 5.00978 2.82608 7.67296C0.987154 7.97622 -0.257768 9.71278 0.0454918 11.5517C0.315076 13.1865 1.73165 14.3838 3.38852 14.3772H6.20071V13.2524H3.38852C2.14602 13.2524 1.13877 12.2451 1.13877 11.0026C1.13877 9.7601 2.14602 8.75284 3.38852 8.75284C3.69916 8.75284 3.95096 8.50105 3.95096 8.1904C3.94815 5.39477 6.21221 3.12617 9.00784 3.1234C11.4279 3.12097 13.5111 4.83184 13.9792 7.20614C14.0255 7.4432 14.2179 7.62431 14.4573 7.65609C15.9949 7.87505 17.0639 9.29904 16.845 10.8366C16.6484 12.2174 15.4695 13.2454 14.0749 13.2524H11.8251V14.3772H14.0749C16.2492 14.3707 18.0066 12.6026 18 10.4282C17.9945 8.61824 16.7556 7.04514 14.9973 6.61561Z" fill="white"/>
<path d="M8.61401 8.91552L6.36426 11.1653L7.1573 11.9583L8.4509 10.6703V16.0641H9.57578V10.6703L10.8638 11.9583L11.6568 11.1653L9.40705 8.91552C9.18766 8.69743 8.8334 8.69743 8.61401 8.91552Z" fill="white"/>
</g>
<defs>
<clipPath id="clip0_4157_14303">
<rect width="18" height="18" fill="white"/>
</clipPath>
</defs>
</svg>
