<svg width="18" height="20" viewBox="0 0 18 20" fill="none" xmlns="http://www.w3.org/2000/svg">
<path d="M16.6158 0H2.76929C2.00428 0 1.38465 0.61963 1.38465 1.38465V2.76929H0.692324C0.310161 2.76929 0 3.07946 0 3.46162C0 3.84378 0.310161 4.15394 0.692324 4.15394C1.93504 4.15394 -0.100387 4.15394 2.76929 4.15394C3.15146 4.15394 3.46162 4.4641 3.46162 4.84627C3.46162 5.22843 3.15146 5.53859 2.76929 5.53859H1.38465V13.8465H0.692324C0.310161 13.8465 0 14.1566 0 14.5388C0 14.921 0.310161 15.2311 0.692324 15.2311C1.93504 15.2311 -0.100387 15.2311 2.76929 15.2311C3.15146 15.2311 3.46162 15.5413 3.46162 15.9234C3.46162 16.3056 3.15146 16.6158 2.76929 16.6158H1.38465V18.0004C1.38465 18.7654 2.00428 19.3851 2.76929 19.3851H16.6158C17.3808 19.3851 18.0004 18.7654 18.0004 18.0004V1.38465C18.0004 0.61963 17.3808 0 16.6158 0ZM9.69253 3.46162C11.2219 3.46162 12.4618 4.70157 12.4618 6.23091C12.4618 7.76026 11.2219 9.00021 9.69253 9.00021C8.16319 9.00021 6.92324 7.76026 6.92324 6.23091C6.92324 4.70157 8.16319 3.46162 9.69253 3.46162ZM13.8465 15.2311H5.53859V13.8465C5.53859 11.5521 7.39817 9.69253 9.69253 9.69253C11.9869 9.69253 13.8465 11.5521 13.8465 13.8465V15.2311Z" fill="#BCBCBC"/>
</svg>
