<svg width="20" height="20" viewBox="0 0 20 20" fill="none" xmlns="http://www.w3.org/2000/svg">
<g clip-path="url(#clip0_4157_13187)">
<path d="M4.99934 12.0003C5.18367 12.0003 5.33266 11.851 5.33266 11.667V11.0003C5.33266 10.8163 5.18367 10.667 4.99934 10.667C4.815 10.667 4.66602 10.8163 4.66602 11.0003V11.667C4.66602 11.851 4.815 12.0003 4.99934 12.0003Z" fill="#657785"/>
<path d="M14.9993 10.667C14.815 10.667 14.666 10.8163 14.666 11.0003V11.667C14.666 11.851 14.815 12.0003 14.9993 12.0003C15.1837 12.0003 15.3327 11.851 15.3327 11.667V11.0003C15.3327 10.8163 15.1837 10.667 14.9993 10.667Z" fill="#657785"/>
<path d="M15.3191 16.9183C15.3128 16.8946 15.3028 16.8733 15.2918 16.8513C15.2854 16.8396 15.2841 16.8263 15.2768 16.815C15.2731 16.81 15.2678 16.8073 15.2641 16.8023C15.2501 16.784 15.2328 16.7693 15.2151 16.7536C15.1988 16.739 15.1831 16.7246 15.1641 16.7139C15.1585 16.7103 15.1551 16.705 15.1488 16.7016L13.8155 16.0349C13.7081 15.9819 13.5808 15.9896 13.4815 16.0559L11.4812 17.3892C11.3885 17.4512 11.3328 17.5553 11.3328 17.6666V18.8486C11.1345 19.0073 10.6475 19.3332 9.99951 19.3332C9.35783 19.3332 8.86619 19.0056 8.66619 18.8476V17.6666C8.66619 17.5552 8.61053 17.4512 8.51787 17.3892L6.51787 16.0559C6.41854 15.9896 6.29119 15.9819 6.18389 16.0349L4.85057 16.7016C4.84455 16.7046 4.84123 16.7099 4.83592 16.7132C4.81592 16.7246 4.79924 16.7396 4.78225 16.7552C4.76526 16.7702 4.74893 16.7839 4.73592 16.8012C4.73194 16.8066 4.72592 16.8096 4.72225 16.8149C4.71424 16.8269 4.71291 16.8406 4.70658 16.8536C4.69623 16.8742 4.68623 16.8946 4.68026 16.9173C4.6749 16.9379 4.67326 16.9583 4.67225 16.9796C4.67092 17.0006 4.6699 17.0209 4.67256 17.0423C4.67522 17.0656 4.68291 17.0869 4.69057 17.1089C4.69522 17.1223 4.6949 17.1363 4.70123 17.1489C4.70424 17.155 4.7099 17.1586 4.71322 17.1643C4.72424 17.1836 4.73924 17.2 4.75455 17.2169C4.76955 17.2336 4.78354 17.2503 4.80088 17.2636C4.80623 17.2676 4.8092 17.2736 4.81455 17.2773L6.81455 18.6106C6.87154 18.6486 6.93588 18.6666 6.9992 18.6666C7.10686 18.6666 7.21287 18.6146 7.27686 18.5183C7.3792 18.365 7.33787 18.158 7.18451 18.056L5.66217 17.0413L6.30885 16.718L7.99951 17.845V19C7.99951 19.0883 8.03451 19.1733 8.09717 19.2356C8.12846 19.2669 8.87447 20 9.99947 20C11.1245 20 11.8705 19.2669 11.9018 19.2356C11.9645 19.1733 11.9995 19.0883 11.9995 19V17.845L13.6905 16.718L14.3368 17.0413L12.8145 18.0559C12.6612 18.1579 12.6198 18.3649 12.7221 18.5183C12.7861 18.6146 12.8921 18.6666 12.9998 18.6666C13.0631 18.6666 13.1274 18.6486 13.1844 18.6106L15.1844 17.2773C15.1898 17.2736 15.1924 17.2679 15.1974 17.2639C15.2161 17.2503 15.2308 17.2329 15.2464 17.2153C15.2604 17.1986 15.2747 17.1836 15.2854 17.1649C15.2887 17.1589 15.2947 17.1553 15.2981 17.1489C15.3047 17.1352 15.3047 17.1206 15.3094 17.1066C15.3164 17.0855 15.3237 17.0655 15.3264 17.0435C15.3294 17.0209 15.3284 16.9996 15.3267 16.9772C15.3258 16.9573 15.3245 16.938 15.3191 16.9183Z" fill="#657785"/>
<path d="M2.22794 15.983C2.26294 15.9943 2.2986 16 2.33329 16C2.47294 16 2.60294 15.9117 2.6493 15.772C2.69094 15.6473 3.66661 12.6896 3.66661 10V7C3.66661 1.76535 7.11059 0.66668 9.99993 0.66668C10.9843 0.66668 13.0326 0.66668 13.3456 1.10137C13.3586 1.11902 13.3779 1.1457 13.3506 1.22805C13.3132 1.33906 13.3373 1.46105 13.4132 1.54973C13.4893 1.63871 13.6059 1.68105 13.7213 1.66207C14.1456 1.59207 14.5186 1.6984 14.8613 1.9884C15.7556 2.74605 16.3332 4.7134 16.3332 7.00008V10C16.3332 13.0257 17.3126 15.6727 17.3543 15.7837C17.419 15.956 17.6109 16.043 17.7836 15.979C17.9559 15.9144 18.0432 15.7223 17.979 15.5497C17.9689 15.5237 16.9999 12.9007 16.9999 10V7C16.9999 5.03066 16.5513 2.54633 15.2923 1.47965C14.9116 1.15766 14.4746 0.986641 14.0096 0.975664C13.9829 0.867344 13.9353 0.778984 13.8866 0.711328C13.4123 0.0536718 11.8459 0 9.99993 0C5.48594 0 2.99993 2.48602 2.99993 7V10C2.99993 12.5796 2.02692 15.5317 2.01727 15.5613C1.95891 15.736 2.05325 15.9247 2.22794 15.983Z" fill="#657785"/>
<path d="M3.58592 16.6771C0.773893 17.3801 0.0465882 19.4728 0.0172523 19.5618C-0.041068 19.7364 0.0532679 19.9251 0.227916 19.9835C0.262916 19.9951 0.29858 20.0005 0.333229 20.0005C0.472916 20.0005 0.602916 19.9121 0.649244 19.7724C0.655573 19.7541 1.28659 17.9388 3.74725 17.3238C3.92592 17.2791 4.0346 17.0981 3.98991 16.9194C3.94526 16.7411 3.76424 16.6321 3.58592 16.6771Z" fill="#657785"/>
<path d="M8.33332 9.33328C8.51766 9.33328 8.66664 9.18395 8.66664 8.99996V8.78063C8.68797 8.80129 8.70266 8.81828 8.7043 8.82063C8.76364 8.93461 8.87996 8.99996 9.00032 8.99996C9.052 8.99996 9.10465 8.98797 9.15399 8.96231C9.317 8.87731 9.38067 8.67598 9.29567 8.51266C9.19668 8.3223 8.88199 8 8.33332 8C7.78465 8 7.47 8.32234 7.37098 8.51266C7.28797 8.6723 7.34965 8.86301 7.50598 8.95133C7.66164 9.03965 7.86332 8.98332 7.95731 8.82934C7.96063 8.82434 7.97696 8.805 7.99996 8.78266V9C8 9.18395 8.14899 9.33328 8.33332 9.33328Z" fill="#657785"/>
<path d="M19.9827 19.5609C19.9533 19.4719 19.226 17.3792 16.414 16.6763C16.2353 16.6309 16.0547 16.7403 16.01 16.9186C15.9654 17.0973 16.074 17.2783 16.2527 17.323C18.695 17.9336 19.3253 19.6983 19.3507 19.7716C19.397 19.9113 19.527 19.9996 19.6667 19.9996C19.7014 19.9996 19.7371 19.9943 19.7721 19.9826C19.9467 19.9242 20.041 19.7356 19.9827 19.5609Z" fill="#657785"/>
<path d="M9.99944 13.0001C10.7818 13.0001 11.1911 12.6131 11.2351 12.5691C11.3638 12.4404 11.3634 12.2345 11.2371 12.1038C11.1101 11.9731 10.9008 11.9694 10.7678 12.0941C10.7571 12.1038 10.5058 12.3335 9.99944 12.3335C9.50046 12.3335 9.24913 12.1104 9.23179 12.0945C9.1021 11.9675 8.89312 11.9685 8.76378 12.0978C8.63343 12.2281 8.63343 12.4388 8.76378 12.5691C8.80776 12.6131 9.2171 13.0001 9.99944 13.0001Z" fill="#657785"/>
<path d="M11.6663 9.33328C11.8507 9.33328 11.9997 9.18395 11.9997 8.99996V8.78063C12.021 8.80129 12.0357 8.81828 12.0373 8.82063C12.0966 8.93461 12.213 8.99996 12.3333 8.99996C12.385 8.99996 12.4377 8.98797 12.487 8.96231C12.65 8.87731 12.7137 8.67598 12.6287 8.51266C12.5297 8.3223 12.215 8 11.6663 8C11.1177 8 10.803 8.32234 10.704 8.51266C10.621 8.6723 10.6827 8.86301 10.839 8.95133C10.995 9.03965 11.1966 8.98332 11.2903 8.82934C11.2936 8.82434 11.31 8.805 11.333 8.78266V9C11.333 9.18395 11.482 9.33328 11.6663 9.33328Z" fill="#657785"/>
<path d="M15.1997 7.40046C14.866 7.14878 13.9993 6.34745 13.9993 5.66679C13.9993 5.48281 13.8504 5.33347 13.666 5.33347C13.4817 5.33347 13.3327 5.48281 13.3327 5.66679C13.3327 6.63077 14.284 7.51245 14.6614 7.82413C14.5897 9.13179 13.688 11.5438 13.3677 12.1845C13.0687 12.7828 11.4867 14.6668 9.99937 14.6668C8.51207 14.6668 6.93004 12.7828 6.63105 12.1845C6.29738 11.5171 5.33273 8.92749 5.33273 7.66683V6.66183C6.65441 6.6305 11.4781 6.39117 13.8661 4.60015C14.0134 4.4898 14.0434 4.28081 13.9327 4.13347C13.8224 3.98613 13.6134 3.95613 13.4661 4.06679C10.9197 5.97644 5.05832 6.00011 4.99934 6.00011C4.815 6.00011 4.66602 6.14945 4.66602 6.33343V7.66675C4.66602 9.09742 5.71566 11.8451 6.03434 12.4824C6.44 13.2937 8.21535 15.3334 9.99934 15.3334C11.7833 15.3334 13.5587 13.2937 13.9643 12.4824C14.283 11.8451 15.3327 9.09742 15.3327 7.66675C15.3327 7.5621 15.2833 7.46343 15.1997 7.40046Z" fill="#657785"/>
</g>
<defs>
<clipPath id="clip0_4157_13187">
<rect width="20" height="20" fill="white"/>
</clipPath>
</defs>
</svg>
