<svg width="19" height="23" viewBox="0 0 19 23" fill="none" xmlns="http://www.w3.org/2000/svg">
<path d="M10.4342 20.5522H8.28432C8.04055 20.5517 7.80694 20.4543 7.6347 20.2816C7.46245 20.1088 7.36562 19.8747 7.36544 19.6306V9.82946H3.78236C3.54756 9.82891 3.32254 9.73521 3.15657 9.56888C2.9906 9.40255 2.89721 9.17713 2.89684 8.942V6.72227C2.89739 6.48683 2.99113 6.26121 3.15751 6.09485C3.32389 5.9285 3.54934 5.83499 3.78445 5.8348H7.36753V1.92019C7.36771 1.67619 7.46458 1.44225 7.63687 1.26972C7.80915 1.09719 8.04276 1.00018 8.28641 1H10.4363C10.68 1.00018 10.9137 1.09717 11.086 1.26968C11.2584 1.44219 11.3555 1.67613 11.3558 1.92019V5.8348H14.9382C15.1732 5.83517 15.3985 5.92877 15.5647 6.0951C15.7309 6.26143 15.8246 6.48695 15.8251 6.72227V8.942C15.8249 9.05872 15.8018 9.17427 15.757 9.28204C15.7123 9.38981 15.6467 9.4877 15.5642 9.57011C15.4816 9.65252 15.3837 9.71784 15.2759 9.76234C15.1682 9.80684 15.0527 9.82965 14.9361 9.82946H11.3538V19.6306C11.3536 19.8749 11.2566 20.1091 11.0842 20.2818C10.9119 20.4546 10.6781 20.5518 10.4342 20.5522ZM3.78236 6.558C3.73854 6.558 3.6965 6.57534 3.66538 6.60624C3.63427 6.63713 3.61661 6.67909 3.61624 6.72297V8.94269C3.61661 8.98651 3.63429 9.02839 3.66543 9.05918C3.69656 9.08996 3.73861 9.10715 3.78236 9.10696H7.72618C7.8218 9.10714 7.91345 9.14526 7.98106 9.21297C8.04867 9.28068 8.08674 9.37246 8.08692 9.46821V19.6306C8.08683 19.6567 8.09187 19.6825 8.10174 19.7066C8.11161 19.7307 8.12612 19.7526 8.14445 19.7711C8.16278 19.7896 8.18457 19.8043 8.20857 19.8143C8.23257 19.8244 8.25831 19.8296 8.28432 19.8297H10.4342C10.4868 19.8295 10.5372 19.8085 10.5743 19.7711C10.6114 19.7338 10.6323 19.6833 10.6323 19.6306V9.46821C10.6323 9.3724 10.6703 9.28052 10.7379 9.21277C10.8056 9.14502 10.8973 9.10696 10.993 9.10696H14.9361C14.9799 9.10715 15.0219 9.08996 15.0531 9.05918C15.0842 9.02839 15.1019 8.98651 15.1023 8.94269V6.72227C15.1019 6.67839 15.0842 6.63644 15.0531 6.60554C15.022 6.57464 14.98 6.55731 14.9361 6.55731H10.993C10.8973 6.55731 10.8056 6.51925 10.7379 6.4515C10.6703 6.38375 10.6323 6.29187 10.6323 6.19606V1.92019C10.6321 1.86769 10.6111 1.81741 10.574 1.78036C10.5369 1.74331 10.4866 1.72251 10.4342 1.72251H8.28432C8.23197 1.72251 8.18176 1.74333 8.14474 1.7804C8.10772 1.81748 8.08692 1.86776 8.08692 1.92019V6.19606C8.08692 6.29187 8.04892 6.38375 7.98127 6.4515C7.91361 6.51925 7.82186 6.55731 7.72618 6.55731L3.78236 6.558ZM6.34578 20.5522H1.36074C1.26507 20.5522 1.17331 20.5141 1.10566 20.4464C1.03801 20.3786 1 20.2868 1 20.191C1 20.0951 1.03801 20.0033 1.10566 19.9355C1.17331 19.8678 1.26507 19.8297 1.36074 19.8297H6.34578C6.44145 19.8297 6.53321 19.8678 6.60086 19.9355C6.66851 20.0033 6.70652 20.0951 6.70652 20.191C6.70652 20.2868 6.66851 20.3786 6.60086 20.4464C6.53321 20.5141 6.44145 20.5522 6.34578 20.5522ZM17.6393 20.5522H12.3011C12.2055 20.5522 12.1137 20.5141 12.046 20.4464C11.9784 20.3786 11.9404 20.2868 11.9404 20.191C11.9404 20.0951 11.9784 20.0033 12.046 19.9355C12.1137 19.8678 12.2055 19.8297 12.3011 19.8297H17.6393C17.7349 19.8297 17.8267 19.8678 17.8943 19.9355C17.962 20.0033 18 20.0951 18 20.191C18 20.2868 17.962 20.3786 17.8943 20.4464C17.8267 20.5141 17.7349 20.5522 17.6393 20.5522ZM12.1246 22H4.75685C4.66117 22 4.56942 21.9619 4.50177 21.8942C4.43411 21.8264 4.39611 21.7346 4.39611 21.6387C4.39611 21.5429 4.43411 21.451 4.50177 21.3833C4.56942 21.3156 4.66117 21.2775 4.75685 21.2775H12.1246C12.2203 21.2775 12.312 21.3156 12.3797 21.3833C12.4473 21.451 12.4853 21.5429 12.4853 21.6387C12.4853 21.7346 12.4473 21.8264 12.3797 21.8942C12.312 21.9619 12.2203 22 12.1246 22ZM14.5045 22H13.5807C13.4851 22 13.3933 21.9619 13.3257 21.8942C13.258 21.8264 13.22 21.7346 13.22 21.6387C13.22 21.5429 13.258 21.451 13.3257 21.3833C13.3933 21.3156 13.4851 21.2775 13.5807 21.2775H14.5045C14.6002 21.2775 14.6919 21.3156 14.7596 21.3833C14.8272 21.451 14.8652 21.5429 14.8652 21.6387C14.8652 21.7346 14.8272 21.8264 14.7596 21.8942C14.6919 21.9619 14.6002 22 14.5045 22Z" fill="#858585" stroke="#858585" stroke-width="0.5"/>
</svg>
